<mxfile host="app.diagrams.net" agent="Mozilla/5.0 (Macintosh; Intel Mac OS X 10_15_7) AppleWebKit/537.36 (KHTML, like Gecko) Chrome/131.0.0.0 Safari/537.36" version="26.0.2" pages="4">
  <diagram name="Page-1" id="a9uxS09-IT5_DhpIRI0Y">
    <mxGraphModel dx="1253" dy="1438" grid="1" gridSize="10" guides="1" tooltips="1" connect="1" arrows="1" fold="1" page="1" pageScale="1" pageWidth="827" pageHeight="1169" math="0" shadow="0">
      <root>
        <mxCell id="0" />
        <mxCell id="1" parent="0" />
        <mxCell id="mhUbV6uBzXw5fU48ypKD-28" value="" style="rounded=0;whiteSpace=wrap;html=1;fillColor=#999999;fontColor=default;strokeColor=#999999;strokeWidth=1;labelBackgroundColor=none;textOpacity=60;textShadow=0;labelBorderColor=none;" vertex="1" parent="1">
          <mxGeometry x="53" y="85" width="720" height="1000" as="geometry" />
        </mxCell>
        <mxCell id="mhUbV6uBzXw5fU48ypKD-2" value="&lt;span style=&quot;caret-color: rgb(0, 0, 0); text-align: start;&quot;&gt;&lt;b style=&quot;&quot;&gt;&lt;font face=&quot;Helvetica&quot; style=&quot;font-size: 21px;&quot;&gt;Information Contour&lt;/font&gt;&lt;/b&gt;&lt;/span&gt;" style="rounded=1;whiteSpace=wrap;html=1;fillColor=#dae8fc;strokeColor=#6c8ebf;" vertex="1" parent="1">
          <mxGeometry x="128" y="105" width="200" height="80" as="geometry" />
        </mxCell>
        <mxCell id="mhUbV6uBzXw5fU48ypKD-3" value="" style="triangle;whiteSpace=wrap;html=1;fillColor=#f5f5f5;fontColor=#333333;strokeColor=#666666;" vertex="1" parent="1">
          <mxGeometry x="378" y="105" width="60" height="80" as="geometry" />
        </mxCell>
        <mxCell id="mhUbV6uBzXw5fU48ypKD-4" value="&lt;span style=&quot;caret-color: rgb(0, 0, 0);&quot;&gt;&lt;font face=&quot;Helvetica&quot; style=&quot;font-size: 17px;&quot;&gt;Analytical support for innovative project development.&lt;/font&gt;&lt;/span&gt;" style="rounded=1;whiteSpace=wrap;html=1;fillColor=#d5e8d4;strokeColor=#82b366;align=left;" vertex="1" parent="1">
          <mxGeometry x="488" y="105" width="245" height="80" as="geometry" />
        </mxCell>
        <mxCell id="mhUbV6uBzXw5fU48ypKD-6" value="&lt;span style=&quot;caret-color: rgb(0, 0, 0); text-align: start;&quot;&gt;&lt;b style=&quot;&quot;&gt;&lt;font face=&quot;Helvetica&quot; style=&quot;font-size: 21px;&quot;&gt;Organizational Contour&lt;/font&gt;&lt;/b&gt;&lt;/span&gt;" style="rounded=1;whiteSpace=wrap;html=1;fillColor=#dae8fc;strokeColor=#6c8ebf;" vertex="1" parent="1">
          <mxGeometry x="128" y="225" width="200" height="80" as="geometry" />
        </mxCell>
        <mxCell id="mhUbV6uBzXw5fU48ypKD-7" value="" style="triangle;whiteSpace=wrap;html=1;fillColor=#f5f5f5;fontColor=#333333;strokeColor=#666666;" vertex="1" parent="1">
          <mxGeometry x="378" y="225" width="60" height="80" as="geometry" />
        </mxCell>
        <mxCell id="mhUbV6uBzXw5fU48ypKD-8" value="&lt;span style=&quot;caret-color: rgb(0, 0, 0);&quot;&gt;&lt;font face=&quot;Helvetica&quot; style=&quot;font-size: 17px;&quot;&gt;Coordinating events like conferences, seminars, and exhibitions.&lt;/font&gt;&lt;/span&gt;" style="rounded=1;whiteSpace=wrap;html=1;fillColor=#d5e8d4;strokeColor=#82b366;align=left;" vertex="1" parent="1">
          <mxGeometry x="488" y="225" width="245" height="80" as="geometry" />
        </mxCell>
        <mxCell id="mhUbV6uBzXw5fU48ypKD-9" value="&lt;span style=&quot;caret-color: rgb(0, 0, 0); text-align: start;&quot;&gt;&lt;b style=&quot;&quot;&gt;&lt;font style=&quot;font-size: 21px;&quot;&gt;Investment and Financial Contour&lt;/font&gt;&lt;/b&gt;&lt;/span&gt;" style="rounded=1;whiteSpace=wrap;html=1;fillColor=#dae8fc;strokeColor=#6c8ebf;" vertex="1" parent="1">
          <mxGeometry x="128" y="345" width="200" height="80" as="geometry" />
        </mxCell>
        <mxCell id="mhUbV6uBzXw5fU48ypKD-10" value="" style="triangle;whiteSpace=wrap;html=1;fillColor=#f5f5f5;fontColor=#333333;strokeColor=#666666;" vertex="1" parent="1">
          <mxGeometry x="378" y="345" width="60" height="80" as="geometry" />
        </mxCell>
        <mxCell id="mhUbV6uBzXw5fU48ypKD-11" value="&lt;span style=&quot;caret-color: rgb(0, 0, 0); color: rgb(0, 0, 0); font-style: normal; font-variant-caps: normal; letter-spacing: normal; text-align: start; text-indent: 0px; text-transform: none; white-space: normal; word-spacing: 0px; -webkit-text-stroke-width: 0px; text-decoration: none; float: none; display: inline !important;&quot;&gt;&lt;font face=&quot;Helvetica&quot; style=&quot;font-size: 17px;&quot;&gt;Conducting pre-investment research and securing funding.&lt;/font&gt;&lt;/span&gt;" style="rounded=1;whiteSpace=wrap;html=1;fillColor=#d5e8d4;strokeColor=#82b366;align=left;" vertex="1" parent="1">
          <mxGeometry x="488" y="345" width="245" height="80" as="geometry" />
        </mxCell>
        <mxCell id="mhUbV6uBzXw5fU48ypKD-12" value="&lt;span style=&quot;caret-color: rgb(0, 0, 0); text-align: start;&quot;&gt;&lt;b style=&quot;&quot;&gt;&lt;font face=&quot;Helvetica&quot; style=&quot;font-size: 21px;&quot;&gt;Expert Contour&lt;/font&gt;&lt;/b&gt;&lt;/span&gt;" style="rounded=1;whiteSpace=wrap;html=1;fillColor=#dae8fc;strokeColor=#6c8ebf;" vertex="1" parent="1">
          <mxGeometry x="128" y="465" width="200" height="80" as="geometry" />
        </mxCell>
        <mxCell id="mhUbV6uBzXw5fU48ypKD-13" value="" style="triangle;whiteSpace=wrap;html=1;fillColor=#f5f5f5;fontColor=#333333;strokeColor=#666666;" vertex="1" parent="1">
          <mxGeometry x="378" y="465" width="60" height="80" as="geometry" />
        </mxCell>
        <mxCell id="mhUbV6uBzXw5fU48ypKD-14" value="&lt;span style=&quot;caret-color: rgb(0, 0, 0); color: rgb(0, 0, 0); font-style: normal; font-variant-caps: normal; font-weight: 400; letter-spacing: normal; text-indent: 0px; text-transform: none; white-space: normal; word-spacing: 0px; -webkit-text-stroke-width: 0px; text-decoration: none; float: none; display: inline !important;&quot;&gt;&lt;font face=&quot;Helvetica&quot; style=&quot;font-size: 17px;&quot;&gt;Crafting advanced methodologies and strategic decision-making frameworks.&lt;/font&gt;&lt;/span&gt;" style="rounded=1;whiteSpace=wrap;html=1;fillColor=#d5e8d4;strokeColor=#82b366;align=left;" vertex="1" parent="1">
          <mxGeometry x="488" y="465" width="245" height="80" as="geometry" />
        </mxCell>
        <mxCell id="mhUbV6uBzXw5fU48ypKD-15" value="&lt;span style=&quot;caret-color: rgb(0, 0, 0); text-align: start;&quot;&gt;&lt;b style=&quot;&quot;&gt;&lt;font style=&quot;font-size: 21px;&quot;&gt;Consulting and Auditing Contour&lt;/font&gt;&lt;/b&gt;&lt;/span&gt;" style="rounded=1;whiteSpace=wrap;html=1;fillColor=#dae8fc;strokeColor=#6c8ebf;" vertex="1" parent="1">
          <mxGeometry x="128" y="585" width="200" height="80" as="geometry" />
        </mxCell>
        <mxCell id="mhUbV6uBzXw5fU48ypKD-16" value="" style="triangle;whiteSpace=wrap;html=1;fillColor=#f5f5f5;fontColor=#333333;strokeColor=#666666;" vertex="1" parent="1">
          <mxGeometry x="378" y="585" width="60" height="80" as="geometry" />
        </mxCell>
        <mxCell id="mhUbV6uBzXw5fU48ypKD-17" value="&lt;span style=&quot;caret-color: rgb(0, 0, 0);&quot;&gt;&lt;font face=&quot;Helvetica&quot; style=&quot;font-size: 17px;&quot;&gt;Performing audits in finance, technology, and compliance.&lt;/font&gt;&lt;/span&gt;" style="rounded=1;whiteSpace=wrap;html=1;fillColor=#d5e8d4;strokeColor=#82b366;align=left;" vertex="1" parent="1">
          <mxGeometry x="488" y="585" width="245" height="80" as="geometry" />
        </mxCell>
        <mxCell id="mhUbV6uBzXw5fU48ypKD-18" value="&lt;span style=&quot;caret-color: rgb(0, 0, 0); text-align: start;&quot;&gt;&lt;b style=&quot;&quot;&gt;&lt;font face=&quot;Helvetica&quot; style=&quot;font-size: 21px;&quot;&gt;Regulatory and Legal Contour&lt;/font&gt;&lt;/b&gt;&lt;/span&gt;" style="rounded=1;whiteSpace=wrap;html=1;fillColor=#dae8fc;strokeColor=#6c8ebf;" vertex="1" parent="1">
          <mxGeometry x="128" y="705" width="200" height="80" as="geometry" />
        </mxCell>
        <mxCell id="mhUbV6uBzXw5fU48ypKD-19" value="" style="triangle;whiteSpace=wrap;html=1;fillColor=#f5f5f5;fontColor=#333333;strokeColor=#666666;" vertex="1" parent="1">
          <mxGeometry x="378" y="705" width="60" height="80" as="geometry" />
        </mxCell>
        <mxCell id="mhUbV6uBzXw5fU48ypKD-20" value="&lt;span style=&quot;caret-color: rgb(0, 0, 0);&quot;&gt;&lt;font style=&quot;font-size: 17px;&quot; face=&quot;Helvetica&quot;&gt;Preparing documentation for legal and regulatory processes, such as privatization.&lt;/font&gt;&lt;/span&gt;" style="rounded=1;whiteSpace=wrap;html=1;fillColor=#d5e8d4;strokeColor=#82b366;align=left;" vertex="1" parent="1">
          <mxGeometry x="488" y="705" width="245" height="80" as="geometry" />
        </mxCell>
        <mxCell id="mhUbV6uBzXw5fU48ypKD-21" value="&lt;span style=&quot;caret-color: rgb(0, 0, 0); text-align: start;&quot;&gt;&lt;b style=&quot;&quot;&gt;&lt;font face=&quot;Helvetica&quot; style=&quot;font-size: 18px;&quot;&gt;Educational and Personnel Development Contour&lt;/font&gt;&lt;/b&gt;&lt;/span&gt;" style="rounded=1;whiteSpace=wrap;html=1;fillColor=#dae8fc;strokeColor=#6c8ebf;" vertex="1" parent="1">
          <mxGeometry x="128" y="825" width="200" height="80" as="geometry" />
        </mxCell>
        <mxCell id="mhUbV6uBzXw5fU48ypKD-22" value="" style="triangle;whiteSpace=wrap;html=1;fillColor=#f5f5f5;fontColor=#333333;strokeColor=#666666;" vertex="1" parent="1">
          <mxGeometry x="378" y="825" width="60" height="80" as="geometry" />
        </mxCell>
        <mxCell id="mhUbV6uBzXw5fU48ypKD-23" value="&lt;span style=&quot;caret-color: rgb(0, 0, 0);&quot;&gt;&lt;font face=&quot;Helvetica&quot; style=&quot;font-size: 17px;&quot;&gt;Training and upskilling personnel through educational initiatives.&lt;/font&gt;&lt;/span&gt;" style="rounded=1;whiteSpace=wrap;html=1;fillColor=#d5e8d4;strokeColor=#82b366;align=left;" vertex="1" parent="1">
          <mxGeometry x="488" y="825" width="245" height="80" as="geometry" />
        </mxCell>
        <mxCell id="mhUbV6uBzXw5fU48ypKD-24" value="&lt;span style=&quot;caret-color: rgb(0, 0, 0); text-align: start;&quot;&gt;&lt;b style=&quot;&quot;&gt;&lt;font face=&quot;Helvetica&quot; style=&quot;font-size: 21px;&quot;&gt;Social and Cultural-Mental Contour&lt;/font&gt;&lt;/b&gt;&lt;/span&gt;" style="rounded=1;whiteSpace=wrap;html=1;fillColor=#dae8fc;strokeColor=#6c8ebf;" vertex="1" parent="1">
          <mxGeometry x="128" y="945" width="200" height="80" as="geometry" />
        </mxCell>
        <mxCell id="mhUbV6uBzXw5fU48ypKD-25" value="" style="triangle;whiteSpace=wrap;html=1;fillColor=#f5f5f5;fontColor=#333333;strokeColor=#666666;" vertex="1" parent="1">
          <mxGeometry x="378" y="945" width="60" height="80" as="geometry" />
        </mxCell>
        <mxCell id="mhUbV6uBzXw5fU48ypKD-26" value="&lt;span style=&quot;caret-color: rgb(0, 0, 0);&quot;&gt;&lt;font face=&quot;Helvetica&quot; style=&quot;font-size: 17px;&quot;&gt;Designing socio-cultural policies tailored to NIS residents.&lt;/font&gt;&lt;/span&gt;" style="rounded=1;whiteSpace=wrap;html=1;fillColor=#d5e8d4;strokeColor=#82b366;align=left;" vertex="1" parent="1">
          <mxGeometry x="488" y="945" width="245" height="80" as="geometry" />
        </mxCell>
      </root>
    </mxGraphModel>
  </diagram>
  <diagram name="Page-2" id="I_bOrRYnmVc9aAlJUexP">
    <mxGraphModel dx="1431" dy="3981" grid="1" gridSize="10" guides="1" tooltips="1" connect="1" arrows="1" fold="1" page="1" pageScale="1" pageWidth="827" pageHeight="1169" math="0" shadow="0">
      <root>
        <mxCell id="0" />
        <mxCell id="1" parent="0" />
        <mxCell id="WAZFhBSZ8dUsOadZfPS--3" value="" style="ellipse;whiteSpace=wrap;html=1;aspect=fixed;fillColor=#dae8fc;strokeColor=#6c8ebf;" parent="1" vertex="1">
          <mxGeometry x="53.43" y="-2004" width="180" height="180" as="geometry" />
        </mxCell>
        <mxCell id="WAZFhBSZ8dUsOadZfPS--4" value="" style="shape=flexArrow;endArrow=classic;html=1;rounded=0;endWidth=24.347826086956523;endSize=12.895652173913044;width=26.086956521739133;fillColor=#f5f5f5;strokeColor=#666666;exitX=1;exitY=0.5;exitDx=0;exitDy=0;entryX=0;entryY=0.5;entryDx=0;entryDy=0;" parent="1" edge="1" target="WAZFhBSZ8dUsOadZfPS--5" source="WAZFhBSZ8dUsOadZfPS--3">
          <mxGeometry width="50" height="50" relative="1" as="geometry">
            <mxPoint x="255.93" y="-1926.5" as="sourcePoint" />
            <mxPoint x="328.43" y="-1914" as="targetPoint" />
          </mxGeometry>
        </mxCell>
        <mxCell id="WAZFhBSZ8dUsOadZfPS--5" value="" style="ellipse;whiteSpace=wrap;html=1;aspect=fixed;fillColor=#dae8fc;strokeColor=#6c8ebf;" parent="1" vertex="1">
          <mxGeometry x="348.43" y="-2004" width="180" height="180" as="geometry" />
        </mxCell>
        <mxCell id="WAZFhBSZ8dUsOadZfPS--6" value="" style="ellipse;whiteSpace=wrap;html=1;aspect=fixed;fillColor=#dae8fc;strokeColor=#6c8ebf;" parent="1" vertex="1">
          <mxGeometry x="638.43" y="-1994" width="180" height="180" as="geometry" />
        </mxCell>
        <mxCell id="WAZFhBSZ8dUsOadZfPS--8" value="" style="shape=flexArrow;endArrow=classic;html=1;rounded=0;endWidth=24.347826086956523;endSize=12.895652173913044;width=26.086956521739133;fillColor=#f5f5f5;strokeColor=#666666;exitX=0.5;exitY=1;exitDx=0;exitDy=0;entryX=0.5;entryY=0;entryDx=0;entryDy=0;" parent="1" edge="1" target="WAZFhBSZ8dUsOadZfPS--9" source="WAZFhBSZ8dUsOadZfPS--6">
          <mxGeometry width="50" height="50" relative="1" as="geometry">
            <mxPoint x="727.1800000000002" y="-1784" as="sourcePoint" />
            <mxPoint x="728.43" y="-1724" as="targetPoint" />
          </mxGeometry>
        </mxCell>
        <mxCell id="WAZFhBSZ8dUsOadZfPS--9" value="" style="ellipse;whiteSpace=wrap;html=1;aspect=fixed;fillColor=#dae8fc;strokeColor=#6c8ebf;" parent="1" vertex="1">
          <mxGeometry x="638.43" y="-1712.5" width="180" height="180" as="geometry" />
        </mxCell>
        <mxCell id="WAZFhBSZ8dUsOadZfPS--10" value="" style="ellipse;whiteSpace=wrap;html=1;aspect=fixed;fillColor=#dae8fc;strokeColor=#6c8ebf;" parent="1" vertex="1">
          <mxGeometry x="348.43" y="-1709.5" width="180" height="180" as="geometry" />
        </mxCell>
        <mxCell id="WAZFhBSZ8dUsOadZfPS--11" value="" style="ellipse;whiteSpace=wrap;html=1;aspect=fixed;fillColor=#dae8fc;strokeColor=#6c8ebf;" parent="1" vertex="1">
          <mxGeometry x="40.33" y="-1712.5" width="180" height="180" as="geometry" />
        </mxCell>
        <mxCell id="WAZFhBSZ8dUsOadZfPS--14" value="" style="shape=flexArrow;endArrow=classic;html=1;rounded=0;endWidth=24.347826086956523;endSize=12.895652173913044;width=26.086956521739133;fillColor=#f5f5f5;strokeColor=#666666;exitX=0;exitY=0.5;exitDx=0;exitDy=0;" parent="1" edge="1" target="WAZFhBSZ8dUsOadZfPS--10" source="WAZFhBSZ8dUsOadZfPS--9">
          <mxGeometry width="50" height="50" relative="1" as="geometry">
            <mxPoint x="633.43" y="-1623.32" as="sourcePoint" />
            <mxPoint x="468.43" y="-1624" as="targetPoint" />
          </mxGeometry>
        </mxCell>
        <mxCell id="WAZFhBSZ8dUsOadZfPS--15" value="" style="shape=flexArrow;endArrow=classic;html=1;rounded=0;endWidth=24.347826086956523;endSize=12.895652173913044;width=26.086956521739133;fillColor=#f5f5f5;strokeColor=#666666;exitX=0;exitY=0.5;exitDx=0;exitDy=0;" parent="1" edge="1" target="WAZFhBSZ8dUsOadZfPS--11" source="WAZFhBSZ8dUsOadZfPS--10">
          <mxGeometry width="50" height="50" relative="1" as="geometry">
            <mxPoint x="338.43" y="-1623.75" as="sourcePoint" />
            <mxPoint x="218.43" y="-1624" as="targetPoint" />
          </mxGeometry>
        </mxCell>
        <mxCell id="WAZFhBSZ8dUsOadZfPS--16" value="" style="sketch=0;aspect=fixed;pointerEvents=1;shadow=0;dashed=0;html=1;strokeColor=none;labelPosition=center;verticalLabelPosition=bottom;verticalAlign=top;align=center;fillColor=#00188D;shape=mxgraph.mscae.enterprise.calendar" parent="1" vertex="1">
          <mxGeometry x="665.93" y="-1955.25" width="125" height="102.5" as="geometry" />
        </mxCell>
        <mxCell id="WAZFhBSZ8dUsOadZfPS--17" value="" style="sketch=0;outlineConnect=0;fontColor=#232F3E;gradientColor=none;fillColor=#DD344C;strokeColor=none;dashed=0;verticalLabelPosition=bottom;verticalAlign=top;align=center;html=1;fontSize=12;fontStyle=0;aspect=fixed;pointerEvents=1;shape=mxgraph.aws4.key_management_service_external_key_store;" parent="1" vertex="1">
          <mxGeometry x="379.68" y="-1972.75" width="117.5" height="117.5" as="geometry" />
        </mxCell>
        <mxCell id="WAZFhBSZ8dUsOadZfPS--18" value="" style="ellipse;whiteSpace=wrap;html=1;aspect=fixed;fillColor=#dae8fc;strokeColor=#6c8ebf;" parent="1" vertex="1">
          <mxGeometry x="53.43" y="-2284" width="180" height="180" as="geometry" />
        </mxCell>
        <mxCell id="WAZFhBSZ8dUsOadZfPS--20" value="" style="shape=flexArrow;endArrow=classic;html=1;rounded=0;endWidth=24.347826086956523;endSize=12.895652173913044;width=26.086956521739133;fillColor=#f5f5f5;strokeColor=#666666;exitX=0.5;exitY=1;exitDx=0;exitDy=0;" parent="1" source="WAZFhBSZ8dUsOadZfPS--18" target="WAZFhBSZ8dUsOadZfPS--3" edge="1">
          <mxGeometry width="50" height="50" relative="1" as="geometry">
            <mxPoint x="320.93" y="-1815" as="sourcePoint" />
            <mxPoint x="660.93" y="-1815.25" as="targetPoint" />
          </mxGeometry>
        </mxCell>
        <mxCell id="WAZFhBSZ8dUsOadZfPS--21" value="" style="shape=image;verticalLabelPosition=bottom;labelBackgroundColor=default;verticalAlign=top;aspect=fixed;imageAspect=0;image=data:image/png,iVBORw0KGgoAAAANSUhEUgAAAVoAAABgCAYAAABcx7oJAAAMTGlDQ1BJQ0MgUHJvZmlsZQAASImVVwdck0cbv3dkkhAgEAEZYS9BREYAGSGsALKHICohCRBGjAlBxY0WFaxbRHCiVRCLVisgxYVbKYrbOooDhUot1uJWvgsBtPQbv+/yu7t//vfc/57nee8dBwCjQyCT5aJaAORJ8+WxIQHsSckpbFIXoMEfE5gCDYFQIeNGR0cAWIb6v5fXNwGi6q85qrT+Of5fi7ZIrBACgERDnC5SCPMg/hEAvFkok+cDQJRB3mJmvkyF10OsK4cOQlytwplq3KzC6Wp8ZcAmPpYH8RMAyDSBQJ4JgGYv5NkFwkyow4DRAmepSCKF2B9i37y86SKIF0JsC23gmgyVPif9K53Mv2mmD2sKBJnDWB3LQCEHShSyXMHs/zMd/7vk5SqH1rCBlZYlD41VxQzz9iRnergK0yB+K02PjIJYBwAUl4gG7FWYlaUMTVDbo7ZCBQ/mDLAgnqDIjeMP8rEiQWA4xEYQZ0hzIyMGbYoyJMEqG5g/tFySz4+HWB/iarEiKG7Q5oR8euzQujcz5DzuIN8lkA/4oNL/rMxJ4Kr1MZ0sMX9QH3MqzIpPgpgKcWCBJDESYk2IIxU5ceGDNqmFWbzIIRu5MlYViyXEcrE0JECtj5VlyINjB+335imGYsdOZEn4kYP4an5WfKg6V9gToWDAfxgL1iuWchOGdMSKSRFDsYjEgUHq2HGyWJoQp+ZxfVl+QKx6Lm4vy40etMcDxLkhKt4c4nhFQdzQ3IJ8uDnV+nixLD86Xu0nXpEtCItW+4MfABGABwIBGyhhTQfTQTaQtPU09MB/6pFgIABykAnEwHGQGZqRNDAihW0cKAS/QyQGiuF5AQOjYlAA+U8jWBUnGebUrSPIGBxTqeSApxDngXCQC/8rB5Skwx4kgieQkfzDIwGsQhhDLqyq8X/PD7FfGC5kIgYZ5dCKbMaQJTGIGEgMJQYT7XBD3Bf3xiNg6w+rC87BPYfi+GJPeEpoJzwi3CB0EO5MkxTJR3g5EXRA/eDB/KR/nR/cGmq64QG4D1SHyjgLNwSOuCtch4v7wZXdIMsb9FuVFfYI7b9F8NUVGrSjOFNQyiiKP8V25ExNe023YRVVrr/Oj9rX9OF884ZHRq7P+yr7ItiHj7TElmGHsHPYSewC1ow1ADZ2HGvEWrGjKjy8454M7Lih1WIH/MmBOiP3zJcrq8qkwrnWudv5o3osXzwrX3Uz8qbLZsslmVn5bC58Y4jZfKnQaQzbxdnFFQDV+0f9eHsVM/BeQVitX7jFvwLgc7y/v/+nL1zYcQB+8ICPhCNfOFsOfLVoAHD+iFApL1BzuKohwCcHA959BsAEWABbGI8LcAfewB8EgTAQBeJBMpgKvc+C+1wOZoK5YBEoBqVgNdgAKsA2sBNUg+/BQdAAmsFJcBZcAlfADXAX7p5O8Bz0gtfgA4IgJISOMBEDxBSxQhwQF4SD+CJBSAQSiyQjaUgmIkWUyFxkMVKKrEUqkB1IDfIDcgQ5iVxA2pE7yEOkG/kTeY9iKA3VRY1Ra3QsykG5aDgaj05BM9EZaCG6BF2JlqNV6D60Hj2JXkJvoB3oc7QPA5gGxsLMMEeMg/GwKCwFy8Dk2HysBCvDqrA6rAle52tYB9aDvcOJOBNn445wB4fiCbgQn4HPx1fgFXg1Xo+fxq/hD/Fe/DOBTjAiOBC8CHzCJEImYSahmFBG2E04TDgD76VOwmsikcgi2hA94L2YTMwmziGuIG4h7ieeILYTHxP7SCSSAcmB5EOKIglI+aRi0ibSPtJx0lVSJ+ktWYNsSnYhB5NTyFJyEbmMvJd8jHyV/Iz8gaJFsaJ4UaIoIspsyirKLkoT5TKlk/KBqk21ofpQ46nZ1EXUcmod9Qz1HvWVhoaGuYanRoyGRGOhRrnGAY3zGg813tF0aPY0Hi2VpqStpO2hnaDdob2i0+nWdH96Cj2fvpJeQz9Ff0B/q8nUdNLka4o0F2hWatZrXtV8waAwrBhcxlRGIaOMcYhxmdGjRdGy1uJpCbTma1VqHdG6pdWnzdQepx2lnae9Qnuv9gXtLh2SjrVOkI5IZ4nOTp1TOo+ZGNOCyWMKmYuZu5hnmJ26RF0bXb5utm6p7ve6bbq9ejp6rnqJerP0KvWO6nWwMJY1i8/KZa1iHWTdZL0fZTyKO0o8avmoulFXR73RH63vry/WL9Hfr39D/70B2yDIIMdgjUGDwX1D3NDeMMZwpuFWwzOGPaN1R3uPFo4uGX1w9C9GqJG9UazRHKOdRq1GfcYmxiHGMuNNxqeMe0xYJv4m2SbrTY6ZdJsyTX1NJabrTY+b/sbWY3PZuexy9ml2r5mRWaiZ0myHWZvZB3Mb8wTzIvP95vctqBYciwyL9RYtFr2WppYTLeda1lr+YkWx4lhlWW20Omf1xtrGOsl6qXWDdZeNvg3fptCm1uaeLd3Wz3aGbZXtdTuiHccux26L3RV71N7NPsu+0v6yA+rg7iBx2OLQPoYwxnOMdEzVmFuONEeuY4FjreNDJ5ZThFORU4PTi7GWY1PGrhl7buxnZzfnXOddznfH6YwLG1c0rmncny72LkKXSpfr4+njg8cvGN84/qWrg6vYdavrbTem20S3pW4tbp/cPdzl7nXu3R6WHmkemz1ucXQ50ZwVnPOeBM8AzwWezZ7vvNy98r0Oev3h7eid473Xu2uCzQTxhF0THvuY+wh8dvh0+LJ903y3+3b4mfkJ/Kr8Hvlb+Iv8d/s/49pxs7n7uC8CnAPkAYcD3vC8ePN4JwKxwJDAksC2IJ2ghKCKoAfB5sGZwbXBvSFuIXNCToQSQsND14Te4hvzhfwafm+YR9i8sNPhtPC48IrwRxH2EfKIponoxLCJ6ybei7SKlEY2RIEoftS6qPvRNtEzon+KIcZEx1TGPI0dFzs39lwcM25a3N641/EB8avi7ybYJigTWhIZiamJNYlvkgKT1iZ1TBo7ad6kS8mGyZLkxhRSSmLK7pS+yUGTN0zuTHVLLU69OcVmyqwpF6YaTs2denQaY5pg2qE0QlpS2t60j4IoQZWgL52fvjm9V8gTbhQ+F/mL1ou6xT7iteJnGT4ZazO6Mn0y12V2Z/lllWX1SHiSCsnL7NDsbdlvcqJy9uT05ybl7s8j56XlHZHqSHOkp6ebTJ81vV3mICuWdczwmrFhRq88XL5bgSimKBrzdeGHfqvSVvmN8mGBb0FlwduZiTMPzdKeJZ3VOtt+9vLZzwqDC7+bg88RzmmZazZ30dyH87jzdsxH5qfPb1lgsWDJgs6FIQurF1EX5Sz6uci5aG3RX4uTFjctMV6ycMnjb0K+qS3WLJYX31rqvXTbMnyZZFnb8vHLNy3/XCIquVjqXFpW+nGFcMXFb8d9W/5t/8qMlW2r3FdtXU1cLV19c43fmuq12msL1z5eN3Fd/Xr2+pL1f22YtuFCmWvZto3UjcqNHeUR5Y2bLDet3vSxIqviRmVA5f7NRpuXb36zRbTl6lb/rXXbjLeVbnu/XbL99o6QHfVV1lVlO4k7C3Y+3ZW469x3nO9qdhvuLt39aY90T0d1bPXpGo+amr1Ge1fVorXK2u59qfuufB/4fWOdY92O/az9pQfAAeWB335I++HmwfCDLYc4h+p+tPpx82Hm4ZJ6pH52fW9DVkNHY3Jj+5GwIy1N3k2Hf3L6aU+zWXPlUb2jq45Rjy051n+88HjfCdmJnpOZJx+3TGu5e2rSqeunY063nQk/c/5s8NlT57jnjp/3Od98wevCkYuciw2X3C/Vt7q1Hv7Z7efDbe5t9Zc9Ljde8bzS1D6h/dhVv6snrwVeO3udf/3Sjcgb7TcTbt6+lXqr47bodted3Dsvfyn45cPdhfcI90rua90ve2D0oOpXu1/3d7h3HH0Y+LD1Udyju4+Fj58/UTz52LnkKf1p2TPTZzVdLl3N3cHdV36b/Fvnc9nzDz3Fv2v/vvmF7Ysf//D/o7V3Um/nS/nL/j9XvDJ4tecv179a+qL7HrzOe/3hTclbg7fV7zjvzr1Pev/sw8yPpI/ln+w+NX0O/3yvP6+/XyaQCwY+BTCgOtpkAPDnHgDoyQAw4bmROll9PhwoiPpMO4DAf8LqM+RAcQegDn7Tx/TAr5tbABzYBYA11GekAhBNByDeE6Djxw/XobPcwLlTVYjwbLA97lN6Xjr4N0V9Jv3K75E9UKm6gpH9vwDOFIMK7tPLSgAAAJZlWElmTU0AKgAAAAgABQESAAMAAAABAAEAAAEaAAUAAAABAAAASgEbAAUAAAABAAAAUgEoAAMAAAABAAIAAIdpAAQAAAABAAAAWgAAAAAAAACQAAAAAQAAAJAAAAABAAOShgAHAAAAEgAAAISgAgAEAAAAAQAAAVqgAwAEAAAAAQAAAGAAAAAAQVNDSUkAAABTY3JlZW5zaG903GwaPQAAAAlwSFlzAAAWJQAAFiUBSVIk8AAAAtppVFh0WE1MOmNvbS5hZG9iZS54bXAAAAAAADx4OnhtcG1ldGEgeG1sbnM6eD0iYWRvYmU6bnM6bWV0YS8iIHg6eG1wdGs9IlhNUCBDb3JlIDYuMC4wIj4KICAgPHJkZjpSREYgeG1sbnM6cmRmPSJodHRwOi8vd3d3LnczLm9yZy8xOTk5LzAyLzIyLXJkZi1zeW50YXgtbnMjIj4KICAgICAgPHJkZjpEZXNjcmlwdGlvbiByZGY6YWJvdXQ9IiIKICAgICAgICAgICAgeG1sbnM6ZXhpZj0iaHR0cDovL25zLmFkb2JlLmNvbS9leGlmLzEuMC8iCiAgICAgICAgICAgIHhtbG5zOnRpZmY9Imh0dHA6Ly9ucy5hZG9iZS5jb20vdGlmZi8xLjAvIj4KICAgICAgICAgPGV4aWY6VXNlckNvbW1lbnQ+U2NyZWVuc2hvdDwvZXhpZjpVc2VyQ29tbWVudD4KICAgICAgICAgPGV4aWY6UGl4ZWxYRGltZW5zaW9uPjM0NjwvZXhpZjpQaXhlbFhEaW1lbnNpb24+CiAgICAgICAgIDxleGlmOlBpeGVsWURpbWVuc2lvbj45NjwvZXhpZjpQaXhlbFlEaW1lbnNpb24+CiAgICAgICAgIDx0aWZmOlJlc29sdXRpb25Vbml0PjI8L3RpZmY6UmVzb2x1dGlvblVuaXQ+CiAgICAgICAgIDx0aWZmOlhSZXNvbHV0aW9uPjE0NC8xPC90aWZmOlhSZXNvbHV0aW9uPgogICAgICAgICA8dGlmZjpZUmVzb2x1dGlvbj4xNDQvMTwvdGlmZjpZUmVzb2x1dGlvbj4KICAgICAgICAgPHRpZmY6T3JpZW50YXRpb24+MTwvdGlmZjpPcmllbnRhdGlvbj4KICAgICAgPC9yZGY6RGVzY3JpcHRpb24+CiAgIDwvcmRmOlJERj4KPC94OnhtcG1ldGE+CrJ1u6kAAA7mSURBVHgB7Z1PriW1GcWbKLsge4BIPekB2UXmRMqAGRILQcqMAVKYswsmTJDyFsE+SJ9XHJXb7zsu21Wuv6ekS1W57O/Pz/a5vr6X1599/sVXf7zzYQImYAImMIzAX4ZZtmETMAETMIFXAhZaDwQTMAETGEzAQjsYsM2bgAmYgIXWY8AETMAEBhOw0A4GbPMmYAImYKH1GDABEzCBwQQstIMB27wJmIAJWGg9BkzABExgMAEL7WDANm8CJmACFlqPARMwARMYTMBCOxiwzZuACZiAhdZjwARMwAQGE7DQDgZs8yZgAiZgofUYMAETMIHBBCy0gwHbvAmYgAlYaD0GTMAETGAwAQvtYMA2bwImYAIWWo8BEzABExhMwEI7GLDNm4AJmICF1mPABEzABAYT+Otg+zZvAibwJ4EP7//+evXh/Zfv8MKBsu9/+O/r67XA/7klAQvtLbvVSZ2NwHff/OsdXtHx628vUbHLbkTAWwc36kynck0Cv/72v2sG7qirCVhoq1G5ogn0E+BWQW7BIpsTuef9abcOuJ+150Ckz7Sr9/J/Jt975Mx89/CV9udR18w39+9tg5zIPe8PE9rfX36pIoqJ+M9/fxvWrbURNq4shO9cDDBpfv7xP5UW+qv97ct/vGlc2ut7U7mzoMS8x2SJ1xpfJRZRv/XEPrqNhXY04XPY99bBQj/kIrtQ/RaPt578YKg4qpVeDUj15RK+xVf+auxuXaeU45ni3Dpv25sJWGhnFqe6utsELIl3SYhUp6hPFGf8qZT3Z1UvPqf8sK0DCEnPBHtO19wr05LQfvfN1x+3h+q/ecdKNho7GFMQ2qscJSZXyeFscfJTDt/cwHh61Y+vETl5RTuCqm2+IQARVKv0SDTfGPizYGlfVrU7spyT/sgY7u4b4yL9zub7H376+Kb702vaeCPHJ6CWcbY1r9ML7ZHv+koYtu6EyN6ReUfxbFHGgR/ZqpkEqMMVS25DfWGa1zviXuV2xz4+gi+3kfDl8bR6nf8HEHzCmb4YfXkVWzV+Rsd92NbB6MTuan+PyTnKR+mNq2b7AHWi42xffkUxRmUlHlF9l70lQOHklhFFF2zxBofztLqdtpRQn3XfWhtX8gihjX4mtQZp7QRBvaNWWhhMRwyoJa6cAEv18ueYINHK8Kx5Mn4KAe95rh1DrO/zWwL8hJPPsXTeYTvhw3vs087790eI7em3Dt7inUs8WGcWV7lS2weYNJGQIi9MjEiwzi6ypT4Z9amh5POOz6ABuQ6QLcdTvkee3+/B5TChJYw9krSP8xCIJkYpOiWysHPGFXuei5rUW4z/0ptTHseoe4rZGvu9NrCVFHEEc4wbbiOkb+6o3+tvTY6P2DpYA8httyegBnu0TxutZBFR/nFRRclJhclH0UNZup2Ee+7/sj7tUcx5ZnntObfHdvkqjOXqXIqRbaY3sZdVb0BpvCmT6Qul6SdSjCWtW/vpgm1gm9eMn+faPCKRpQ32ddrPfNbKnu3WnC20a+i5bRcBNUEw8fDiROCKJHdSK7Kl1TBsquepPwo9Ji5WRowtrTPyGjxKopT6Jj/EXCt8afsSD+aNPoGf/KCw5eW8H5VH5BfjC/ljf5Ys5jimvwPM+73Oh20d7JWg/ZyPACYtJ24eHVdRmCDRhMYEUm1zW9EkZB1OQt4vnRGLEhnVFjlEB3KoOdC+1Sftou30RdBbUWSd/Kx4Md5SLOrNEz5G5QGf0RhhXogbvvHigRzTrQSWjz5baEcTtv2QQGmw55ODBjBxOOlZVjqrSajKS7b4rCQ2rLP2TFFPBaLX5lbxIpYSN9Uv8L+UR+mNl3lHeaAd/OJZdOAZ6tA/z7Vv1JHN3jJvHfSSc7tVBNRgx2SOJjQmjZrMqwL52JixTCsk7OWWV4FYddf8L8NqhVha/SGX0lYBYuWbFOOe2ny6ckMZj/p447yRR4mJ6pdIHBkTt3/SHPgMgkhRZBnOUR7wDT94gUu+J0s/tMn71O4e148Q2tIgUZCnjxh1H/GUDZS3+oZfTMRoAJb85M+WJkdeH/db+Y5sR2XIsZaPmsyRXZTV2IVNZZcTM7IP23gt9ZGKodSuJE6lePEM4wbt8wNxIB+VK+qrWKNneb9FbxwqD7RdEjvGmYstYsQr5wd7qAufeDbNH2wrTPuxzD0X4ZzTyPtHCG00+GqgssNr6kZ1MCh+/jFeJUT1WTYNxnV/BKPX9zRh1/lmHktnrEBq+CxNzMgPJ1n0DHzhO5+wad2JQyxcqBetrtL24B8dJZ8QBNUO8SyNx2ncfCvEtvwlUIkX84hiQMx5TiqPqD1t52fURUw5D8Ud9Sn4aId6vMf4yWPM/Y2+f4TQ9kA8smM4QHrivlIbMMYrn0xpDtME2k74WyY7YkN9CEd+IGa81DhRwlXq28gP/LbGHDFdijfPL79XMaA8PeAnyoMs07pL17VvxLTDvuCZ5Wc4+8uwM/TCiWIoCcHeYarJXRNHNNlr2uV1ciHJn291X4p3qxiU+COH0rOWflB2IJpbHBDyKx4W2iv22kNi3kpgUlw9NtUKSYkK/Kln6o1MCW1fvPNfr0pzL10rAWsRWdiP8oANxbAU052eWWjv1JsXywWTUk1wpFJ6Vkq1t52yqcRRiWkp9khwInFiLFsKrYp3K14qD8WPObaet4q31e+a+t6jFfS2HhzCzWOLMSnVxCQU9cUHn6uzEpQe0VI+SuVKCCKRhR3FoTdelb8a06o+YmuJIcqDOSsm8KEOFRdtqnZnLH+E0B7ZMT2+Wwa3GlQ9fmGrt52KIyqvEVm0w+TEa4+YojiXylqFK6pfEqAtxsFSDqXnLf5VHiiv+WVJKY47PHuE0Pb8PGiLzoVAHOd73R8X2SJ/ZSNa+ai6PeXKfiR0Pfa3bHOGVZuKoSXPLWy0+LtaXe/RXq3HLh6v+k2zWrVi+2CrQ/lYst8qIkroW1aIa94UVLzKplqNtsS7xHCr52eMqSa3R6xoa0DcrY6abEfmCQGKJjUmD0Qg+oiJ+njVimRkHzmvmaDKphKuFsYj+knFG8Wl6tbypk2VR6sd2rvb2UI7sEfVIB7o8rSmIbLRSg8TkSKI64hZy5diasL3golipq1IRFR95si2S+deEVf+4S+KV/Hq9Z/nddTWWR7H0ffeOji6Bx7gH5NfCUA6Ebf6UXuEtFc4lBC1CmcUE8qiNxaUR6KI8t5Dxavya/UT5bF1Dq0xnam+hfZMvXHDWDABa0S2lDpsRBM5aqN89Ux62FJ+lXAr4VL1oxzWlKn8lU2VnxJmZcflZQKPEFo1mMpo/HQLAurLL0zkXPxwn5cxhjVfiimbtK3OSrSi2GlDjbXeGGi35qziRdtIOFWsNb7yOlF+W9rP/V3t/hFCe7VOuUu8JZGNJj7yVtsHNZNWCU3PalLZKvVNTYyl9qOeKdZq9a3qj4rvCXYttE/o5QNyhFBFwoOVT+9EjuyNSA2xK6FF7Cr+HuGKVoLIqTXXUswjGNXabM2j1u7V6h32qwM1KHOApXq1nQgbqZ30OveX3sM+JkL6hU36vOY6nbC1fmH3KN9kipyVCCzlXZr0SyzhEy/Gkfpa+vWB4quEMbXNa6zCI9983mKLbXrOyKWFfzrOUn+lNwbVpucTgPqThkt9lsaqrjkX1PMrlB8mtHvCUQNqjxjW+O4Z8MwJg7MkGKynzq0TnXaQr8p5rUgxJyVA6/Kd/vFF5hGdl94kVN6lftQCVf4XEdL4lF/UKflObaTXim9aJ79WbdAniK+n76e2X7/moOzncZz13lsHHT2zZkJ3uPukiVq1fVJpg5ueCcpJFbkvrazy+mqfFvVU/kpsShMc8WIFy1ceR3q/ZoVfEonSM5VTGhdiV/WQu7Kv2qj6qU91rdrCl/IX2Ur75ci5FsXWW/aIFW0vHLdrI4BJHx0tIov2mLB4RZNMCW3kF2Won07ytH1kP7eDOCD8SkRYP/XBstoz+ETtUYZ4c/+MW/GG31bmjLXnDZZt8WaEmBgfy3FGLnhNfTv9vdzUF/Jk3+TtkcvVDwvt1XvwJPEvTfqtwsQkxCsXPk7S3A/r5+U1971ildquEQnUmYTm7b8egPij/zU59ZFf18QdCXtup+debYXQ1pr+oI0rnr11sNBr6bvuQtVbPc6FrJTctPJ6KxJoUyM0ke3S9kH0m1pM4K0O5I7VWUvsSuhrY1qzNZH6qBHZtH5+vXa8k11ut/e+pQ96fezRzivaPSh3+lg76DvdNjXjR8Ko0ZpJXxL6XFTz+yiWpTL4o7iXfCs7W8QAsS3xVL5RzvhrYi+tZmval+JgLPinvXtzof0144c2znI+TGhrRaRUDx2xdiXR2xFbDMgl35EP8IjKl2yNeg7+jAexpf2xdjVS27+pzzRPxpWW8XriyL3Cdf/KLkRW+WplgPp4QaSQV0nA6TPfw2WO6qzGEMq3PFpyoV/k1JoP2575/NnnX3z1x5kDdGwmsERAfQHDib7U/uzPc7GlwJ497ig+5jK9QX8q7FfOK8o1LbPQpjR8fUkCv7/8EsaNj68+TOAMBPxl2Bl6wTF0E+AKqduAG5rADgQstDtAtotxBHr2Z8dFY8smEBOw0MZcXHpxAlt/sXNxHA7/YAIW2oM7wO7XESj9VGmdZbc2ge0IWGi3Y2lLOxMo7c/iFwc+TOAsBCy0Z+kJx9FMQO3PNhtyAxMYTMBCOxiwze9P4M6/x9yfpj1uQcBCuwVF2ziEgNqf9Rdhh3SHnRYIWGgLcPzovARK+7MW2vP221Mjs9A+tecvnndpf9ZbBxfv3BuGb6G9Yac6JRMwgXMR8N86OFd/OJoGAtg+yFevUVmDSVc1gSEELLRDsNqoCZiACcwEvHUws/CVCZiACQwhYKEdgtVGTcAETGAmYKGdWfjKBEzABIYQsNAOwWqjJmACJjATsNDOLHxlAiZgAkMIWGiHYLVREzABE5gJWGhnFr4yARMwgSEELLRDsNqoCZiACcwELLQzC1+ZgAmYwBACFtohWG3UBEzABGYCFtqZha9MwARMYAgBC+0QrDZqAiZgAjMBC+3MwlcmYAImMISAhXYIVhs1ARMwgZmAhXZm4SsTMAETGELg//OJLGz9u0mAAAAAAElFTkSuQmCC;" parent="1" vertex="1">
          <mxGeometry x="58.43" y="-2216.73" width="173.79" height="48.22" as="geometry" />
        </mxCell>
        <mxCell id="WAZFhBSZ8dUsOadZfPS--22" value="" style="shape=image;verticalLabelPosition=bottom;labelBackgroundColor=default;verticalAlign=top;aspect=fixed;imageAspect=0;image=data:image/png,iVBORw0KGgoAAAANSUhEUgAAAHgAAAAwCAYAAADab77TAAAMTGlDQ1BJQ0MgUHJvZmlsZQAASImVVwdck0cbv3dkkhAgEAEZYS9BREYAGSGsALKHICohCRBGjAlBxY0WFaxbRHCiVRCLVisgxYVbKYrbOooDhUot1uJWvgsBtPQbv+/yu7t//vfc/57nee8dBwCjQyCT5aJaAORJ8+WxIQHsSckpbFIXoMEfE5gCDYFQIeNGR0cAWIb6v5fXNwGi6q85qrT+Of5fi7ZIrBACgERDnC5SCPMg/hEAvFkok+cDQJRB3mJmvkyF10OsK4cOQlytwplq3KzC6Wp8ZcAmPpYH8RMAyDSBQJ4JgGYv5NkFwkyow4DRAmepSCKF2B9i37y86SKIF0JsC23gmgyVPif9K53Mv2mmD2sKBJnDWB3LQCEHShSyXMHs/zMd/7vk5SqH1rCBlZYlD41VxQzz9iRnergK0yB+K02PjIJYBwAUl4gG7FWYlaUMTVDbo7ZCBQ/mDLAgnqDIjeMP8rEiQWA4xEYQZ0hzIyMGbYoyJMEqG5g/tFySz4+HWB/iarEiKG7Q5oR8euzQujcz5DzuIN8lkA/4oNL/rMxJ4Kr1MZ0sMX9QH3MqzIpPgpgKcWCBJDESYk2IIxU5ceGDNqmFWbzIIRu5MlYViyXEcrE0JECtj5VlyINjB+335imGYsdOZEn4kYP4an5WfKg6V9gToWDAfxgL1iuWchOGdMSKSRFDsYjEgUHq2HGyWJoQp+ZxfVl+QKx6Lm4vy40etMcDxLkhKt4c4nhFQdzQ3IJ8uDnV+nixLD86Xu0nXpEtCItW+4MfABGABwIBGyhhTQfTQTaQtPU09MB/6pFgIABykAnEwHGQGZqRNDAihW0cKAS/QyQGiuF5AQOjYlAA+U8jWBUnGebUrSPIGBxTqeSApxDngXCQC/8rB5Skwx4kgieQkfzDIwGsQhhDLqyq8X/PD7FfGC5kIgYZ5dCKbMaQJTGIGEgMJQYT7XBD3Bf3xiNg6w+rC87BPYfi+GJPeEpoJzwi3CB0EO5MkxTJR3g5EXRA/eDB/KR/nR/cGmq64QG4D1SHyjgLNwSOuCtch4v7wZXdIMsb9FuVFfYI7b9F8NUVGrSjOFNQyiiKP8V25ExNe023YRVVrr/Oj9rX9OF884ZHRq7P+yr7ItiHj7TElmGHsHPYSewC1ow1ADZ2HGvEWrGjKjy8454M7Lih1WIH/MmBOiP3zJcrq8qkwrnWudv5o3osXzwrX3Uz8qbLZsslmVn5bC58Y4jZfKnQaQzbxdnFFQDV+0f9eHsVM/BeQVitX7jFvwLgc7y/v/+nL1zYcQB+8ICPhCNfOFsOfLVoAHD+iFApL1BzuKohwCcHA959BsAEWABbGI8LcAfewB8EgTAQBeJBMpgKvc+C+1wOZoK5YBEoBqVgNdgAKsA2sBNUg+/BQdAAmsFJcBZcAlfADXAX7p5O8Bz0gtfgA4IgJISOMBEDxBSxQhwQF4SD+CJBSAQSiyQjaUgmIkWUyFxkMVKKrEUqkB1IDfIDcgQ5iVxA2pE7yEOkG/kTeY9iKA3VRY1Ra3QsykG5aDgaj05BM9EZaCG6BF2JlqNV6D60Hj2JXkJvoB3oc7QPA5gGxsLMMEeMg/GwKCwFy8Dk2HysBCvDqrA6rAle52tYB9aDvcOJOBNn445wB4fiCbgQn4HPx1fgFXg1Xo+fxq/hD/Fe/DOBTjAiOBC8CHzCJEImYSahmFBG2E04TDgD76VOwmsikcgi2hA94L2YTMwmziGuIG4h7ieeILYTHxP7SCSSAcmB5EOKIglI+aRi0ibSPtJx0lVSJ+ktWYNsSnYhB5NTyFJyEbmMvJd8jHyV/Iz8gaJFsaJ4UaIoIspsyirKLkoT5TKlk/KBqk21ofpQ46nZ1EXUcmod9Qz1HvWVhoaGuYanRoyGRGOhRrnGAY3zGg813tF0aPY0Hi2VpqStpO2hnaDdob2i0+nWdH96Cj2fvpJeQz9Ff0B/q8nUdNLka4o0F2hWatZrXtV8waAwrBhcxlRGIaOMcYhxmdGjRdGy1uJpCbTma1VqHdG6pdWnzdQepx2lnae9Qnuv9gXtLh2SjrVOkI5IZ4nOTp1TOo+ZGNOCyWMKmYuZu5hnmJ26RF0bXb5utm6p7ve6bbq9ejp6rnqJerP0KvWO6nWwMJY1i8/KZa1iHWTdZL0fZTyKO0o8avmoulFXR73RH63vry/WL9Hfr39D/70B2yDIIMdgjUGDwX1D3NDeMMZwpuFWwzOGPaN1R3uPFo4uGX1w9C9GqJG9UazRHKOdRq1GfcYmxiHGMuNNxqeMe0xYJv4m2SbrTY6ZdJsyTX1NJabrTY+b/sbWY3PZuexy9ml2r5mRWaiZ0myHWZvZB3Mb8wTzIvP95vctqBYciwyL9RYtFr2WppYTLeda1lr+YkWx4lhlWW20Omf1xtrGOsl6qXWDdZeNvg3fptCm1uaeLd3Wz3aGbZXtdTuiHccux26L3RV71N7NPsu+0v6yA+rg7iBx2OLQPoYwxnOMdEzVmFuONEeuY4FjreNDJ5ZThFORU4PTi7GWY1PGrhl7buxnZzfnXOddznfH6YwLG1c0rmncny72LkKXSpfr4+njg8cvGN84/qWrg6vYdavrbTem20S3pW4tbp/cPdzl7nXu3R6WHmkemz1ucXQ50ZwVnPOeBM8AzwWezZ7vvNy98r0Oev3h7eid473Xu2uCzQTxhF0THvuY+wh8dvh0+LJ903y3+3b4mfkJ/Kr8Hvlb+Iv8d/s/49pxs7n7uC8CnAPkAYcD3vC8ePN4JwKxwJDAksC2IJ2ghKCKoAfB5sGZwbXBvSFuIXNCToQSQsND14Te4hvzhfwafm+YR9i8sNPhtPC48IrwRxH2EfKIponoxLCJ6ybei7SKlEY2RIEoftS6qPvRNtEzon+KIcZEx1TGPI0dFzs39lwcM25a3N641/EB8avi7ybYJigTWhIZiamJNYlvkgKT1iZ1TBo7ad6kS8mGyZLkxhRSSmLK7pS+yUGTN0zuTHVLLU69OcVmyqwpF6YaTs2denQaY5pg2qE0QlpS2t60j4IoQZWgL52fvjm9V8gTbhQ+F/mL1ou6xT7iteJnGT4ZazO6Mn0y12V2Z/lllWX1SHiSCsnL7NDsbdlvcqJy9uT05ybl7s8j56XlHZHqSHOkp6ebTJ81vV3mICuWdczwmrFhRq88XL5bgSimKBrzdeGHfqvSVvmN8mGBb0FlwduZiTMPzdKeJZ3VOtt+9vLZzwqDC7+bg88RzmmZazZ30dyH87jzdsxH5qfPb1lgsWDJgs6FIQurF1EX5Sz6uci5aG3RX4uTFjctMV6ycMnjb0K+qS3WLJYX31rqvXTbMnyZZFnb8vHLNy3/XCIquVjqXFpW+nGFcMXFb8d9W/5t/8qMlW2r3FdtXU1cLV19c43fmuq12msL1z5eN3Fd/Xr2+pL1f22YtuFCmWvZto3UjcqNHeUR5Y2bLDet3vSxIqviRmVA5f7NRpuXb36zRbTl6lb/rXXbjLeVbnu/XbL99o6QHfVV1lVlO4k7C3Y+3ZW469x3nO9qdhvuLt39aY90T0d1bPXpGo+amr1Ge1fVorXK2u59qfuufB/4fWOdY92O/az9pQfAAeWB335I++HmwfCDLYc4h+p+tPpx82Hm4ZJ6pH52fW9DVkNHY3Jj+5GwIy1N3k2Hf3L6aU+zWXPlUb2jq45Rjy051n+88HjfCdmJnpOZJx+3TGu5e2rSqeunY063nQk/c/5s8NlT57jnjp/3Od98wevCkYuciw2X3C/Vt7q1Hv7Z7efDbe5t9Zc9Ljde8bzS1D6h/dhVv6snrwVeO3udf/3Sjcgb7TcTbt6+lXqr47bodted3Dsvfyn45cPdhfcI90rua90ve2D0oOpXu1/3d7h3HH0Y+LD1Udyju4+Fj58/UTz52LnkKf1p2TPTZzVdLl3N3cHdV36b/Fvnc9nzDz3Fv2v/vvmF7Ysf//D/o7V3Um/nS/nL/j9XvDJ4tecv179a+qL7HrzOe/3hTclbg7fV7zjvzr1Pev/sw8yPpI/ln+w+NX0O/3yvP6+/XyaQCwY+BTCgOtpkAPDnHgDoyQAw4bmROll9PhwoiPpMO4DAf8LqM+RAcQegDn7Tx/TAr5tbABzYBYA11GekAhBNByDeE6Djxw/XobPcwLlTVYjwbLA97lN6Xjr4N0V9Jv3K75E9UKm6gpH9vwDOFIMK7tPLSgAAAJZlWElmTU0AKgAAAAgABQESAAMAAAABAAEAAAEaAAUAAAABAAAASgEbAAUAAAABAAAAUgEoAAMAAAABAAIAAIdpAAQAAAABAAAAWgAAAAAAAACQAAAAAQAAAJAAAAABAAOShgAHAAAAEgAAAISgAgAEAAAAAQAAAHigAwAEAAAAAQAAADAAAAAAQVNDSUkAAABTY3JlZW5zaG90lh3wkwAAAAlwSFlzAAAWJQAAFiUBSVIk8AAAAtppVFh0WE1MOmNvbS5hZG9iZS54bXAAAAAAADx4OnhtcG1ldGEgeG1sbnM6eD0iYWRvYmU6bnM6bWV0YS8iIHg6eG1wdGs9IlhNUCBDb3JlIDYuMC4wIj4KICAgPHJkZjpSREYgeG1sbnM6cmRmPSJodHRwOi8vd3d3LnczLm9yZy8xOTk5LzAyLzIyLXJkZi1zeW50YXgtbnMjIj4KICAgICAgPHJkZjpEZXNjcmlwdGlvbiByZGY6YWJvdXQ9IiIKICAgICAgICAgICAgeG1sbnM6ZXhpZj0iaHR0cDovL25zLmFkb2JlLmNvbS9leGlmLzEuMC8iCiAgICAgICAgICAgIHhtbG5zOnRpZmY9Imh0dHA6Ly9ucy5hZG9iZS5jb20vdGlmZi8xLjAvIj4KICAgICAgICAgPGV4aWY6VXNlckNvbW1lbnQ+U2NyZWVuc2hvdDwvZXhpZjpVc2VyQ29tbWVudD4KICAgICAgICAgPGV4aWY6UGl4ZWxYRGltZW5zaW9uPjEyMDwvZXhpZjpQaXhlbFhEaW1lbnNpb24+CiAgICAgICAgIDxleGlmOlBpeGVsWURpbWVuc2lvbj40ODwvZXhpZjpQaXhlbFlEaW1lbnNpb24+CiAgICAgICAgIDx0aWZmOlJlc29sdXRpb25Vbml0PjI8L3RpZmY6UmVzb2x1dGlvblVuaXQ+CiAgICAgICAgIDx0aWZmOlhSZXNvbHV0aW9uPjE0NC8xPC90aWZmOlhSZXNvbHV0aW9uPgogICAgICAgICA8dGlmZjpZUmVzb2x1dGlvbj4xNDQvMTwvdGlmZjpZUmVzb2x1dGlvbj4KICAgICAgICAgPHRpZmY6T3JpZW50YXRpb24+MTwvdGlmZjpPcmllbnRhdGlvbj4KICAgICAgPC9yZGY6RGVzY3JpcHRpb24+CiAgIDwvcmRmOlJERj4KPC94OnhtcG1ldGE+ClEKBB8AAAqGSURBVHgB7Vvpb1TXFT/vvZnxwmYwNhhDWUKAsAUIJCWEBBIoDU1EadQ0UZsqCl3U7R/ot36oVClSPzQfUqlVk4q2AZGWloTEFAouOw7EGAMOBrNjvLAZgsEzb+nvd9+8eMaeGduZQeOZviPNPPu9e+679/zOfm1t9dKzjviUtxLQ83Zn/saUBHyA81wRfIB9gPNcAnm+Pd+CfYDzXAJ5vj3fgn2A81wCeb4934J9gPNcAnm+Pd+C8xzgQKb3p0dVxrbdmTVNRDeib0HXm/edJN1v8mqeyvUYy3n4IS8/Pd+Tah+xY715vPX1h897Z8+xam9cL9Yl0XXFzsu98FHsvdi1cD6O0aN74+98VyoZccxAKKMAG5jt+z8MCa9bNkVkylRdJj+sy5x5LsJ3bjtS+4klu/9jSedd7CRKxUM0mTtfl4WLAzJuPEUicv++yNnTlpyos+V4nYXnhixZZuCeLds/MuXV10MyokRkw58j0nq1e67olF9cRpZqsubbQQkViHz4d1PmLNDVuj45YMlhfFLRGz8NSfEQkR0fm3LyWFRjwUBgx39Fl8eXGPLIbB1jNAVMW4ut1luDec2IIy98KygVlZr8c6MpF87ZatyLLwVk7DgN8jEVuEuWBWQKZDQK6yws0uR8kyXHPsXaDlop95Vq3bHPMgswcFz6bEDCYZGxFboCi4v2aOw4kUlTDDGMsGzdbCrLnjhZl++tCymBBUOuBkfAT0AmTdHlyacd2bvLlGHDdZm30IAQLKnaYspEPCNvxy2R9X8Mi2V6b4m/KsV4JiB37jiya5sJQAylLEMASiqAy8dC6RYYwnF1RwiuCzDX+NzzAXluVVCoPLRIz0IrKnWZPU/kmZW2fFpjyvxFhoyBHA7stgCwKIV89DEDALtKUVauS8koyAf6SZmRHp5hAHBDFi+1ZeP6sFIYb353xMC+Mwqw9+oQhECtJF06D60+ZsnndwSb1WTocJH6WldYj0KAr8HiS0ZqSkifnbDk+FFbrl+zpQJC8Kx/xeqgN7W6mgCTcxJgvqcUgm5rTWzFT68IKI9y5pQN67ClZh9AngXLm2MoBWy+3JvPoKIuDyiLu3XLUdbkLWD1mqA8jw8VsKXZllMnbLmKq4MtPTRNV0pROUGXsjEQQgoikCR6pPpaS1qu2hIIaDJ9FpUangxzvP7jAnnrzS617hRTpXz0QAD23nhgjynv/zUiHTcdBWAAb2M8poXS9a15OajAvfu5o8Yd2mtKV5drxZpmCRWFQHwXFl46utsTcP7aQ5YsXxmAC3QVoa21t7sdP1GX0WUu3wm4+UhEALAFC7Rl8kO6cqHv/D6s1uOtmVda75NwnYyHOz6KCNdHWvC4IateDAit+PBBUzatj8jNG45Q4UjVO0RGwiLXvhKURQg3Xrx1n8Z/0yoP7DZViGG44rtIh/aJ7IPHWvezAhldrsnK1QH5w1tR83aHDOjbNbMBsfRv8EVY7qa/QADXXXDJRUGEowDOX+SCw41y3L5qU8Vdb6O8Euyjhy3ZvCHyhQC8t1+6YMsxaD6t7WsvBHsJk3nA4qVwsUM1uXHNkZr9LgpcQ2ODqwyViKMjSuIVh/PTjRMoKmZDvettiopEnoJVM+SQ/29/ikh7Wze45KPitrU4suHdiDRfdvl4PxExXv/jPVd5vD1znAklPHXSzTv4ezlcfDqUHneSN1uQX/V2U25BuxNREB73CSQovNLVUpM9K0g0nq6bgMYSY9ZBeAgqSAWSFrq2WCofo6l8gM+rPojIvc7up4f2MGQ4MgEWPv2ReD663iUAksR30nWSxo13cwB6gW0fYG8APxl1wK1X/SvSyzPEjj+JfdP6kxHzhUxQ/O4yMSPmME1HOqNuLdGUdNNlAIDUhNiYClyOoaIwhvak05/hPXBvoQIAPNOIs2Ja29BhiM0AqLYm3n1fvoR78AyklbB+gurRDMRnro1J265/w6vcc5+MioaIjpu28gje+GTXFmT2nZ3JAbwOz5aKqCSZoAcCcF8L01Bn0HWS7kEIsS4qES+tsBVAMZGJJYLLEoaxjkkRkzVSYaGbjfLn5isOkrZ4YdEN1h1xAS5FjGY8JrH8eXYVFANro9doPNmtGJ5C3gPgd2NKPMWY4Itr4ycZtSdJCpON/7L3swKwA0Q9IdH6KNi+qHyM3t0EiRnMGH2t3VYly4In3Mx0NuruygmaKj12bQOaCagetebtDkeKizVh6cJYXoT4Sl5aLy2ctbhHXq3NWMzSqS9iQslPtikrAFOAl1D4k+ai8RCIr4J6yYSutiLaAOn5sL2122VOQzxlZ2gZsusiANdQb8k5lEaJiLF0+1Y3zrHZwGRr4WLXzd9GQ4YxMpboBehpOO+wEX0DXFqmQ+myIt7YZUtWVsAk7PxZW3hl0c+mSCqaOVeXmSiXEhGTp62bXStlSbUIIM1AFsxsXWXm0RiaiLf+qKXi6bDhmqz4RkCWwz2TWAK1NMe71+vtjpw7Y6vQsvYV1MjFiWbsvsdy6v/WgmkJbBU2I9mhcF/7UVAmReNgt4jQzUK9Sfe59jupTbypEcKHpdJ1soXJmNwB98sWZypio8LLkp+CFbP9eAPJz/7q3nzMuvegPmX8Zjdu+deDMjxBicWWI+v7qdMTK2Sq9TyIZ1mLEkwyNm+MyA9+EZKp0wwU9hpqVUsunrfEghALCjWZg/4z3SbjZCoKdzlyAR6ByZJX19aiVehlwMl4aeVVWyIya66hMm6OO40a9woUrydRKdkFY3nHTPulV4MyH61T9ta5ZipqySiUUo/pgwZc7iFrAPPlbKr/7jddsu7nISRFunzzZR0WEmRrViVedHGMlfv/ayIz1sRLosgbSyyzWNKw0zQc8ZFNhD07e1thLI/387kziLeI1QwBBJFWn6xsYzh45+2w8ijsM7NNSs9jmUEV++k5+OGhCrt4bMWyF51NyijANmTKLk/paF1lqH1tjOVPY4Mtb/82LF9F14mljq7OztCuxLOL6AZt3xpRvWDGVjYzkpUX7DpRGUi0Ks/1uneSf/PU53a05mTCdgSnOKmI7+fhxqmGAE7JkBvA+ln2Cdg4D/vSO3DadRFJJBspRsCRVnS3SFQQrjOAe20pTsA4lntparRUN4+/f1nSBtv/JrGhQMvtQokykGKfR3dv/KRANS3e/NV9aTje280mEhJr51/+ulC59vfeDUs1PMFAiBk+++okAkjrHUyUUQvOxMbYNx4oseXJY0F2pNhebMIJTX9pMs6sCfJVeIu6aHerv7wcx+SLJ2WDlbIbIDIkFcY5xkQ2+3eih8vkqT9UiKYFSyN6jCsAOFVvuD/zDcYxeQEwD+DZgGDZ01cMjQVhHkqwqdN1pRA7qwbmmmPnGcw/5zzA/HMZ1q8kNi7oMvtDzIv41yfMzsnHP0zIRxp0MXigQubhOw8OmhptdYzXX36WRAf3WqqjxqYLz57zkQZdFp2PQs7mnnLeRWdTeLnwbh/gXEApjTX6AKchvFxg9QHOBZTSWKMPcBrCywVWH+BcQCmNNfoApyG8XGD1Ac4FlNJYow9wGsLLBVYf4FxAKY01+gCnIbxcYPUBzgWU0lijD3AawssF1v8BLTM2EbBLdPYAAAAASUVORK5CYII=;" parent="1" vertex="1">
          <mxGeometry x="65.33000000000001" y="-1946" width="160" height="64" as="geometry" />
        </mxCell>
        <mxCell id="WAZFhBSZ8dUsOadZfPS--23" value="" style="shape=image;html=1;verticalAlign=top;verticalLabelPosition=bottom;labelBackgroundColor=#ffffff;imageAspect=0;aspect=fixed;image=https://cdn2.iconfinder.com/data/icons/essential-web-4/50/content-form-application-article-paper-128.png" parent="1" vertex="1">
          <mxGeometry x="364.43" y="-1693.5" width="148" height="148" as="geometry" />
        </mxCell>
        <mxCell id="WAZFhBSZ8dUsOadZfPS--24" value="" style="sketch=0;html=1;aspect=fixed;strokeColor=none;shadow=0;align=center;fillColor=#2D9C5E;verticalAlign=top;labelPosition=center;verticalLabelPosition=bottom;shape=mxgraph.gcp2.check" parent="1" vertex="1">
          <mxGeometry x="40.33" y="-1675.5" width="162.5" height="130" as="geometry" />
        </mxCell>
        <mxCell id="WAZFhBSZ8dUsOadZfPS--25" value="" style="sketch=0;aspect=fixed;pointerEvents=1;shadow=0;dashed=0;html=1;strokeColor=none;labelPosition=center;verticalLabelPosition=bottom;verticalAlign=top;align=center;fillColor=#00188D;shape=mxgraph.mscae.enterprise.filter" parent="1" vertex="1">
          <mxGeometry x="667.04" y="-1664" width="123.89" height="111.5" as="geometry" />
        </mxCell>
        <mxCell id="WAZFhBSZ8dUsOadZfPS--26" value="&lt;span style=&quot;font-size: 30px;&quot;&gt;&lt;b&gt;Apply Filters&lt;/b&gt;&lt;/span&gt;" style="text;html=1;align=center;verticalAlign=middle;whiteSpace=wrap;rounded=0;" parent="1" vertex="1">
          <mxGeometry x="633.43" y="-1534" width="190" height="40" as="geometry" />
        </mxCell>
        <mxCell id="WAZFhBSZ8dUsOadZfPS--28" value="&lt;b&gt;&lt;font style=&quot;font-size: 30px;&quot;&gt;Database&lt;/font&gt;&lt;/b&gt;" style="text;html=1;align=center;verticalAlign=middle;whiteSpace=wrap;rounded=0;" parent="1" vertex="1">
          <mxGeometry x="53.429999999999986" y="-2324" width="190" height="40" as="geometry" />
        </mxCell>
        <mxCell id="WAZFhBSZ8dUsOadZfPS--29" value="&lt;b&gt;&lt;font style=&quot;font-size: 30px;&quot;&gt;Filtration Plataform&lt;/font&gt;&lt;/b&gt;" style="text;html=1;align=center;verticalAlign=middle;whiteSpace=wrap;rounded=0;" parent="1" vertex="1">
          <mxGeometry x="48.43" y="-1807" width="190" height="40" as="geometry" />
        </mxCell>
        <mxCell id="WAZFhBSZ8dUsOadZfPS--30" value="&lt;span style=&quot;font-size: 30px;&quot;&gt;&lt;b&gt;Keywords&lt;/b&gt;&lt;/span&gt;" style="text;html=1;align=center;verticalAlign=middle;whiteSpace=wrap;rounded=0;" parent="1" vertex="1">
          <mxGeometry x="343.43" y="-1814" width="190" height="40" as="geometry" />
        </mxCell>
        <mxCell id="WAZFhBSZ8dUsOadZfPS--31" value="&lt;span style=&quot;font-size: 30px;&quot;&gt;&lt;b&gt;&amp;gt;2016&lt;/b&gt;&lt;/span&gt;" style="text;html=1;align=center;verticalAlign=middle;whiteSpace=wrap;rounded=0;" parent="1" vertex="1">
          <mxGeometry x="630.93" y="-2034" width="190" height="40" as="geometry" />
        </mxCell>
        <mxCell id="fS1rTZaI_TZCwyPRugsw-13" style="edgeStyle=orthogonalEdgeStyle;rounded=0;orthogonalLoop=1;jettySize=auto;html=1;strokeWidth=7;" edge="1" parent="1" source="WAZFhBSZ8dUsOadZfPS--32">
          <mxGeometry relative="1" as="geometry">
            <mxPoint x="438.43000000000006" y="-1340" as="targetPoint" />
          </mxGeometry>
        </mxCell>
        <mxCell id="WAZFhBSZ8dUsOadZfPS--32" value="&lt;span style=&quot;font-size: 30px;&quot;&gt;&lt;b&gt;Filter by Inclusion&lt;/b&gt;&lt;/span&gt;" style="text;html=1;align=center;verticalAlign=middle;whiteSpace=wrap;rounded=0;" parent="1" vertex="1">
          <mxGeometry x="343.43" y="-1520" width="190" height="70" as="geometry" />
        </mxCell>
        <mxCell id="fS1rTZaI_TZCwyPRugsw-15" style="edgeStyle=orthogonalEdgeStyle;rounded=0;orthogonalLoop=1;jettySize=auto;html=1;entryX=0.138;entryY=-0.066;entryDx=0;entryDy=0;entryPerimeter=0;strokeWidth=7;" edge="1" parent="1" source="WAZFhBSZ8dUsOadZfPS--33" target="fS1rTZaI_TZCwyPRugsw-12">
          <mxGeometry relative="1" as="geometry">
            <mxPoint x="121.58000000000004" y="-1350" as="targetPoint" />
          </mxGeometry>
        </mxCell>
        <mxCell id="WAZFhBSZ8dUsOadZfPS--33" value="&lt;span style=&quot;font-size: 30px;&quot;&gt;&lt;b&gt;Final Results&lt;/b&gt;&lt;/span&gt;" style="text;html=1;align=center;verticalAlign=middle;whiteSpace=wrap;rounded=0;" parent="1" vertex="1">
          <mxGeometry x="26.58" y="-1545.5" width="190" height="70" as="geometry" />
        </mxCell>
        <mxCell id="WAZFhBSZ8dUsOadZfPS--35" value="" style="shape=flexArrow;endArrow=classic;html=1;rounded=0;endWidth=24.347826086956523;endSize=12.895652173913044;width=26.086956521739133;fillColor=#f5f5f5;strokeColor=#666666;exitX=1;exitY=0.5;exitDx=0;exitDy=0;" parent="1" edge="1" source="WAZFhBSZ8dUsOadZfPS--5">
          <mxGeometry width="50" height="50" relative="1" as="geometry">
            <mxPoint x="568.43" y="-1904" as="sourcePoint" />
            <mxPoint x="638.43" y="-1914" as="targetPoint" />
          </mxGeometry>
        </mxCell>
        <mxCell id="fS1rTZaI_TZCwyPRugsw-12" value="" style="shape=image;verticalLabelPosition=bottom;labelBackgroundColor=default;verticalAlign=top;aspect=fixed;imageAspect=0;image=data:image/png,iVBORw0KGgoAAAANSUhEUgAABEYAAABQCAYAAAAUeHCAAAAABGdBTUEAALGPC/xhBQAAACBjSFJNAAB6JgAAgIQAAPoAAACA6AAAdTAAAOpgAAA6mAAAF3CculE8AAAAomVYSWZNTQAqAAAACAAFARIAAwAAAAEAAQAAARoABQAAAAEAAABKARsABQAAAAEAAABSASgAAwAAAAEAAgAAh2kABAAAAAEAAABaAAAAAAAAAJAAAAABAAAAkAAAAAEABJKGAAcAAAASAAAAkKABAAMAAAABAAEAAKACAAQAAAABAAAERqADAAQAAAABAAAAUAAAAABBU0NJSQAAAFNjcmVlbnNob3RBhPAwAAAACXBIWXMAABYlAAAWJQFJUiTwAAADCWlUWHRYTUw6Y29tLmFkb2JlLnhtcAAAAAAAPHg6eG1wbWV0YSB4bWxuczp4PSJhZG9iZTpuczptZXRhLyIgeDp4bXB0az0iWE1QIENvcmUgNi4wLjAiPgogICA8cmRmOlJERiB4bWxuczpyZGY9Imh0dHA6Ly93d3cudzMub3JnLzE5OTkvMDIvMjItcmRmLXN5bnRheC1ucyMiPgogICAgICA8cmRmOkRlc2NyaXB0aW9uIHJkZjphYm91dD0iIgogICAgICAgICAgICB4bWxuczp0aWZmPSJodHRwOi8vbnMuYWRvYmUuY29tL3RpZmYvMS4wLyIKICAgICAgICAgICAgeG1sbnM6ZXhpZj0iaHR0cDovL25zLmFkb2JlLmNvbS9leGlmLzEuMC8iPgogICAgICAgICA8dGlmZjpSZXNvbHV0aW9uVW5pdD4yPC90aWZmOlJlc29sdXRpb25Vbml0PgogICAgICAgICA8dGlmZjpYUmVzb2x1dGlvbj4xNDQvMTwvdGlmZjpYUmVzb2x1dGlvbj4KICAgICAgICAgPHRpZmY6WVJlc29sdXRpb24+MTQ0LzE8L3RpZmY6WVJlc29sdXRpb24+CiAgICAgICAgIDx0aWZmOk9yaWVudGF0aW9uPjE8L3RpZmY6T3JpZW50YXRpb24+CiAgICAgICAgIDxleGlmOlBpeGVsWERpbWVuc2lvbj4xMDk0PC9leGlmOlBpeGVsWERpbWVuc2lvbj4KICAgICAgICAgPGV4aWY6Q29sb3JTcGFjZT4xPC9leGlmOkNvbG9yU3BhY2U+CiAgICAgICAgIDxleGlmOlVzZXJDb21tZW50PlNjcmVlbnNob3Q8L2V4aWY6VXNlckNvbW1lbnQ+CiAgICAgICAgIDxleGlmOlBpeGVsWURpbWVuc2lvbj44MDwvZXhpZjpQaXhlbFlEaW1lbnNpb24+CiAgICAgIDwvcmRmOkRlc2NyaXB0aW9uPgogICA8L3JkZjpSREY+CjwveDp4bXBtZXRhPgqzg/Y4AABAAElEQVR4Ae19CbwUxbV+zX4XNkVRURFExBV3VFwAd4y78ZnF51OfxiQmmsSYqImJyT/GxJhEn9nUuO8aFbeoUVFRQXFBRQVFFHFDUFDh3jv7/M9XPdVT3dPd0zPTM8zce87vN9PV1VXV3V9VnT516tSpUIFIMDECjAAjwAgwAowAI8AIMAKMACPACDACjAAjMAARCA/Ad+ZXZgQYAUaAEWAEGAFGgBFgBBgBRoARYAQYAUZAIsCKEW4IjAAjwAgwAowAI8AIMAKMACPACDACjAAjMGARYMXIgK16fnFGgBFgBBgBRoARYAQYAUaAEWAEGAFGgBFgxQi3AUaAEWAEGAFGgBFgBBgBRoARYAQYAUaAERiwCLBiZMBWPb84I8AIMAKMACPACDACjAAjwAgwAowAI8AIsGKE2wAjwAgwAowAI8AIMAKMACPACDACjAAjwAgMWARYMTJgq55fnBFgBBgBRoARYAQYAUaAEWAEGAFGgBFgBFgxwm2AEWAEGAFGgBFgBBgBRoARYAQYAUaAEWAEBiwC0cDfvFAQIpcWhVxWhPJZUSjkBP0FfhsusJ8iEAqJUCgiCuGoCEWoeUbigiL66cuuwdfifroGwedbMwJVIsB8sUrAakzOfLFG4DgbI9CGCDBfbV6lMW9tHtbNvlM/60ehAlEgGOZzopBJCpGlHxMjECQC0Q4RinUIEY4EWerALIv76cCsd37r/ocA88Xg6pT5YnBYckmMQDsjwHw12Npj3hosnu1SWhv3o2AUI+leUor0tUt18XO2KQKhWKcQ8a42ffoWeGzupy1QCfwIjECwCDBfrBNP5ot1AsjZGYH+hwDz1QDqlHlrACC2dxHt2I/qU4yQJlCkVosCLZlhYgSagUCIltiIxCC2HqkGbO6n1aDFaRmBtkOA+WINVcZ8sQbQOAsjMHAQYL5aY10zb60RuP6Zrd36Ue2KEfIhUkh9yf5D+mc7bu23wnq2xBDyPxK8i5zWfvEano77aQ2gcRZGoA0RYL7ov9KYL/rHilMyAgMZAear1dU+89bq8BooqduoH9W2Kw1pA1kpMlBacwu+J7nFke0PWmkmdwS4n7pjw1cYgf6GAPNFfzXKfNEfTpyKEWAE5OQvy5s+GwLzVp9ADcBkbSSf1KYYoeUzvNPMAGzYrfTK8BmMdsjkjgD3U3ds+Aoj0B8RYL5YuVaZL1bGiFMwAoxACQHmqyUsvELMW73Q4Wtt0o+qV4zAmQ77FOEG3gIIyHZI7ZHJAQHupw6gcBQj0P8RYL7oUcfMFz3A4UuMACPghgDzVTdkivHMWysAxJeBQDv0o+oUIzCT4t1nuHW3EAKyPVK7ZNIQ4H6qgcFBRmDgIcB80aHOmS86gMJRjAAj4BcB5qsuSDFvdQGGo50QaPV+VJVipJBJOr0jxzECaxQBbpdW+BkPKx58xggMRASYD1hrnfGw4sFnjAAjUD0CzEfKMWNMyjHhGG8EWrnN+FeMYG1QlhUj3lXNV9cIAmiXaJ9MBg7cT7klMAKMAPPFUhtg+aWEBYcYAUagdgSYr1qxY95qxYPP/CHQwv3Iv2Ikl/b3spyKEVgTCHD7NFBnHNZE6+N7MgKtiQDzA6NeGIfWbJ/8VIxAOyLA/KRUa4xFCQsOVYdAi7Yd34qRAu1NzcQItCoC3D6NmmEcWrWF8nMxAs1HgPmBgTnj0Py2x3dkBPorAsxPSjXLWJSw4FB1CLRq2/GtGAnxTjTV1TinbioC3D4NuBmHpjY7vhkj0NIIMD8wqodxaOlmyg/HCLQVAsxPStXFWJSw4FB1CLRq2/GtGCkUeOeP6qqcUzcTAW6fBtqMQzNbHd+LEWhtBJgfGPXDOLR2O+WnYwTaCQHmJ6XaYixKWHCoOgRate34Voywc8vqKpxTNxkBdr5qAM44NLnh8e0YgRZGgPmBUTmMQws3Un40RqDNEGB+UqowxqKEBYeqQ6BF2060urfg1IwAI8AIMAKMACMQBAL5j96QxeQ+fl1k6RfdYGuz2NhOx5hhDjACjAAjwAj4Q4D5qj+cOBUj4IXAQO1HoQKRFzDqWqHnMxWs66gD7VYQC4RuyHC8FwKh7uFelwfEtWr7qb0/Zj98TeIUHjxChIeMqIhZhAZy4ZFbVUzHCRgBRqCEQObFO6QiJPfhy6VIh1Bkw+2lsqSebyLzRdrFPCD5xaGKZBT4KJRbTlRP3TmVx3GMACPgjADzVWdcGhlbL29FnVXikeCvLGc2shatZQ/0ftRUxUjf/eeLSoKgqp7Ezt+s2FlUWj4yAkCABwD+BwBgfKkXbgqk4WDwltjxv/jDFQiaXEh/RgACXuql231/B3Usav0mMl/0zxd1vP2E/fLRrkN/y/zRD6CchhGoAQHmqzWAFlCWehQjin968UfUbe9954pav38BveaAKIb7kVHNTVtKgw4ApYgaRLm1Msy6YMCmBm2VNIlu5XA8I8AIOCOgPka4au+P+c8Wi9xn7wp5/HShiI3fX8Q2n+pYkDL/R79OUYrOkec7puNIRoAREELvd7Xgwd/EWlBrbB5VJ3Y+irsqCxIpz5AyjPljY+uCSx+YCDBfbb96xwBcyY94ekwWiJe83wNLTcWLRhoeF3pjVctV7kcl1JqiGJFaqOLsdOch55fu7hCCuRQaPaxLlNARRCfIvHyvKGR65B3DQzYU0fF7O9zdiMq986wcHIZEWMR2pnXeoZKPWlVOaNC6Irblfq5leF1QZSBNpWfxKqeaa6iD7IevyCyx8fuI0JD1qsluSeuFjyVhm50sW7ZMpNNp+dTDhg0TgwYNcnyDL7/8UuAHQhqkdaJPP/1UJJNJ0dXVJdZee22ZJJfLiY8//tiSPBQKiUQiIYYPHy4QbjSpfjXo1Ollt0L/U0wBfTDz5iMCy2qc+qDsq+IYsfryI2qaAddvXlj1qcjMvUvkViwRhdXLRKhjqAgPH02KmSk001ryu6Dnaedwfvk7Irv4OfkK9fbHQu+XIvP6AyYckfW2EJFRO5jnToH8yg9F9u2Z5qXoqJ1EeL3NzfNGBFqJb2Tn3iPy2V4R7houolsf0IjXtZRZr9ChClN916k/qjRBHrHS9sMPPzSLXH/99UU0qjiEGS0Dit/hBLyss7PTmqB4hvJQ7lprrSW6u7tlbE9Pj1i5cqUlfTgclrzTjb9aEq+BE9QpyG0mU5l+Q6CH8hjfYBVX6XEzL90tCrlkWbJQrFuE1xopIuuMFaJ7rbLrtUTUyou88mUXzBD5VZ/Q9ywqYjseRYJOpJZHa2iezAu3UzvMiXpkuUAfMJ8T6RdpgFgF+eH1VRTXdknbla8C6M8//1ysXr1aYq7LiPZKSKVSYvny5TIavBc82ImUXGpPs3TpUpHNZi1Z4vG45L+xWMwS3+gTORZ0sJj0s5IAaVQ65Y+rmu9g+vlbzNeLTziCGLfz96nwxSci89YMmTYUHyRi2x1q5uuvgXbuR42oE2cJJ+A7qZkTCBB+CQqUoJQjhc+WiNRzV5duTYqO7s12F6GIM1NIkcCTX7FIpo9td5gQ8VIHSs25luxy8yLUuVZNipFqn6X00N6hQo4G9EXmF0p0lSXOLnpGpN8wBk/hjmEiuu20sjR+I7zw8VtGq6Xr6+sT3/nOd8zHmjRpkjjzzDPNcz1w4403iscee0xGdXR0iKuvvloqNvQ0CH/ve98TmUxG7LzzzuKcc86Rl+fMmSMuvvhie1J5jo/UhAkTxJQpUwTu3wjChwnkpy9ieUwvrEGKSk23jxBmS6sV/PV3S8++XqRfvUuPEqJnGSknF9IH6hER22KaSOx1CgnXJQWlNXH7nWXfmS3SLxsDq/CQkSJah6KyQAOQ9Eu3mSCEOoaI7v+53jx3CqSfu0Fk33u2dIkGqvF6FSPpJA00iDdCkRzvKJVdDLUS30CbLuSJZyYGiUENVowEJXQoQCv1R5UuiOPcuXPFBRdcYBb13e9+V+y7777muR742c9+JqAcAW277bbi/PPPl2H9D0qR008/XUadfPLJYto04zt0ww03iEceeURPaoYHDx4sdtppJ3HwwQeLsWNJIdBiBD9LXqT4KOQgv4qR1As3SDnDq9zwsE1E56H/T4S6hnglq3itVl7klS/18l2i8MUH8t7R8VNFaPA6FZ8j6ASFVK9RJA0mQ5F4WfGpF2824ki+q3WSq6zQeiKyGQsf91NUZMMdRWcFJbifctoxTTvzVeD9i1/8wlQ6g8dde+21jtXw4osvij/+8Y/mtT/84Q9i0003Nc9V4C9/+YtAWsikN910k4yGwvm0005TScqO48aNE7vvvrs45JBDRCTSeOUllsSAlIUdeCK+Z36X0oDXqjyQOavxcZdd+CQpa5fK++e/XCY69j1Dhu1/yUf/KHKfviWjoxvv0u8VI+3ej+z1F8R5w0YaGIDhB9CVQ0cc++79pcjO+7evZ4dyBB0IHQfl1ErpefdZs5Lwnn1rpjWuSWeNepbk9J+Lnmu/IX8i3dekt+k/t3nqqacsL/Pcc89JpYYl0uEEFiG33+5/lsfL1zGUKOojeMkll5Rp+R1uX3WUUlL6yQghHh8sEPogLEP0HxSX+Im8L//Nshz7X2b+Y2VKkVA4LgraDGNmwYOi9xZSWtGMGlNlBArJL0V+2dvuCfN5kXn/effrNV5Zdd03DR50a0nBWGNR/SZb0EKHAgb9USk5VVwjjo8++qil2P/85z+Wc7eTefPmCfzs5Mb/8tQm3WjVqlXiiSeeED/5yU/Ev//tT3ZwKyuIeCXbZBfPkcX5VXYEcW+9jPzn74nem06mdvC6Hs1hQgDWLEoeSs+4rE0waby1aJsAUfEx252vwopDt8QDj5s/f37F90aCv/71r47pnHirU5yeeeHCheL6668XP/zhD8WKFSv0S4GH1RgOk3IY24FvQrGBcy8eimtIo5QgmKBTE3tyCY7PJ+3YtzTRmX37cZH//KOynLklc02lCFYKJKZ8vyxNf4po937UqLoI3GIEQoObc7ncx8ZSDnmcdQU19O1E52G/8nw3dCAMxiAIqo7hmcHhYmaRddCLJNnXH6JZgn0dUjc2qlHPgplaL4rt8jVaPmT4iggN2cAr6YC8Zhf4seRl9uzZYu+9966Ix/Tp0+XM5zrrVDcrduKJJ4qtttpKKmA+puU1ixYtMgV/KGqgKDnrrLMq3r+WBOhLfggfJShHoFCRazy1TMqsUUVl3npcxOjE6yOn0qpjZm5J4RnZaCeRmHQSmYpvKC9n33hUJJ/+m5w5za8mq4jnbxXxXf1bnal7DMRj+tX7Rcd+P3B89ezbz4hQA5RM5Mnb8X4cWY4AFP7YmhffNS9S1lhOafCdbaTfCphwv/DCC5Zbv/3221KAVksDLRdtJ5jB/Mc//lH18kDMiIJgxffBBx+IV155RUBRDbrqqqsELOv2339/ed6sPyiA7fyuKfeOdoiuo/9UulVqNSk9F5GMdYuAAhRWT32P/IEsxK4tpWmBUNfBv5DPh0cJdRvLSJv6WD74W+dXLxGhXNbRmqSpz6puFk+I7q9fQXVaWvZQWLVM9P37fJkiPGyU6DjwbJVaHmHqz1RCoB34Kp5WWRyXnlxIi7ktt9xSj3IML168WMyaNatqq2JYIR955JFyGSOWjYO33nvvvaK3t1cqaX70ox9J/tooyxH1rdMtjyEr+pEX9TwABedqiaIjSA6R4fXGieioXUV2ifEtST12ieg8+iItZUEkn/g/8zy+wzF1W+OZhbVZoF36UaNgDVQxomufACxMSBXBmSMo867RKKEcwQ8WJJWUIxiYKRMsWUgVf7n3SRmTNdbqQhGT//x9UehbIc30C8lV5MtgcBWl1Ze0lmfBbBA0m6F4t4hsNknAPDS35CU5ex4dP1nOjOSXL6LtCJeZD5eh9b2haFyeRzfZWa5FLiRJoPr0XSNObmvbbaaXAZqxy73/EtXJApFf+b6IrDtWhDfaTkRGjKtpCUPhi6VU3lyR/YRM0tK9IjJyGxHbbE+PddEFkVs4S2SXv0UmuEuJIa0twiPGko8JUuZo1gPWhw7mDObf775rYAOTQsySwhIEyhI/ihE8xT//+U9x9tlWoaXS040ZM8Y0iRw/frxcQnPooYeKc889V663f/bZZ8WSJUvEqFGjKhXV0Ovq4xUjfyJulHrir9IfSX718ioGawWRJ38ikkg733nwzyz+fKJb7Sc6aPlM8knjY5V581FHxQj6ce69uSL/CbVdun947VEiuvkUOm7s9rgi30M84M0nyafJe8SUyNfEWhuL6JjdyM8GtXcb5T//mGZlX5OxEepzoVCE2vYrcgvQyNg9hL50zdLuyV9MdMPtRHSjCR7t3rgZ1rXC50hu6Xzq64NEdNxeIoJ8NVLu3VmUE6aiobISMq8/WBbnGGHjCaHOoSJKfTiy0baWcnPvvUBYkH+IonK2kOkT2TdKyyKiWzkPYnNL35S8LE/OfiX+5OQ3vPZGjo+CSKSH4j23fCHZ4saJR20m/YMoXueUETPH4Je5ZQslr4c/l4qCWDpFbfkxWk5J/m56V4rQsA1EdOQEEdlkR6dbuMbp30N7Iij8FSmBUZ2rI2bFlECIyQE71bN8zV6W0zkUw1AQg0444QTT1Pvxxx8XRx99tFMWSxz46sMPPywOOuggS3ylE91MfOuttxYHHnigtD5RS3MwwzllyhSpIKlUVhDXFfaQaUBQaIHS88hvWWqVDDfsL0yezoaNtBQPX0AR6oerbzxBKjgLyc/pm0n+PIauJwpkIp77wJiAimy8Q9kSlhwt4YMsECL/JBHIBk5EfTm7+HmRA8+Ld4noxtuL8CY7uS49diqiQHwYckuBeCC+43ay8Oy+z6V8ENlwgmf/98uzoVAHT1GUI3lG8SP9vQsrPiC/c30GFsPLv7EWXp5NEY/aSMS2Ooh8kqytijaP2YVP03ekj/xibSLCxJeAXe7dOfJ7FBm5LX2P9qLl10PN9G6B0JARFo5dCJdE9BApyextAeWALxaIV4Eim04iPmeT7SgeFoRK/kNdhklZZT4zta/w+lvKZ84ueZGWsa4QkfVpNp/4nZcvOksd+vzuGjz/RVGgbyqsQiPrbkrfuilVDUDbna+inpRiZOONNxYjRoyQlsJPP/20XPbiRzFxxRVXiIkTJ7r6e8I97LTBBhuY8qZakgh586KLLpLKZ1itPPTQQ+IrX/mKPWvd58q6UVl61F2gVgDKrvhNL6ZPTKHl7Te+IPkmlsvAQkT5Y8u8ch+NDUmOAdES2/hOxxph7d/CE3yNa6jvNUDWLKxaTqseSH79/EM5vo0MHyPCYyaKyPDR2tN6B/tDP/J+w9qvlrhu7WWYOZWA57ReTDXc6LYHy/RYTpMkqxG/yhFkwqy1Kse8aYVA5rUHzBTxbQ4SuU8Wmqb72dcfJsHzq+b1RgdqeZbkM1cb/k7ooxin91d+QvBRGUyDtAxZvmTetJo3p2Zfab5KZ+c5IjKGtKRvzjB9GnREfkjWI5PNNDlSWiUf+LVUGKlIqVWlNbghck7YdcTvywQsla78WBCp2deJzKvTLZdQXurZq0THpFPL/JvA70oP1h7SbJiFFpDw+fxNovOgn5FwtZnlUpAnEPQVYf08Zkqx3h2mjXBoNWTIEHW57AgtPLT3zz//vHjzzTcFFBz1ED6S3/72t8WFF14oi/nXv/4loMlvdUpMOU0KgdUN1kLSOV+hkJaD6kKyh4RHq6IyugWtT59zA425M8bMHgbf8GFRJAh3KdLyS38RKpKWiaRfuVPENt1bJPb9QZliLzWL2ue8u1Vq47hkjswD5WkHKWj0wbal75BiMvn8daYSoIsUiCES7ijCud0vnCHLT+x8nCuvgVPk5JOXmmUiA3yrREdPohnCn8j81f4BDwjm6PsWSvWRkuANS5TTiRNPQDrwGvhE6Tz8d6Ywm3rmn+baXVkWKaKTT5XMfQeRgsuuoEm9cCvVwT0yufwr4t+xx7dFlPi0TlAGpx66UGSXztOjRXbREyI55xrRudvJZTxF1seTl4vMgocseTJvPSqi628rSA1sGYCoRHAa2UfPbrGooTEH+FlkxFai46Cf+hrgqPLcjkqYU4oP9e1U6XWliIpzOjbSakRZ0cFCAwrj+++/X/oQQbyXYmSTTTaRjgW/+OILqUyZPHmyqyNWp3dyioPPEvgYwVIazHDCom6fffZxShpoHIRHkFN9QDECgiyj5BoZYfurZvmiLavrKfhkZNho0xda/ouPRIQUI5n5j5S+81Os33kU1vfoHySfCXePEF0OipHcR/PKeRH1IfhU6zqC+rxPX0im3EL3jJHyWPfT5sSzs4uhyKWBPVkNdkw7h1i8VTSthmcnn/qLLEv95VeSfFPkR/p7Jx//k8QC79Z9/DUqOR2deblYTPLI3NtFdOwUssY7g9KVlM6qLMxIF1I9JGeSUqlIUvZ5/gayvPyNo+Jdpav1mCNlBp4LlKBBWGyX8gFdkqyKYHUJGrSJ8a7qmSPrkswCJTj59FKUeYesrKlKErueJGLbH6aizaNTHQqP724hS5ZNd/+U2uu7ZhkIGDz8OtG512kiukX9/bkd+CrkRPBGEOTNddddVypGoISGHLnbbrvJa05/e+65p4ACBUqMu+++WxxzjPtklVN+exz8kZxxxhnilFNOkUrwO+64oyGKEXVfWHlEPtpandZ1hIK6Wis+8M2OHb9mWmrCQqT7+KupY6dEes6N5vN0Tj7dJjc68wSvcQ0Kq4ZvIb0fWTP1xN/KxnzZxbNpx56bRXzLr4j4nv9re3aUXB21Qz+q7o2qSx2uLrl7agAJggDhR3kBQaJj0rdkHqUckScB/sEkMfMBacCJpHZ69K4itnVJ6M4seCTAu3kXVfez0GBDKUVwp1CsU95QOhXTBormUyAOvwrWFtgNpO/OH1mUIvDxoKjQ+5novfW7tFPIChXleUw+eqlVKRJJkLRDvyIlZ9FghfxKmEQf5J57yTGprhQh6xhF0OD2Tv8JPZ/xIVHxQR6V0z/spADrjKlTp5rFP/nkk2bYKXDSSSeZTqvc1n465fOKg7NWeCkHwWyyXUjNpFbzvJER483kvXecLjCjaaWQFFoHnXCj6Prm5UabLiaAcJaccbGpFJF+SbS2k3lnpoBAqBN2e9CVIrKtk9JREXhR+nGrYK2u4YiBuLKMkP0rZuS1t3v5LFrG1As3ivTMK7SYUjAL5YnDUjgMFrJvziwl9BPS3iVNAzY7YeBkkpbWjKOAE08QGq75Lz8SqCvzmeHY0M6DFP+xxxdvZCpFbNeTz/xDzrCUnqcgem//vkUpovMnKDDAU7Kv25TDs66xKEVkfdAsEAgKFovio3gzKGhhnWRew7NpGEGh1Psv/0pKu7KjeBt50NdGQzmiz6TZB+HSj4+eWQtXKxhqWT2D2DEBAjxor71otptm/pXTVViCwJLNjbArApS7ICwHvPnmm92SVhV/2GGlAVqz+KKqQ6XA0h84vPam+mnzw5q1Slhagdb/CFAcol/LPqb1eXyHe+4kJTN9r+shO8+WZWk8IEfyWt9txFs0qppna+WZxSCOfoVoSRYxr9kCTrxc5+dyMP/Q7225jFMMlKRShO4FJ9gm5VKi7+HfmqdBBuJbTzOLS7+p8fdibOHLT0ylCBz22nczyi0ny72iUkTnrciOTQuy86wWhvY69PPdTT70O6tSBHy1WE+ShxPfzb09y3wPr4Dqk05pWp2v4pl1v03grXAsraxElDLa6d0QhyWEalcaKDHAp+uloUOHSusTlAOFC3h20KSUw/hewfo/iJ9XO/B6/tiOR1PfHCaTgK9l595LCoyriO3RBB1RZPg4mlCaKMPqz84T5JjGa1xDGavmW+pmxaOTrJl59QGLUgR9T+dN6fkPiOTjl9lKcj71wq8d+pHzWwUTa1XL11Gmavh+fRfgVlCOdJHpT99/LpSWI5VmXqp9vBw5WFVCbmyjnaUWDaaKmDXI09ITaNBhJh8mU+lGUyDPQh+TzgPPlWanaoeO+F4nC/x6//VjMh99W77GoBNvsczQeL1basb/mQMc6eX+sN/IWfs8LYHpe/hCaVoGhpF5eTppIk/yKoo+rovlDIBK1Ln/2WTaaWi/MzRIS5GFECj17D/lNqxQ2sDEXaR7ZDw+yl3HXWnMyJI5b+8959JM9Mfy+dJzbhWJyafKdEH+YQnNZ599JovcpzgDCasPKCYwM4kPFcwN3QhbTh511FECHyk403riiSekmbdber/xI0eOFFjPj7Wg7ULV9H31TompNOjFIJsUf/hI9T1CAicJ5NIb+PgpIrLxdpS0NDOn8kHRmHy6ZJUQ34o05dQPkBbmuvjwou9Dk44Bb0iaSpPW/6VbVRHFWeCvyjx5cgzde//P5TUoVOLJUx1NkpGgY49TRWSLfU2rEku7J2EvQbNf0n8ROUFOv3y3OZuXppnX2KQTzHzyZsW/xC7/I2I7HE5tvUBryi+gmZCX5JX0q/d4bi2ul4FwZL2tRP7j1+RHPkcKAMzU6dYvmTdKQm5ssykW5YEqy8IT1h5LSx1p5wva6Qomocm7z5a8E+b7mVful7OJXccSDyFafcVRxqCqbAZWlVw64mPeddB5VL/b03KVL4l/nSHrHynwHYjvdpxMnHmZzFtJOSuJ+F/XYb8lU3UakNIALfXUFebzJ2dfJQbBZxQEBbIwybx2v5GH/uNbHVJsG5SNlhP23nOObG9mgmIgs3CmGRVea7To/OrFJLtHZZ6eu38s2xOeRTe/NTNUGYCACIVH5yHny5z6wFsP+/FtoWZ3qnwEz+TgY4oUX8Tyldtuu01GQ5n8v/9LM1MuBDNv7HgA536w8oB5thLoXbJUjNZ9OH300UcV0weVQC2hsZcXI2ssKFJh+RqhJcL2JcGoFwiYSnml16u9rGrPs689KPuhzIdB+HD3ZYPVlh3f8VgR3+XrMht4afK+84xBA/GzLJmbR8GnaiA7z45tvj99079j3IeWESprFihecx+8WlxKWD3PHvStu2hZ5UKaUDlLlh3bdC+R2P9MX0/sysspN6zJkjNJaU6KI+zohWV6khfZSpa84/DfSp6JJU6rb/+uwTvo+wY8I+uPt+Wo85SWRYWHbyblv0LPp7QU+kPTTxdKTmtLJ+O0FMiR6JvbdfjvjaVMZFXY98D5tGTxTZk0SUr9QdsiX4hevbbvbu6jl83bdn7l17Ju8W3C7DcUTaAUWYZ20XLxeqjV+SqsQpSj/80220yorch32WUXgaXT8KeEnWTUNuZ2LKCgxm6HP//5z6WFxzXXXCMdp9rTVXu+4YYbmlngGBZLfBpByndFEGVX62PEvCfxy459fmD67tEtgJEmsd+PzKQIWHgCnfsZ1xCTaIismXzkj+azxbY9TPrkw70w2ZwCbyLKLqLJ3D2/RS/SaaatNtDq/aja96k2fbjaDEGnh3VJYifjIwwBI0jCMhNFsW2mqSANNPYxw1lyUtgMCuJZ4uMPMISFcEDVlk7S7OmrxusTs5CmssWlDFjH3DH1ByY06YWPmGG3QGbudPMStpFTShFExkgJFllvG+M6CVjwPwKC4KAo1LVWyUydPvYd035O66Y3po/1WBrgJVWyQI+69h6CvyIVhgBeSQiHWbmy8LjyyivlUhxVTq1H9cGE9r6SZ/Fa79GofEpJ6qd8KCq7j/k/aUKtZpCgKIOwBKdzPVceK9LP3igFMr283KJnSeLrM6Jou0WlFEEEBM/Onf/bTJ5+zbCcKPStpmtbGzMCZLJtDFQMpUt4w21ImBxt5imsWGyG9QDaY5R4iUXZoLX72PgDS06d8VwTv0FteCOjCAjU8x/Vi5Nh9IvYjkeS3En9mgb2CXKUrCi/eqkK+juS4BQZUxQu6X65BSXrLPgfkIpGKgnm4/AjVEY6T6CLnQecZfpQwbr0DnKqqCjzRrlFirpW6Yj6gVIEhO1GY+P3M7PkVy4xw2ltSV7n/j8tDUSIByYmf7uELc3IZhc8LvPl3n5KDl5wAuyNtmEUGV5njJBmssap5R+ODhVF1h0nlSI4l3n2PkOWhdmk/MoPVDLXo7KgdE1AF5TwodKgPeqDZz9KEZU36KOyogNf22KLLWTxWOYHhS0IipNKfAlb+yq6/PLLVbDmIwYFMP0GrVy5suZy/GZUdehmCYeJHSy9A0FBou/YhTCUs0opolsE+b2/TJdJieSDF5Z+95wneq4/USSfKeEZ22wqJS1XHld1n2JitG+lFEEUeGlij1PMotLzSzKVGekzoPPs8OANRGLqadS5wPPCJCvsTmbgB5slpV+5R4aD4NlmoT4Cugxj4eWUF0s9LM/4wm2OJXZCbiFFMgh+X6KktFBU+GyxCgZ6jG9Twi5jk2mxTakk+r7osq/+AHKZj/LvRAOqziMvLFnL0fc4t+RlmVyvQyyP8vPdFSmS3ehbpJ4B/BSEb2jHPt+XciG+vfgmCVLKeJHqk15pWpmvYtdBZZGhLPDwLvtoywKV4sTtHeGgFVbFICyrUf7x3NL7iVfyJtIGYYXidk/4nVTfuXqPbnzZ7d56PGQPczyi2iYliI3fv2yiXOcJvsc1DZI14R9TEXwXGRSS241jGQ0cNEfWIRnls3dUMsdju/cjx5cKMDIaYFk1FwUBI/TiLdKRWVBWI/BXoPaihtmTMfNsPGJ0qwNov/hb5UmaBmDxvUsf/ppfwiNjUM8SHbenx12qv5TTHJRFobSwaRiBWdcxfyHfDtRMEqXlLW53ymuDyRAN8DCg1QmOzhTlyBkYnL8px0eIhwVP7x1niviEw8i/wkQ569H9NX9mYarcao4Q7NXMKAYA8CeCH0gNABCGo6z//u/SQBtxOmEN/qmnnir+/Oc/S6etsB457jhjxltPV00Y5uogDAQwIOjPBOVI51fOk0JRZt79AsK3shKAtVL6lX9J88Gu/yLfD0XFXf7TEuMPJ4ZSW7vJAlG+t/QBUWmRt/OQ0sCepDWaDXhPFD6aT06CybFnT0lJh8FveOTWljJxEiMHrXbS231su8Psl0XXkReROQXVJ5ZyFJ9fT2R36in96UBJQh/sUDajJ/UVjk84xJyFS5NyGIocUFrztxTbYn/HsnSeAAuujIMiR2XM9SxXwaqPYZt/gyg5ek6/fIcsB84hFcEyRRJ4+KgdVLR5jG81jXy7XCnPc+SEOir2I5Pt9y3XzZNiQDqxfjxiWhOq65FROwlYC4Hg4wW7fsRowBEhpVl0/N5VWe6oMisdlRCvLEdU+jWpFMFuBZg1BMERKqw+FI0ZM0YqimFN99prrwn4/nAjLEuEwD9jxgzx6quvyvS6AO6Wzy0eW/rCKTYISppWIFiJwIG8IihIQBBO8c2E8F7rbnqyIOIBWJ7hRhhQwr9TUKRPIKky4QRbPP13yY90vqqu+z0qPoz0Meq3dortcQLFH0AX6ZtXXIYSBM+238frvBIvB39Pv2FMpukKXLNMsmoLDV7HPEUAjueV9QUcljaCoptPFoWibyTwMGVdi9luWGKC4CNJxBNltw91ryOVv5YL9P2BpQ34IKhA30lB/FevQ7/fXciVWLogeTm1597bvi8SE46QDoSBVecRv7HcOoiTVuSreC+lcEYYFnBvvfUWgubEGsJIU8lhNXyCqB3DsIT74osvRtaaScmbKAA+TwYCdZD/uZ5byLJCKUZIxkhMOrns1XWe4HdcEwTfcpI1o+tvQxuY0MQPUQp+g0iRA/4MZSPGsfGyp68volX7UX1vVTl3tHKS5qSA1QgsRrBrDRQl9VJm/sOlIshxY+8tLsIDtOEfzyfhZctS+oBDQT0Ldm4IkgqfLjaLCw1d3wzrAa9dIvR0COd7jcE8wllyxAVnXG6kPKSDgSR2P8Uc3ORXLKIts/4ss4UHr0/ba5Hn7R2OkF7U3cqqNR7CuhK0Ieifc845jkVVUowgE5xiwRkW1r7jOG1aueDnWLhDJBQ2amCimzg6JO1fUSRAxXamWXP6wc9FBstQ5j8oP1wYpPbd9WPDzwi9dR7euIuUX7VUKk/Uuf2YW/WRJQptL/X0VYYTUvVRtKTALXO2GOM0PKxo/aFd1RUqYZohtJOcPUyMskeb52FycGwhKEXgQ6i4xMxyzccJFCuYfYNAnP+cBFrsGEMWWNmFhkUFisC69CztJmOngqZUUEopexp1jqVK8P3jZ7cFlUcdw4Os7xwetqG6ZB7RBpTQEu4YasbrAbW1M+LggBKU+/JjecSfU33IeFKm6bMviMPOEdF3yK9LcSCKowxTfcCfRGzTPQxHhKT0DZKcZr4QB6FkTZBuRQflhxtfhADvpRjBsx9//PECfppgQg4B3q0sP+/5MW1prqhRpt6YSYPFm9yanJxogrAWO0tL7RTZl8zo58rTf2L3E335WlNl+j5SWwyRgjXcvZ6Ib3+k3KnOd14fCUNDN3BIRYp52p1G+gEjyyzpZwSWHlWS3AGsmCe8lmF5pBchHa467A6DNPXwbP0elcIVefmQ0qAxX1Q46GUq3296XHhw+TdBvx5ImHhSDFuRLp4lvxtox7DGxkSjoviEr6ig5Yil5U6k7+qW++JDUjrX/t3tOPAcc0kWFCTJOdcKQT8owDALH9+WZrsddoRzei6/ca3GV7H9+EsvGUtk8Q4XXHCB46tAhoSiQl86aE+Ia4cffri45557pMXILNoAoB56//3SZEKrKJ3reR8/eaGUi46dLLJvG3JRYvuvOioOaxnXqPvXw7ecZE1YaOWWYRJvGYlGNGlIPkXwwyRWeAOyPKbVEEFPoLdaP1LYNvLYMoqRoF8yO/8/pSJp8IN1q26UefW+hipGWulZdAwKxS19EYf1nvVSiIS2QrEQ6eSL1ue7ke6PIkYf7ChtIZd+6U5SqNDWn0WBQw54X7+XZq0foq1cfyGw3CFIquToSt0LDqkWLFhgmpSrePvxtNNOE2edZaxrxva9tRJ2yVEKG+zw0F8JWwimyey3kF4touttQSaW9GEqEj5a8b1Ooe1Yp5HTP1rGQINwwyfQR8aWhbpgXhwoqLz2Y0QbdKdojab0uK8novyRoaPkc+Q/X6Jf8RUOhWPU7vtk2kIua1lm46sAp0R1WgnBIkTtVIA15ti2G8olEJam2R3wqUfQHXkhjJ0v3AizJ9L5s1uCeuNjCbOEQsFZUSUyhgUBEprm6xpfE1QfjlRwiCf+hR0xsEV6ipRyuU9eN5Zr4ftB/ptS9IMD7K4jLnLcstPxPhUi7Y5WVXK1pMbLQZpKG+QRSlm1lWSlcrEmHmbhsJhzo8GDB4tvfvObAlvswl+SX57rVN6ttxpWnrjWCL6olBpO91aWILgGCxFdGeKUPrA4Wq4gfYbVUqBbn/EqK5dxvqr3I533Oqd2jNWXH2IXCL/UCJ7tdu9KvFxXmFvex63AJsbHtjvcUIzQPdNkedlBihE1u4yBU9kOZerZyG+II9EWxYpCUVLUg/S6r+K7iyVZXcdfK7Ika2feftKUx/FNwrJZ/OITjxfxHY4y7lPnf6vxVbwOlr34JSinv/a1r3kmP/bYY+V26JAVsX3v6NGjPdO7XcQkHJb4gLABQVivY7dMAcVDgYclh3p9qe3RB506PaC7uBcTpuX7ikJdw1TQcqx1XNMIvoVJqK5v/IO26n1CwD1DliaS5QQVKUnglw6/yMInROe0c0kgql55bXlxOtHrRb+2puQT/RkaGXYfuTbyrg0uG34rMKiWVJxhcbqlGihkaGawA97WG8AQWulZ7BiE19rIjMpry2pKkTnRR2uaJZGAJjubx2xpqGtdc/CV2PvbvpRNcJRYIKeOgj6QiUkniUTiNLmkIruYtlx9+U454w3NaPLJvxJD+Lv5aPUGsCUvtkYDwSrj3HOJkdgIgvyvfvUrGYvZUbXW3pbMPIXZ+R577CGeeeYZMWfOHDO+msDrr78uP3Iqj9e2mCpN2x5J8IJABMqRQgzrzHULAMTDYik6cntyxmd8uOVM2LCRZAmwIS5Lgu+d+O7Hq1PXIxwKK6UIBv2dtCtWZNNJ5vKc1IzLqL3VoBjR2n2BlD0hEkh1yr5BW2i+8bAIx7poOcaUQLYl1Mt3CsMiRClGMgseJV8+RX5IibE8xI10nhAhfypdx/zRLWnD40Mdg42POykmoCyF4z/7Np7SeXPxSSLDx8iQPtOShbPDogNo84HJN43i/WYcAmRZk+/7XEZ1HvxzeYTVSu7tZ0TylTvkjDmcG6ZpC1dlqi4TOfz52ZnNLnRg+QxILavxK3z4uZcs2MffG2+QoErWc6ADDjhAzkras2H5IZYLwgrkueeek9Zy9jT6Obb6ve+++6RfkAcffFC/5DuMfGpWFA6vvba09F2oLaFSQsFBINbC23GFQgQKEvzclvxKSxMq157XdqvGnWrCMJyDCm0LVCzpVRZYbg+QpyWFkY0mWC7LHeGUjy8aDNdKOs/OLqeltOP2sBSFZR+pGZfSjnvdIjxiLMkDJ5IT1cbwbMuNtRNdhnHi5flli8zU8JPSSgTlAywwwNsg08ZJwSuKfrgio3Z2HSjl5DcPU1pkGaRRdukC8yxM31yQXod+v7uFXJosQD+TzxUdP9XYTpgmOnL0fHJwBysXovSc60WMloF6Kdv99KtW5Kt4P30ZzSWXXOKoUP7BD34glc1+FCOJREI6wIYlHibv5s2bh9tURcuXLxe/+93vzDzf+MY3zHAzAtX4o2vG8zjdQ+cJfsc1DeFbkINIHkH/ln7Pjr5IPi6sUjK00UjmtXskf4csnXv/Fcelx+r92rkfqXdo5LEtFCOq8+hWBl6gZOY9YF6GY7IEOXhyot7bzpADb2jccotml32onfJUG9esZ9E/JvnVn8kBZaVnDa87Rm71JGfjyeTe7mU9M5dmTWmLSpDc3spDKYI00k8AaTBB6edvtc6qUafuu/OnIvfF+3Kr4Y5Jp0gz4NTTV5qmbFg20wFNJy2pkGv6yev/6mu/Ljs7nEY6DYzkzWr4mz17thTskRUDAKcdExAHk0WYNULZAWeCals1t1ti+17MpGLQUIlgVokdcTDrih1tFi1aJNfhq3wwlXR6LnW93Y8hEuSgoED7A0Eo7jz69xTSBDRYimhKuwg5BQZFR+1oLp9JL3hQxHYlJ6eahVIK27W+8RC1tYSIjZ0isKMS/NooipH5bnTrA9WpKOQyNLv2jHleTUBv96lnrxOdR+EdDJJe/Gf9kzQ/KUGqV1KK7KsuNfaInQrIMgRL07BkRPnOAN7R8ZNd723hCSsXazv6GFly771k7BwUjYnIkA0t7xoKRckhZ5oqkgZgARGcieXpOTCgy9JWy1hmpQgCd/r1Eq+PbGAopCK0lEhRlq4ndv4vMpEtznjShfScW9Rly7GHlmop3zYde35Htg9pbku7cHSuQ7un/fuXMn3ug5I5tKUA2wkG2G7LYZyEd5UWChK/yhGUEyTpy2gOPvhgR/6DZYJQjIBgAYJlhF4Enontey+88EKvZOa1mTNnyjAUNPB3gp0adAfYp59+ekU+bBbmMwBrEZC9XvTssBKBQsRrya+qQz1fM8PhQeuat8sunW9Zc57VHDGbiWyBFDk7jm5/BA1OS1ZAqWeuMVOhz9dKOs+G4+b4xK9brOuwnXl+xbuyeDWTWzPPLm6jjsLyWErok7x4OYpIz77OLClM369WIziPTL9yp/ymyh3eig8Ym3Co+6OS0gvbnVu+h7TFb+7DuWae0AZbyLBeh36/u/l3XxB9jxmDOPjZGnT89aRhIWtEUsDh13Pr90hx/4EsHwO66OhdzPs6BdqRr0LOg3wH2mGHHVx3fdl7772lxR6cS7/zzjvSx5MTBipu6tSpcum2zh/VNfsR5YG3wlcTFCLvvfeenMBTsiosTqZMmWLP1tBzKP/tPpiaYSlSzUvpPMHvuKZmvuXxYAVyjC99ohTTdB37d+koFkqSBP1CkIfIohWUpSXBTj7ZilnloR37kf78jQyHG1l4EGVjhljN5PjRcuGe6bdnmLeO0dpFN4pteYB5Sd/SDH4vFKVeuFVusabORSQug4XkF/Jjos/Emmm0QL3PohXlGYxqTiGT5JQn+9pDIvfOs3LA55YRypT45iUMemh7u8zL90ptY5K28U29eLOZNbb5PmbYDZ/YjrQUojhjhVm1vn//RpqlY3/6vrvOJkeXC6nHJkU+9SV12h1leXFtt6DskjkC98VWfdhuL/0cfUBpQCSJHCPpA1/zYWoM6Np7fIzcSHkOh/JCmRu6pUU8nAsec8wxXknMa9OnTxeXXnqp+Nvf/ibXimI9v6IjjzxSmqCr8/54RH0mti9hBWfJPdedSMLn9UJu7/zIn0TPDSeWfEHAsV1xDTp4gTljR7NifeRDKPfuHNl2ko9dSvlJe07KCGjXo5vuKuGLrD3KhDH3Ic38UjvDenlo4dE+0TYVZcnXEban9UOWdk9bHPZNp6303ntB9sG+206Xz4Fy5NKUzXb3U2QgaZwcKcY23sWzH5XxhLvPIj73sOSB6edvEb3/ucB4n9RqEV7fUESoh42MMIRnaeH18O/J3PMp4iUvq8s1HRO7Hm/mS714k0g9ebnkKdk3Z4rem75t1hmcUKqldpExE+XMKTLiWXpuOVVk3yQ/F1TfaBtpWp7nRDqPS826SjqPhrIY75DWdqAIda/rlL0sDlYHbqSsQXDd7mgVg2tlPYLrelqcN4qy2axUAKN8KITd/HgMHTpUbsWLdLBww2xlJcIuCtgG3Q+BJ+KHHb5gKaKEfizZwYzqhAlWiwY/ZQadJr/inbIideVK2cUmRYTXN/ogbgelKLbUhjPiLO2clYJfh0pEfo16b/kO+SN62pAD0I8XPWHmik8sKeJCmt+fDFnEwcrTiyw8m3hz783FfklySt/9vzYnYVCG4l218mzpH4NkBhAmd1KzriZ5aLac/JGRLn9uvBz8PEnWs+ZEES1NUbspuhS1RqKjmrxrWsXRVryVfOglybluava1AtvW49vbczt9t4qyF3hrZPho+T6WOvT73SWLPXz7JNF3o2/6OfLbUPhsici8+oC5Uxquh4dUtsJpN76K98LyaEX7aDvQqDh1VPImznUltbpuP6rte+3xTudz586VfPWyyy4TWJaoTw7uuOOO4rzzznPK1vA4THxjnNeqZOEJPsc1tfItLwywVFgugy4m6rv3Z8Tf7yP+/oHILXyGJr9KE3vOvqKspbdjP7K+QePOWs5ipLB6mVAChr5Ptd+ZMewTL52EEWYwK3TaZ17BGSMzU3NHA1hGkEZOxDtEbPSu5kwfBliZtx4Tg064UWaLkIMbmCrho5F8+m80c72rXJeuytSPQTyLXp5XODZuL5F67mqZBA4Xk8/8Q4Y7p/3SU3MY3+NEMml8Ra75xMy9KkO/Fz6M8d2OM6Pc8EHH7ZjyQ5F8/I8yLXDqBVY26tr3xxJnRGNbYFiKQCkCyi6cIX/yRPuLa9t5atE1BbFPPHyGgMaNGyeGDBniWg406Lfddpu8jo/bxIkTXdOqC1BqPPDAA+aAwc+aTew+gyU9WDt/2GGHuQ5K1D36yzFOW9Ni16PU80b/gmO29Kt3lb8eKdywpaBOHQf9TPTedaYcqMP/SN9/fqtflmFsr6h2l4FQp0yNMWDue+AXlvShzrVNJQwUe+mZl7v2bT1jWbv/5DXR91BJyaXSdh10nqeZsEoX1BHLdiDwKosclIt16JVI5wlQLqEMRcqWBz6E4ruSNZdGuJ/a/ju7eDYNlGbLq/XMAGHHnti4fUVm4WOyrAxZB+GnE9bPd+xHPMUk2tZ1r++SZcvvZAwGCMqhcylJ2BT8VVyMdsPKkINaLJdB+8BuSPjZKbZ9ZQyRB+3NbVYG3zjMlKVeut381uj3UcoRJ8dneroglSawYFOzh7qArt9Phffbbz9zt5pZ5PjvwAMPVJdcd9GCxd0ZZ5xhpvPDF+GjBLvbjB07VmBZ4aBBtS/lMG/sEahklSodw5OTeJAup+BcWYsEWScotxrC0kNsuSsnIShj6lmyVnu2WAImLfBTkw1OBdN1tP/kjIvLrmJ7S32ZTZQGvLJ8SgmFQe7hN0T38dd5OmPWeTaWx5X1Syortu2R5lKkenh2dOOdDJ8b9L6ZeeSrjH5QpnstyfXLy+N7niotW8tAWsMR2FId8pq0sis+S5wcTPqhDFkL4acTFBodk0/To4Reh36+u1ii3jHxxFJbocmD3OMkpxdJfVOwtbofZ//txlfxmkoxAuu5XXbZRb162RHKY+yQCGs5OK3+1re+ZUnjxDORB2WqpeGWDC4neA5YI0PenDx5srn9r0vyuqPd+Kqa+MZ3snPk+XXfpxEFlPEEP+OaBsmaib2+JZL3nSflE1gCp569qsTfiy8PeSi6+ZSKULRjP6r4UgEliAZUTmDFYMmEshBRhXYd+lvzQ6ni3I6YuVAU23RvFXQ+knl1ZN3xxlZq9PHMLpxJ5oQH0PaWB4n45/Qc8PZbNPNXBXTue6boe/ACY+bAS8CgDEE8i7pvxSOZzncdcxnNjNBuG1XsZgAHYp3HXCJSM/8hMouetL4vCUmxbQ6hARApRSBQFckLH+zs0NkxiHb9ILNYqkudwkNGyo+sGqiqa1g+AyETVjv2nSIEWQkkJhxprEtVGeo8dnd3izvvvNNXKfDQbU8LAR8/N4pGo+Laa691vDxp0iSBH1MJAWjkI+tvSUIy+fggxahdcIfXeqw3173kIzeEqK6vXiLST/6NBuS29bU0S9axy3HmVrXybtSGu796qUg++mfqvwvkx0XFR4ZvJjoOOZ8EQxKgX76rdE0mqPzn2e5JGE9MJfP/Kna+Ug6/Cn6csKrZOHpM3aoKYViIZN8zRkZyBwCXZ7Dk8+AJEJQT4w8UMVqapOcBQlFSNHd2DpGzs17Orp3QLGjLoHReg7RYChmhHbmS2M7XtlMPtqDsOOinZYMx+BXpOvQC0fswKcv0PMRPOqeeQQLF9WX8CZZwXV//u0iT1VoGy2X0fPQc2NayYw9aAljB1Ft/P8zK9DrwY/s3Ts+jwuDjXrzc72SBKq/SEUpfO69zywPFCH46XX755fppWXijjTZyLb8STy0rbA1HFFKryuQUKdwTDwmC0O9DBSopVJxpr6LQzsN+LfruI38oZIFnEllPQHZJPvV3+sauNKPtgc4Dz6W+cYOxm5W6CDmA+nxisnWQhmVmHfv8WCRn/sW03FJZ3I7ePLtTdOx6Em0/uX8pex08u2P/M0kZsgUpH2liw9aXSzcoD3nxcvCAzgPOJh8om5VndIkxrSXoup1numQpRet8UQ+XUpSFEiSv9YHvFeXTKPnt8CLsYBbf4RiRpEGWLu9it5oOOL2n76xO3nXo8N2lzLHtDpFO01O0rFT6/9NlZ6rj6Ca7iQRtn+qX2omv4p3gB8Qv3XDDDZakfmTGs88+25JHnUCR7JenqzyNPMI6BANyRQjjO+amOFHpGnbUZCcs73IjL57gOK6pg2+5PQPipRPjYy8jGfZPcok5JnB0glIc/QgKUj/Ubv3IzzsFkSZEXujx+a1IhZ7PPNNgYAthrxolhl4gNIfwTow1krHNp5qX9E5kRnKgIQhIJ1mfvkfr7FeIEDm3lFvqUQevlQqrlpOA9SGkAfq4jhahLnfLDHUP+GQoLH2LdslJidCQ9eQaOipAXfY8hrqHe14fCBcr9VPVz2rtp14YKh7gtU7fK7+6BtPAAm29CnNA6fTN44Ol8hSSq0RhxRJRyPRRno0p7wi65N1u4LQKzunCWD9dRztXz6COlna/zliyUulWl9ruqPMEQf0RCgovAaKxL1ggnyfvS+VZqItmRtcZ7a/eyMeAdPZIzlkxmPNLcAwNZ5RQHofIxDs0yJ+wYS/fvlTGfr2W82r6GPNFGiMGKL9g14TIOiSA0pa8oFaVUeA0NU8ONEPUZ5XzTL9trUA+JvIryR8YfVNl1Jx9xQAACXlJREFUP6vAS/2Wq6ez8GzIBz76ZqN4tv5cetjg5fQtIqvG0IhxFp8oerpWChdWrxA9N58sFSNQ5HQfR1ZDDrT6iqOMNKQY6T7+GpkCy1vyJP9F1tuSrHoTDrmsUZY69PndpZuSRdN7Qny5jOp8XWqfGxG+MWvBPs6Yr/oAqQlJKvFWPIKSO4NUHit5sx6L1Frgsch3Psc1jeJbWAae//QdGlsNE6Fh1I/Iar9a4n5UjlhgFiP1avyUg9Xw4BEtK2iUw9e/YuBfIBTgXvL46EXoVw1hRsW+q0c1+TmtPwRgwt8o08V6eYGcobLNUlV6K+xgEhq5daVklutwWtUIqqXdN+I5gigzaJ5Q3zPRLDr5mIkU/cz4Lous6aLd7ubLbuVAyKjkwMwtrx4PR6pBCh8QLtfkcg393QZaGAI+KDp6YsvLKdja0XWL1goVh0mJCP0aSa3Es93es514OXyEZBY8YrGOSWx3tNurOcZXy19rqUNMWEifJUW/JY4P4iOS+aoPkFokiVIee1lAVvuofqwuqy3TT/paeELjZM11aIzlf7LH6f24H5WjUrs5QHlZMgYDrlpINXIW+GpBj/MwAv4QaMQHSt1Z9WF1DxXPR0ZgoCMA4QMKjXoJZXg5Tau3/IGaXylzK8kvagJnoOLE793CCJCliL5kCMsMo9tOa+EHrv/RmK/Wj2GzSlBLP2HpUS+pMlSZ9ZY30PNzP7K2gMCW0qBYZdqEMBqsEjZw7kYQNJST1WrMg93K4/iBiwCbjFc2GUfrsPdTxPnpq0jnRLoDSe7DTghxHCNgIKD3vWoxqdUMmfmiP76orHqUsG3niTqfa7b5drVthdMPPASw1W1u6XwyZyLnixvvQEugvC0i03PJyXk2LcK0LBG+9dqZmK+uudrzs5RGPZ3isTh347MqrdNRHy/iOvNhJ5Rqj+N+ZGAXqGIERdYKLA+oam/MnNNAgAcA/gYAQKvWfurV1rgPe6HD1xgBAwH0PZCysDJi3f+VlUitlljMF/3xRbUO3r0mjCvM5yohxNcZgeYjwHy1+ZjjjtUoRpA+CNmTeTCQbAxxP6LFfkE5X7VXEYQMP2analamVqHPfl8+H7gI8ACg+o+U337q1qq4/7ohw/GMgDcCqu/BYhKk1l+rJTdqyUy930bmi9XxRSUY2msPvK7eurCXyeeMACMQLALMV4PFs1Jp1SpGVHmqntR5paOSNZGO+XAltOq/rupnIMonDVOM1F8tXAIjUB0CPACobgBQHbqcmhFgBNoRAeaLzBfbsd3yMzMCrYwA81WjdmpVjLRy3fKzNQ+BVuxHgTtfbR6cfCdGgBFgBBgBRoARYAQYAUaAEWAEGAFGgBFgBOpDwL9iJBSq706cmxFoJALcPg10GYdGtjIumxFoLwSYHxj1xTi0V7vlp2UEWhkB5iel2mEsSlhwqDoEWrTt+FaMhEKR6l6YUzMCTUSA26cBNuPQxEbHt2IEWhwB5gdGBTEOLd5Q+fEYgTZCgPlJqbIYixIWHKoOgVZtO74VI4VwtLo35tSMQBMR4PZpgM04NLHR8a0YgRZHgPmBUUGMQ4s3VH48RqCNEGB+UqosxqKEBYeqQ6BV245vxUgowoqR6qqcUzcTAW6fBtqMQzNbHd+LEWhtBJgfGPXDOLR2O+WnYwTaCQHmJ6XaYixKWHCoOgRate34VoyISLy6N+bUjEAzEeD2aaDNODSz1fG9GIHWRoD5gVE/jENrt1N+OkagnRBgflKqLcaihAWHqkOgRduOf8UInKREO6p7aU7NCDQDAbTLFnXi04zXt9yD+6kFDj5hBAYsAswXS1XPfLGEBYcYAUagdgSYr1qxY95qxYPP/CHQwv3Iv2KEXjUUY8WIvxrnVM1EgNulFW3Gw4oHnzECAxEB5gPWWmc8rHjwGSPACFSPAPORcswYk3JMOMYbgVZuM1UpRkQ4QsqRTu+35auMQBMRkO2R2iWThgD3Uw0MDjICAw8B5osOdc580QEUjmIEGAG/CDBfdUGKeasLMBzthECr96PqFCN4w3iXCPEONU51zXFNRkC2Q2qPTA4IcD91AIWjGIH+jwDzRY86Zr7oAQ5fYgQYATcEmK+6IVOMZ95aASC+DATaoR9VrxjBmyUGsU8H4MC05hDAuka0QyZ3BLifumPDVxiB/ogA88XKtcp8sTJGnIIRYARKCDBfLWHhFWLe6oUOX2uTflSbYgRmU4khrBzhZr5mEKDOJdsftUMmDwS4n3qAw5cYgX6GAPNFfxXKfNEfTpyKEWAE5DiH5U2fDYF5q0+gBmCyNpJPQgWimqsonxMitVoU8tmai+CMjEA1CEgzLGilWSniHzbup/6x4pSMQBsiwHyxhkpjvlgDaJyFERg4CDBfrbGumbfWCFz/zNZu/ag+xYiqw3SvKGT61BkfGYGGICAd9rBPkdqx5X5aO3ackxFoUQSYL9ZZMcwX6wSQszMC/Q8B5qsB1Cnz1gBAbO8i2rEfBaMYQb2RhrCQSQqRpR8TIxAkArTftdzaia1E6keV+2n9GHIJjEArIMB8MbhaYL4YHJZcEiPQzggwXw229pi3Botnu5TWxv0oOMWIqiyszMmlRSGXFSFaYlMo0HKbOlbrqGL5OEAQwDq0UEQUaOejUCQqRCTOvmwaUfXcTxuBKpfJCDQGAeaLjcHVXirzRTsifM4I9F8EmK82r26ZtzYP62bfqZ/1o+AVI82uEL4fI8AIMAKMACPACDACjAAjwAgwAowAI8AIMAI1IlDbrjQ13oyzMQKMACPACDACjAAjwAgwAowAI8AIMAKMACPQSgiwYqSVaoOfhRFgBBgBRoARYAQYAUaAEWAEGAFGgBFgBJqKACtGmgo334wRYAQYAUaAEWAEGAFGgBFgBBgBRoARYARaCQFWjLRSbfCzMAKMACPACDACjAAjwAgwAowAI8AIMAKMQFMRYMVIU+HmmzECjAAjwAgwAowAI8AIMAKMACPACDACjEArIcCKkVaqDX4WRoARYAQYAUaAEWAEGAFGgBFgBBgBRoARaCoCrBhpKtx8M0aAEWAEGAFGgBFgBBgBRoARYAQYAUaAEWglBFgx0kq1wc/CCDACjAAjwAgwAowAI8AIMAKMACPACDACTUUgnM1mRT6fb+pN+WaMACPACDACjAAjwAgwAowAI8AIMAKMACPACLQCAtEvvviiFZ6Dn4ERYAQYAUaAEWAEGAFGgBFgBBgBRoARYAQYgaYj8P8BHxKv86qZ72IAAAAASUVORK5CYII=;" vertex="1" parent="1">
          <mxGeometry x="10" y="-1330" width="800" height="58.5" as="geometry" />
        </mxCell>
        <mxCell id="fS1rTZaI_TZCwyPRugsw-14" style="edgeStyle=orthogonalEdgeStyle;rounded=0;orthogonalLoop=1;jettySize=auto;html=1;entryX=0.898;entryY=-0.017;entryDx=0;entryDy=0;entryPerimeter=0;strokeWidth=7;" edge="1" parent="1" source="WAZFhBSZ8dUsOadZfPS--26" target="fS1rTZaI_TZCwyPRugsw-12">
          <mxGeometry relative="1" as="geometry" />
        </mxCell>
        <mxCell id="fS1rTZaI_TZCwyPRugsw-16" value="" style="shape=image;verticalLabelPosition=bottom;labelBackgroundColor=default;verticalAlign=top;aspect=fixed;imageAspect=0;image=data:image/png,iVBORw0KGgoAAAANSUhEUgAAA2IAAAHiCAYAAACKgH9jAAAABGdBTUEAALGPC/xhBQAAACBjSFJNAAB6JgAAgIQAAPoAAACA6AAAdTAAAOpgAAA6mAAAF3CculE8AAAAomVYSWZNTQAqAAAACAAFARIAAwAAAAEAAQAAARoABQAAAAEAAABKARsABQAAAAEAAABSASgAAwAAAAEAAgAAh2kABAAAAAEAAABaAAAAAAAAAJAAAAABAAAAkAAAAAEABJKGAAcAAAASAAAAkKABAAMAAAABAAEAAKACAAQAAAABAAADYqADAAQAAAABAAAB4gAAAABBU0NJSQAAAFNjcmVlbnNob3Ru6gYXAAAACXBIWXMAABYlAAAWJQFJUiTwAAADCWlUWHRYTUw6Y29tLmFkb2JlLnhtcAAAAAAAPHg6eG1wbWV0YSB4bWxuczp4PSJhZG9iZTpuczptZXRhLyIgeDp4bXB0az0iWE1QIENvcmUgNi4wLjAiPgogICA8cmRmOlJERiB4bWxuczpyZGY9Imh0dHA6Ly93d3cudzMub3JnLzE5OTkvMDIvMjItcmRmLXN5bnRheC1ucyMiPgogICAgICA8cmRmOkRlc2NyaXB0aW9uIHJkZjphYm91dD0iIgogICAgICAgICAgICB4bWxuczp0aWZmPSJodHRwOi8vbnMuYWRvYmUuY29tL3RpZmYvMS4wLyIKICAgICAgICAgICAgeG1sbnM6ZXhpZj0iaHR0cDovL25zLmFkb2JlLmNvbS9leGlmLzEuMC8iPgogICAgICAgICA8dGlmZjpSZXNvbHV0aW9uVW5pdD4yPC90aWZmOlJlc29sdXRpb25Vbml0PgogICAgICAgICA8dGlmZjpYUmVzb2x1dGlvbj4xNDQvMTwvdGlmZjpYUmVzb2x1dGlvbj4KICAgICAgICAgPHRpZmY6WVJlc29sdXRpb24+MTQ0LzE8L3RpZmY6WVJlc29sdXRpb24+CiAgICAgICAgIDx0aWZmOk9yaWVudGF0aW9uPjE8L3RpZmY6T3JpZW50YXRpb24+CiAgICAgICAgIDxleGlmOlBpeGVsWERpbWVuc2lvbj44NjY8L2V4aWY6UGl4ZWxYRGltZW5zaW9uPgogICAgICAgICA8ZXhpZjpDb2xvclNwYWNlPjE8L2V4aWY6Q29sb3JTcGFjZT4KICAgICAgICAgPGV4aWY6VXNlckNvbW1lbnQ+U2NyZWVuc2hvdDwvZXhpZjpVc2VyQ29tbWVudD4KICAgICAgICAgPGV4aWY6UGl4ZWxZRGltZW5zaW9uPjQ4MjwvZXhpZjpQaXhlbFlEaW1lbnNpb24+CiAgICAgIDwvcmRmOkRlc2NyaXB0aW9uPgogICA8L3JkZjpSREY+CjwveDp4bXBtZXRhPgpqIoYdAABAAElEQVR4AeydCbhUxZn+v252BC5w2fdVQUDADQVBcAMV9w33GJf/JNHETCZmmZhMkllMJpM4M2YZTVwi7rugoqjgjqLsIMh6AVlluexw4d5/vaet7urTp7tP9+3us/Rbz3Ppc+rUqVP1q2qtt7+vvhOpU2nb9m2CVNm20vrkPyRAAiRAAiRAAiRAAiRAAiRAAoUh4KS3ooWpmrWQAAmQAAmQAAmQAAmQAAmQAAm4JUAh5pYUy5EACZAACZAACZAACZAACZBAgQhQiBUIJKshARIgARIgARIgARIgARIgAbcEGrotyHIkEAQCK6oXpzRzxc5FKXlOGf1aD07J7lcxKCWPGSRAAiRAAiRAAiRAAiRQXwIUYvUlyPtLRgAiyxRVK6pjAmvpznmFaUNV5moGtB4WL9CvYrCYwo2CLY6GByRAAiRAAiRAAiRAAi4IRBg10QUlFikpAVNwQWwVTGgVuRdaqJkijQKtyNBZPQmQAAmQAAmQAAkEgIBT1EQKsQAMXNibOK3qKQmS4Mp1PCDQtDijMMuVHsuTAAmQAAmQAAmQQPAJUIgFfwxD1QMIsKlVk0PVJzed0ZazCT0nWcUpztxQYxkSIAESIAESIAESCC4BJyHGPWLBHc9At7xcRRgGTbta6k9TmFGUBXpas/EkQAIkQAIkQAIk4JoAhZhrVCxYSALlaAlLx08LMv0JYUZrWTpazCcBEiABEiABEiCBcBCgEAvHOAaqF04h5gPVgSI3FoLMFGV4HIQZrWVFBs/qSYAESIAESIAESKCEBCjESgibj4oRmFb1JFG4JKAFGT7pwugSGouRAAmQAAmQAAmQQAAIUIgFYJB81cRlr8aa89Xy2Ge7/iKV6g+fTEUlYBdltJIVFTcrJwESIAESIAESIIGiEqAQKyreEFUOAfb5lNQObV0ayxt4gcgx56Ved8hBKHctKhwuM8sFAfDTDPWeMrouugDHIiRAAiRAAiRAAiTgEwIUYj4ZCF82Q1u/nASYvcG6jEsxZr+d5/kT0KKMgix/hryTBEiABEiABEiABEpNgEKs1MSD8DwIMLgeamuX2zZDjLkQYv1aDxapclspy7kloAUZyk/seZ2AM61kbumxHAmQAAmQAAmQAAmUlgCFWGl5+/tp6dwPc2k16sgixigOcgGaX1nr9QBK7NJKlh8/3kUCJEACJEACJEACxSZAIVZswkGovxACTPcTlrRj9En6T1hs+C6x9HwKdUVbySjICkWU9ZAACZAACZAACZBAYQhQiBWGY/BqgfhC0nu7Ymf1/zdXd8b6P5E1uCBAQeYCEouQAAmQAAmQAAmQQAkJUIiVELZvHlVIC5hTp9y4J3KfmBO5oudRkBUdMR9AAiRAAiRAAiRAAq4IUIi5whSSQsUWYBqTC/dE7hPTsLz5pCDzhjufSgIkQAIkQAIkQAKaQFQf8DPEBCDAXvxW4d0Q0yFz6Z6IfWJM3hKAILt3/o9lWtVT3jaETycBEiABEiABEiCBMiNAIRbmAYdlqlRWMDtHPJcpMAQQOOX2dy+QFdWLA9NmNpQESIAESIAESIAEgkyAQizIo5ep7RBC7/++dFYwe1sgArOkCT2vylKCl0tNANax+xbcTUFWavB8HgmQAAmQAAmQQNkR4B6xsA25VxYwO0eX7on223juPQFz/9jtx/3a+waxBSRAAiRAAiRAAiQQQgK0iIVlUCHASrkPzA03F+6J3CfmBqQ3ZSDI6K7oDXs+lQRIgARIgARIIPwEaBELwxj7xQoWBpbsQwoBuCvihdC0jqWgYQYJFIXA+rUitbXOVUfVz6fdejhfYy4JkAAJkECwCETqVNq2fZvV6sq2lcFqfbm3FvuwsA/Mz+niP2dtHawuTMEgAAsm9/YFY6zYymASqFop8o83p1FhX3fp93+LSs++wewfW00CJEAC5UrASW/RIhbU2RAEEQa2sNYdc15QKbPdNgKIrriiehGtYzYuPCWBQhGAwLr6lqgcOuBcY+OmUnQRduSICP4aN3ZuQ7bcA/tFmqh2RiLZSvJ6vgRqakRgHW3QIN8aUu87fFiNmcpuwJVhKhzmkECRCPDrViSwRa/Wxf6rorehQA+AlQULfKZgENB7x+4ceo/wxdzBGDO2MlgELjdesYjFMVLDIv/fevcukecfE1kyv05WLK2znlnRWuT4EVE5/3KR3v2trLT/fPKByLQX6mT+p7F7UfCEU6Ny5Y0i/Qakva3gFx79P5FtW5SgUALl5jtEWrQs+CPyrvCIGsv//Y/Y7T2U4L70mtyqWrtGbQV/QmT54jrZsD7GuWPniIw5OyLnXCSSj1PT0oUiLz8jsuLzWtm2Ndae7j0j0mdARCaoOo8+Nrc2+qX0jGki82fHWnPeZcHth194sh3FI0DXxOKxLW7NCMwRlJTFPREvE6YQC8pgJreTrorJPHhGAvUlcOigyIZ1Ils3i+ypjlmmUCcsHy0qRNp3FOnSXVmrmtT3SYn7P5sl8odf1cn+fQkRlbgaO7rr11EZMdqeGzvHQv6RP6Z3pxwxJio/+EVhrTfOLRG547qESPmfR6PSVbHySzp0SFk7z4lxGjQ8Kr/6g/uWPft3kSceTM8Yovlf74tKl27u6qxTQ/3n34m89Ur6OlHT+Iuicsv3YtY3dzX7o9SD/yvyynOxvn37rqicScccfwxMmbfCyTVRGbaZSKDIBLJY77jnqMj8i1g9BDTfO1ZEwKy6rAisWSHy7puwTohUb0+IMECAqyDycA1lULYQ6Usl+v79x7VJImzg4KgMOynZr/C3d9cKrCf29MaUZBHWrHlEBg6NCj51+vjdWkE5pvwIvP9WsggD26EnKs5qnHSq3inys9trZbf6dJNeeT5VhHXpllwn6nn9pVp55M9uamQZEiCBfAgU2dkhnybxnnIkQPfE4I66fu8YrWPBHUO23HsCC+eIbP7SZTvUD/0QZHAnHHK8y3vSFINVRCe4uf3zPRHp2hM5EdlVHZHf/lzk8/kxy8Lbyt1rwBBdWmTnDpH/+6/YNeRec2vUcrfD3rC6uojMfD0i990Tu/7Y/XUycmxEYLkpZvrN/0Xk0KGYCGzZqphPKk3de/coa+WvE4xPPi0q3/lRwuVy7aqo/PT2mDUTYmyucscbc3b2tr36bML6Oe7cqFx9s0hlu9h9e3ZH5e9/SQi1qc/UCsr06pO9Xr+UuPY25fp5XUyoNmvul1axHSSQSoBCLJUJcwpN4HP1U2iWgB2wiiEIBBb1hUoIuW6mfhWDzVPrGM90SoVsh1P9YczT7qW0cIZxdNmnYhJY+JkSYRucn/Dik7EF88WTEhYmXdISburykBN0Tm6fEFJaZOHOf/qVFmGxelpVqH1Wt6v8W2Pnn36gBMEPE1aYj96J5ePfCRdH5bJrE+cQY+MmiBw8GJUNa0WOUqJou9qDpIXY/n0Jq16XHiJ41roqkUVzY25wQ08U6dw1UR/c+pYvUXvYFoq0biPSX+1dchIG4IhgIUhHDUy4Q65WQYaR30gFIMGetQMqGMpyJWaXLY65eQ46TqTP0ekDjODexep/T5s3KQGsBE+HziI9eov0PSb2rGL9Cx46gd0dPxVpbgiLHkocXXtLRP76P7F5skAJ+mxCbM9u1Y+NCSF2y3dFmjbTT4mJvP/3jyKbNkRl8dyYCPzwbWfesNSuXyNStUpk43rFvIXIYDUfeyo2mYK1bPtKsVf/+92ieB5WY9tZuZBiXDoqrukSXunw+QL1HPWDBeZSS8UDr3I4Vo2dPcDIzu2xMqgL86uJgytvSttbqb2QfVV9Q53bHtQ5lI4n8/1BgELMH+OQeysGXqD+izQl9/u8ugNRHtv1z/h0vKcKbm5uRBBElhZW/VoPrkfQiKsytgkXV1Sr/1Pjc+ciSyxaJ+ofN+3UZcvlE2KMURXLZbTZz0IQgIthOhGG+jd+qRfMStk4JNzbUomYXv0cLmbJWrksUaBvfxWgweE/0WbkRFhcsBhGtD6kGa/otolccGUsD/9i/5FehCPgg1P6QomqX/2Tqkyl238clQ9m1sncWYn6kA/rz12/FkE7f/QPsbLI1+nyG5Ul5yZ9Fvv8y38lgo3c/0xUKtsn58Pqd9e/ReQH30ytb+S4qGpL6qJ9+lTlfvkn5z10o8+Mys3fU2OgFvHFSOYYnXFeNEmE6ec1MkTGzh1g6DxXdHl7pEVEYDSFGMqhzPgLlficK5abKcSPPX1ZJfLf/1onK5cnjxvKHX1sVAn7hJVN34uAJQ//SeTV51P5owysqhdPSghofR/cYv/4m8T+P52PT8zdO34ake69E7lvvSLy3OTYM77/86icdkbiGo4ytR0umv/wTxEZNCz5Hj23gjaHknvBM78RoBDz24i4bQ8sTEESYi77BTEG4QPRYyaILSQvovTpZ8Y+k4Wbk0grd4GG/kNQT+g5yZPxMucNj0nAzwQQmGOFIYac2upmgb9yaX4BPE44RS1WZ6pQ+aodTi+QhqB65u+JVmHBq0XYDmVx0AtwLLqbHyXytCq7QFn3YGXDYrWviryHBXC6IB+65r8pa45ToJBP3q+V5x6LytuG4NP34PPZR2pl0HFROU5ZYNwmWIL+/UepwgH3fzgD7Y7Kdbclapv1rshffucsGlDqvbdqrT7/6YloiphJ1JL/0TW3qAAfN0fl4AElgJU4sqd9+1S0y8mJ/vTsnVmE4X646mEfn7aGIlDLrd+PJFkgUW7kWPxF46IaeTpBSP/k2+m5fLGkVn6o2v77h6KWBVPfh/1m6UQYyjz+QK0S3kqA/0rfEbOA/asaM6c5glKYh3feVCe/+UvUVYTObG1HRMqf31knv/gv57kVtDmUIMkjPxKgEPPjqLhtU5CsYlmsYWaXIXi0+DHz/Xis22mKNC3OplU9aTW5HIUZ+ow/hrj346xlm/xCANERJf1a1nUzIZhQVz5WMTzEKQIjXAf/9J8xcaIbct4ViUX+rh06V7kVKlfBX36/TtasSggCLFbx9+EMtZhXlqY7f5Zq5dA1YIGN4BMQA23biUx5KhGc4om/xgDd8t2onD5BZN8ekf/8ecLq9doLkpMQwzMRph31jTkn1oJnH1Uh3J+KPeeFx2vlCmVp065sr6r6dTpT7ZO66JqYa+T8TxWf3yb2Zs14XeTci3XJwn7Cumi3WOEJsFL95qcxzvqJZ56vjzJ/XnWjyL8o90MkvHLg9mvrBNEtIZyx7xA/AGirZqxU4l+I9r/+ITHWiAB507dFuvZQ7qVr1L7B38WsZLCgPqfY3vzd2L0Q/DqSIXJuuiMqo8apQDTKSvaeCkgy+f9iY4DgLmtWJfakvf+2xEVYPyXub/5uxHqXHgTVo8pSqX8QeOEJ5Tn7y9iz0v1rb3uvPhG57QcRKxLpJsUT0RYhIpHuVXvz/k9ZVRs1Sq0taHMotQfM8QuBqF8awnbkQQBWMYgxv6f2yvG7jJIWkrDu4Q9iBH9wp7TvWws7lnvn/1jwegImEiCBVAIIUV+oVMi61q5S1o5vQUTFFqRo49kXKCF0dqK12F+mE/aOaRGGd4chsAMsYjqhnqce0mfOn9//ecwiAwF02fXYK5S4H/Wde2lsb1S7DljYJ65VrUwIAueaU3MvvDJWH/Yz4Q8WML13DaW3KHdPnfQeKZxf8Q0lNtReJtwDa9EtdybaMeWp3NuBOvNNH7+nRMetdWpfXeK53/2p+/D1EFs//11qdMv/+pda+caFtfLrH9ZZ0Tmxj8qeZn+QsIbi2vfvVnur+scEPfbM/VC5fuoE65eO5Ig9ZDrBZXTiZSJt2qpdC2pML7la7SlU46zTGy/pIxHszdLp/Msj1rvNME+GDBf57t2JZ816p1a2btElnT/NtiP65L/eF5FjBsWEZ/+B6geFPyh3yq/dWSEk8UOCUwrDHHLqF/NKT4AWsdIzL+wTIcaw/2rr0sLWW8jasgTqKOSj/FiXtppBlCGZFrNysJYxiIcfZyXb5AcCeoGaqS2IjOgmuakrWz2wWOCFwU89nBBguGe8CsSBgA6mhQTBEMwESwWCfbRXi2qkw4cjal9VJO6Ghv06F14VdXzBMkLlmy6YeM5xykI2fUpMZMCF0kxmgAxY3bLtiTLvxfGIMck52A81QLk4whKDBLdLvd8IbpfaQvLUg8pN8NbEvicI05NGxiwmTlbF5KcU5mz7NpGH7ku2VKJm7LM7/WsLn9snISDKA88qzq9E5P03EpYl3D9vdp3199LjEbn9J5GkF3qbr06AQIeYMhPmAPb3wbUUCUFYjm2t3oHXKVEKFiW8f+6ciQlr37d/KPKNbytx2Cw5+EaPXqLGJnbvVCV48cJpCD8kBOuY/Kpyn1QaDuLMnKOxEsn/mm1HABx7REWM44WTovLQ/8bavni+OHIN8hxKJsIzrwlQiHk9AmtWqdBR+Fsda0mv3rHQRE7hoNK1FULHr0IMFrsc3BLTdTFM+aYwgygrBxdGirEwzWD2pRAE0u3Lstfd/KjEL/72a+Y5XK4OKiGlXerMa26OEcXu3+9Kdi+ExeB7P4sosZFag91S8o+/SIgwlG6oVhc3flvks48i8Qh92D8GS5I9te+U2scKY3HfpjL5DggntC3dnqHk0qln2uJhXkEkRp3Mvp17CVzVYldmvF4rcEE8TrniDTlJZJgSMnAH1fvm9P3F+kTACvteKezbu/2fIwKxkk+CELnwCvxFlDUpInNmiXwwA0E6YkIEls67vyfyH39WwTB6xp6wfm3iSdOn1CrBnDh3OrKE2FBl0TxK5Mzzo/GXSOMl4I/8UeSU0/HeuphLZKcuqTXAfXGqEowYb7gh/pOyBEKMnTAS71NTQZkHu5/3Ztt7qrFzSubya5NhHTXLBnUOmX3gsT8IUIh5OQ4PP6Bs7iuTW6DPx50lMlb9uUkQOn7bLwZ3RLSrzK1h2YYPosy0lEGUhdVKxoiK2WYDr5cTgTqXnR19RkTqUnWK891uK7Xdjd8Cf/WPtQJXLJ3gJnbjt9JHA4Q7mU6wGjmFHYcYO1Etll95LtYwhCp3Sk5Cxswzj/X9jRtjf5Y+y+3Tqb50gQYRCr5ps6g8+pdExL4FSqQsmCvy2P0xQXjd/4tIuuiQubUsfWnsk/rDr2LiSJe6/h+icsHlydYjfc3NpxacOooiLFmIlIi/ZYujAjdFWK4ggB68NyK/UG57SOY8ieVk/hdWPJ3+4QfK7bRLVF54LBF8Ay6Fs96JlUDEwm/fpV4sfZy+I2ad/I8/RuQhJdqwnw0JLpn4gwUXCa9PwHzNZpncofqjk9O+O1yD66lOu7bjealfwCDOId0nfvqLAIWYV+PhJMLMtsx4M2Yl+8atZm76Yy14vI6kqPes6fakbzGv2AiUgyiDyERERS0+bQh4SgJlQ8Ct5QrvtnKbmjR1WzJRDu/T+vcfJYswp3DfiTtiR5WGEGuq3LnSJby3SycEFQliOvk05YI4KqL2KkVkiXJVg7uadruDSHlABa7YtiUq17r833WuDCCUTRGG/XM/VG6g2j0v1/oQjl9HgjxxVFR+8m+pNWDf1E9/E42H+Yf4xDvhMG/bGNbDy9RLk4efnHq/mdO2feIMAgbvm7vwyogsXRix3gu2CEy/tsAhYuHPvlsnP70nKqZLKlxFf/47WFcj1vvcliwQmfNRYt5Oe7FWViyNyD3KcpfJPdGct7urE+0yj0y32y7K8laI5PUcKkQfWEdxCFCIFYdr5lqziTB9N6xjM5Ugc2sZg/jxSohBgFF86ZGr96cpyhDsQrv21btiH1RAMeaDQWATfEEAL6QtxN4udAZ15ZOe/XssiqC+9z/+FLWCIejzdJ+mRWz5sjo5dCgi5jvH9H0QLjr1UIvpICVYcuCqt3dPzNKCqIgQxhOvEBXyX737bIbIfffErFSvvVCnwswnwvsXqp9wOf2zis6oEyxGv/7fSFJIeH3N7af5omwEWvlyXdQKQmK/v0ev5Jx9e2MugJ27JfLxom3TeqWvbN4Y268F6xJcEpFWqe3seIk2ePbsI5bQQtCQK9W13bui8vQjKrT9czGeM5ULKIQYrHbvTo9Fy9y7L+ZGeca5Ivirq4taL4XW7porlior2WrlpqnqTpfMtuNl2U6usovmJe62M0hccXfkhznkrqUs5RUB9dsEU0kJuBVhulGwjEGMuU3aIuW2fH3L4XkXqxeDUITVl2Ta+yf0vEruGzNFJva8Lm2ZoF3QYixo7WZ7SaCQBHRgi0LUaQojt/VhkYhw7TrBEnb0sfos8ycsIzrKHaxCz6hFtN3iNWNaIhQ4asPiO2jpz/9ZK3//c6389d7Y+8J0++ECZwbHAIN0rpf6nnw+P/lABXhSAkOnu5VVyNzPpvNz+cQYm1Ei7/lJnRUK317H+28lcmCF00E5ThqVyJ/ydG3KvUsXiXz76lr51qRauWFirSW+cMcWJc7u/32tcumsVRa+uiQXRwRrGTc+Ua+2kMFtEu9Je/A+FXnzwVp54clEGVi+BgwRGTRcHXydVq3QR86fZttffwnRPpPLbViPgDWJ78Sxam9bfZPXc6i+7ef9xSVAi1hx+SbXnqsI03dDjCG5sYxpQVRsyxgtYLExKeG/EGT4C4uFTIsxuimWcBLxUb4i0Lm7shJ8UZgmdVF15ZrWrU6+4+1XVcjy6YlFbfLV2NkdP0pY3676hsiM12L5zz9Wq7Y8R2TU2IjAHXHebFxLLGjPuzRqhSl3qtOveW1VkBC830zvS/rt3XVy1sSI9Z6t/co69N7biZYjeEiHTonzQh2tWpZc01//O/ncftZaBTlB9MFMCSLyljtje8BQDu6AeI8Y3vcGF0C45i1Ue7GQr9PY8Yl5gaiVJheE0b/qGxHp2FXtLVMi7PWXEvehnBb3w0fo2mL7zn7xPZHTzlbXB4pyOVTvGHsmcR9eOK3T2HMj6kXPsWt4iffWTVE5XtXVVLniwnoFq55O2d6lZ2/7D75ZK1d/MyrdeomyDKofJtTeNZ3wKoZcXhau7zM//TCHzPbw2H8EKMRKNSb5ijDdPogxhPIxw/noa/bPYokxbW3T9dufy/OSENCCTEdchKAJaqIYC+rIsd2FIICIdb36q+3AymWrPgl12MNwu6mvanVyqZjgSCxEk6/Gzg4eikrLry+07yhy2z9GLSsHsubOqrP+vr4c/0CEu2tvi58G6uCmOyLyHz+GUIgFl5jydJ1MeTq1C5NuKrxbIp6yZmXysz5T+6Iypdj71xKiKV1ZuOS1/ENUfvPPiaAZ1nvjZqTegRc9X35Dcv53VaTGf7kzFjQD1sCH/5Q6bzDud/w00RZYUe/6dVR+e3esDwi28cRfU+/DkxCERCe4hC6ZF7HC6SPvHRW98h3lumhPCJnfUwnJbMlsO8o+oSxt9gSO+kXU9mu5nns9h3JtL8uXlkDiJ4fSPre8nlZfEaZpPaRCNLlNhRZL2gJW6Hrd9oflUgjofWT6ZdEpBQKSocVYQJrLZpJAQQn0GyBiBjPItXLcizrySZuUG1auSUfY0/chwt5/PqAsKWrR7ZSuuVUtvB+IWNYLp+vIa+Dwk7D9Oenutec3apJoR1S5temULj9+vZE+UqH3jWOEbL/nLxEZfxFelpyoW5dG+Hi4dGLfWDHS+jXOQiXds3Lhhhci3/twREafGY2/xNisF2OKvv3gF6kh+uEe+av/icgl1yS/FFrfjyAeeFmydmfU+SNGi/xOzRdY30z3SH0dVqjf/CVquRzqPOwx++k9Ebn6FrjOpi5bUQ+sWj/4l8R7xBoaQWIQvdNMmdoOy+Z5l0Xl9w8pC19n8y6RoM6h5F7wzG8EInUqbYOjuEqVsKEyFZZAoUSYblXvvuqNh7fqs8yfy16tf/AOLcAyP4lXfUAg6C6LA1oPYzRFH8wjNqH0BBCQYL5y5du+NbdnQ4QNPUkJGUNw5FZDYUvvUEsJWHAOHxaBq2QntZB1ElmFfWppa0PAinVr1KJcibXWasmUy7IJgS2uPidmfRmk3kX2q6/DwZe2B+mfhpeHf7lWWVebqbfPKGunGcY9/V2x99dt2SCyqzrGBC6a4OMmYfmJHwRaKDMr5jM+s6WamtgY1CiecMXE/sh8vwN49x7avk8FAmnbLlZXpqiL2drm5np95pCb+lnGvwSc9BaFWDHHq9AiTLc1l3eM5SvGKMA07cB9Ijx8UN0VKcYCN93Y4AIS+GKxyNpV7ipEZLijB7kry1L+IOB3IeYPSmwFCYSXgJMQS7Xxhrf/pe0ZIh3qlzMX+sm5RFKEKyFerpxLogjLhZbvyiL4RVDdFSEgYdljIoFyJABhNeL02Atsm6r9Y/aEPARTQBmKMDsdnpMACZBA8AjQIlaMMYMI05EOi1G/rjMXy9gHKtTS1qX6TudPCjBnLgHODaq7IkL1IygJEwmUMwG4XsGKgoR3dJkvR47l8t8gETiiXDbv+22sxXDdvOL6ILWebSUBEqgvASeLGIVYfana7y+VCNPPvek2d5EUUT6dGKMA0zRD+RnU6IoUY6GcjuwUCZAACZAACZQlAQqxYg97qUWY7k8uYgz3fKViJW9Tf5X91c5U9cdUFgQgyO6dr+IwByhRjAVosNhUEiABEiABEiCBtASchBj3iKXFleMFvJ69FO6ITs2a+ZZTbvo8iC/sHaMIS88ohFcQ7v6+MVMEATGCkqZWTeaesaAMFttJAiRAAiRAAiSQEwEKsZxwZSicyzu+MlST1yUEBUGERiYScEEAwTxgaQpKghhjIgESIAESIAESIIGwEaAQK8SI+kEEQYzBNZKJBFwQQCAMRFYMSkJIfiYSIAESIAESIAESCBMBCrH6jibET7HC1OfaNq9cI3NtJ8v7ggBcFYMS5p5h7X0xZdgIEiABEiABEiCBAhKgEKsPTK+Cc2RqM/aqMZGASwIQY0FxVeR+MZeDymIkQAIkQAIkQAKBIEAhlu8weRmcI1ObKcQy0eG1NATgqhiEfWMQY4j+yEQCJEACJEACJEACQSdAIZbvCOYaqTDf5/A+EigRAb1vzO9RFYMWgr9Ew8fHkAAJkAAJkAAJBIwAhVg+A+anfWH5tJ/3kEAaAtpV0e9ibFrVU2l6wGwSIAESIAESIAESCAYBCrFcx8mP+8LMPow9yzzjMQnkRQD7xvwsxrhfLK9h5U0kQAIkQAIkQAI+IkAhlstg+HVfmO7DOIowjYKf9Sfg9yAe3C9W/zFmDSRAAiRAAiRAAt4RoBDLhb2f94VBhNEalstosqwLAn4P4jGt6kkXvWAREiABEiABEiABEvAfAQoxt2Pi531hFGFuR5Hl8iDgZzHG94vlMaC8hQRIgARIgARIwBcEKMTcDIOfXRIpwtyMIMvUk4CfxRj3i9VzcHk7CZAACZAACZCAJwQoxNxg96tLIkWYm9FjmQIR8LsYK1A3WQ0JkAAJkAAJkAAJlIQAhVg2zH51SaQIyzZyvF4EAn4WYwxpX4QBZ5UkQAIkQAIkQAJFI0AhlgmtX10SKcIyjRqvFZmAX8UYoygWeeBZPQmQAAmQAAmQQEEJUIhlwgkh5rdEEea3ESnL9vhVjDGKYllOR3aaBEiABEiABAJJgEIs3bD58cXNvfsyRH268WJ+yQlAjPntpc+MoljyacAHkgAJkAAJkAAJ5EmAQiwduBlvprviTT5E2Ddu9ebZfCoJpCGAlz77LcFFkYkESIAESIAESIAE/E6AQsxphGAN81sae6bfWsT2kIBF4M6h9/iOBAN3+G5I2CASIAESIAESIAEbAQoxGxDr1G/WsJtuE+nVx6mlzCMBzwn0qxgkE3te53k7zAYwcIdJg8ckQAIkQAIkQAJ+JEAhZh8Vv1nDEJyDIsw+Sjz3GQE/Bu9YsXORzyixOSRAAiRAAiRAAiSQIEAhlmAh4rcAHYyQaI4Oj31OwG9iDFYxuij6fNKweSRAAiRAAiRQxgQoxMzBX7PaPPP2mBESveXPp+dFwG+RFBm4I69h5E0kQAIkQAIkQAIlIEAhpiHDGrZ6pT7z/pMREr0fA7YgLwJ+i6RIq1hew8ibSIAESIAESIAEikyAQkwD9lOADrgkMpFAgAn4KXgHrWIBnkhsOgmQAAmQAAmEmACFGAbXTwE6uC8sxF+38uma3/aL0SpWPnOPPSUBEiABEiCBoBCgEMNI+cUaxn1hQfnesJ0uCECM+SXRKuaXkWA7SIAESIAESIAENAEKMT9Zw/jSZj0v+RkSAn5yUaRVLCSTit0gARIgARIggZAQoBDzizWM7wsLyVeK3TAJ+MlFkVYxc2R4TAIkQAIkQAIk4DWB8hZivrKGMUCH118GPr84BPzkokirWHHGmLWSAAmQAAmQAAnkTqC8hZifrGG5jx3vIIHAEPCLiyKtYoGZMmwoCZAACZAACYSeQPkKMb9YwxglMfRfMnZQxE8uirSKcUaSAAmQAAmQAAn4gUD5CjE/0EcbxtIl0S9DwXYUl4BfXBRpFSvuOLN2EiABEiABEiABdwTKU4jBGuYHt0S+uNndLGWp0BDwi4sirWKhmVLsCAmQAAmQAAkElkB5CjE/DBddEv0wCmxDiQn4xSpW4m7zcSRAAiRAAiRAAiSQQqA8hZgfrGEpQ8EMEigPAn6witE9sTzmGntJAiRAAiRAAn4mUH5CzA9BOmgN8/N3gm0rMgG/BO6ge2KRB5rVkwAJkAAJkAAJZCRQfkLMD9YwBujIOCl5kQRKQYBWsVJQ5jNIgARIgARIgATSESgvIeYXa1i60WA+CZQJAVrFymSg2U0SIAESIAESIIG0BMpLiKXFUMILtIaVEDYf5WcCDNzh59Fh20iABEiABEiABIpNoLyEmNduiQxXX+z5zPoDRsDrwB10TwzYhGFzSYAESIAESCBEBMpHiPnBLZHWsBB9ddiVQhDwg1WMQTsKMZKsgwRIgARIgARIIFcC5SPE1qzOlU1hy9MaVlierC00BGgVC81QsiMkQAIkQAIkQAI5ECgPIbZmlcjqlTlgKUJRWsOKAJVVhoGAH6xiK6oXhwEl+0ACJEACJBBCAgcOHZbXPtwtcxatS+ndgepdsvnxV+TgX16Q3VXrpa5OpLZW1Kc6sCXk1amLdbWJa1XTP5S1s+bYSvK0VATKR4iViqjTc2gNc6LCPBKIE/DaKrZi56J4W3hAAiRAAiRAAn4i8MTUL2Ttxk1yTJ/K1GY1aCByVFM5vGSlRJ5/S6Z/uF4efnOj7Ni5O6Xstg0bZMuDL8v62fPkyOHD1vWafbXSeuG2lLLMKA2B8hBiXgfpKM1Y8ikkQAJ5EmDQjjzB8TYSIAESIIGiE5i/qZ1Utmks+2say559h5XF64gcOXJQampqZN+6LVJT21i2jBkou7dWS4PPVsqhI3VypC6S0q4DNYelLlInzZs2lbqaI+qvRho1PiItt+5IKcuM0hBoWJrHePgUuCV6mWANo1uilyPAZweAANwTvRZDcE/sVzEoALTYRBLITOCw+qU7EolIA/xSzkQCJBB4Aucft0veX91B3v3igPSt2Co3nHVQDu3/VGojJ0v0wH5p3FykwZDhcnjvQRl5YKuMPvNUady4cUq/u/XqKTU3dJGdsxfI3g/nK/dFZQ2bs0o2tG4mXVNKM6MUBCjESkGZzyABEshKAO6JXooxuCdSiGUdplAUePvtt2X79u1WXzp06CBjxoxJ269t27bJjBkz4tfPPPNMadOmTfzcLwerVq2S2bNny+7du9Wv5WqDiEqNGjWSVq1ayQknnCC9evWy8vhPaQlMmTJFDh48KNFoVC6++GLrsxgt2LRpk7z//vtW1T169JCTTz456THTp0+X6upqK+/cc8+Vo446Kum6n09ee+012bt3b8HaPnfuXFm5MhY3AN+N3r17e9L9Q4cOycsvv2w9u6myUE2cODFtO84a1U/aV26T12YfkO5tDyhr1xFp0GitbFq0UQ4qi9hRHXtL25o20rRDa6lZuUUOVe+RPc1aScumUWnUMCpH9u0TOXhYosqF8aB67o43P5Impw6Tiq6dpcm5raXJ0d3SPpsXikugDITY6uISzFY7rWHZCPE6CVgEvLaKQQT6IXAIp0PxCXTq1ElWrFhhPQiCrF+/ftKlSxfHB0O07dgRc9vBYql169aO5bzMfPHFF2XLli0pTYDbEoTkG2+8IR07dpQLLrigaEIg5eHMsAhs3rw5LoydgicUCtPOnTvjPy5AgNvTBrU3CIIQCfPCL2mfEgj6+4UfOJo3V6YdW9q4caPAyosEQVZfEYnviv4hBty8ShgP3Y5s1utlKzfLwlWH5OJRzaVfL2W7Ur+1VO+olNq9/ytD2q2V1euWydLNs6Tjrh7St/Gxsmz9Xnl16W65cGQ7Gdijuex+5T05vH6rRMcMl5YD+8jO9i3lyLJl0n3sCIk6zBevmJTjc8O/R8zLaIkM0lGO3yn2uR4EvA7aUY+m89YAETj22GOlZcuW8RabFq94pjpYvXp1fJGI/HHjxlkuf2YZr4/fe++9FBHWsGFDgWg0EwTBq6++ambxmAQ8JzBv3jx55ZVXrL/PPvvM8/b4tQGHDx+UBpFDao9YROYurZYFy3fK7uqtUhutlprO7SXasrE0abBb2jXYKHW71Y8yO5fIgC4Rad2igSW8W1c3lGjb9lLbtLHsXLVWOh7dTxo3aCg1X4tzv/a7HNoVbouY1y9x7tWnHOYQ+0gCoSGAlzvTKhaa4czYEbgYwpKEhF/ZFy9eLIMGJfYIwnrx7rvvxuuAC2P37t3j5345+OKLL+JNadeunZxxxhlxqx2sDbCGaWsZrCL4S2f9i1fEAxIoEQE3VsKrr746bhGrrzWsRN0q+GMGD+ghvbrtk+q9NWpfV1Te/Xid7F/3how+9oCs399KmlS2kE5qr1gjJbga1lRL18PvSd+h7aVZ6y5y+FCN1HRop9p0QNr06SGHjxyWo9q1lXZDB0ojBwtkwRvPCjMSCLcQy9j1ElykECsBZD4iTAQgglZUL5KlO+eFqVvsiw8JQFj17NlTqqqqrNbNmjVLjjnmGIE1CQn7SLQrFwJfQLg5pa1btwr250DswL2obdu2MnCgWuA4uPvAJWzt2rVWNbDIoQ1mOnLkiKxZs8bKatGiheVOaF63H0No4R6dzj//fGnSpIk+tdy8LrzwQnn88ccFZZEWLlzoKMSwrwwuYOgLXMUqKyulW7du0r59+3h9+gBlYS1E0u1E3vr1661f3/v06ZNkOQRHCEDUjT1scO/s379/1r12ZpvgwoW+pXMjNduk2eJZ4InnYq9c3759BWI1UzLHE+OO/VbYX6fnhdO9eLYWudiHhedD1JtWV6f7suVh3x/agzoxnzAemLNOQRiy1VXf67m05cCBA/Lll19aj8T8AXvkYX7pfuzatcvqG/qnE9wE9d4t7KnTe7fgXqu/i+g/rtkTxhrPhOUX49a1a1frz24Ztt+X6TzfeYu5gL6iP/hvAhhgDtVXRLZo0Vx930S+3LxLvtq0Q/q0rJGGTRvKrh2HJNq4iXRsE5XGq6Ky+0BUKir2yu5Nk+XgvgukVdeRcrBBndTuUvvs1H+DmrRSlbQIzh7BTGMUhmvhFmJehq2nW2IYvh/sgwcE+lUM9kyIcZ+YBwPu4SNPP/10mTx5srWHB4Lmo48+ktGjRws20c+Zk3jB6YABA1IW1RA2cPXTezzMbnz88cfWQnzkyJFmtrXI1FY27Nm66KKLkq6vW7dO3nrrLSsPguHSSy9Num4/sS9IsY/GFGIojzKDBw+WTz75xFqgYgFsTxAq06ZNs/qtr+ngH1g4Y2+ZKWAgKHU7ITxxbfny5fEXyEK8aCEKS+OHH34Yv6brh0sahCjEoy6rr+HTqU3IX7p0qeV2CYFp7tcz2wS2sPpBTJtp/vz5cvTRR8vYsWPNbOs43XhiLyEYwtIIgWlPe/bssSyrWujq6wsWLLAEuT7P5ROC9s0330waD9wPxhAZp512Wt5159IOlM2nLRC/ep4PGTJEMK/1XiwIoxtuuMEaR8wBM0G84A8J/bz11lutY8w1LcSuvPLKpHGHCMazTMswbsI8QUo33tbFDP/kM2/RR/w3AXPCTGgbvgOnnnqq9V00r+V6XKPCzy9esk6O7FKBN2o7yMHaHdIwslVZDBvL3kYNJdI2Kg2aqIiKjeukjdpKtusrFehk0wGJ9O4mRzXqJYciUdlTXSMHaqJSczgi+w5F1HGtcns8IsP7pEZZzLV9LJ87gdSfFXKvw593eB22nkE6/Dkv2CrfE/DaNRBh7JnKgwAWhccff3y8s1i8YRGFfVdY4CHBEoIFlJn2799vWZmcRBjKwd1q0aJFcbFi3lvIY7S/WbNm8SrhamlaGPSFYcOGyW233WYtbK+44gqdbX1i0YzIbRCfTgkC54UXXrAsS07XsfjEQtPJxQwcP/jgA8drqAtWxKeeeiql2mxtgnXl2WeftaxrKTerDDCwizBdDm39/PPP9an1mW08MRcgjOyLfTB78skn49bGpErVCZ6j55H9WrpztB1RAtONBziDK4RysVMh2gJBo0UY2guBVcj09NNPp4yLWT/GDHMll5TPvMX3BN8/uwjTz8W4QYzh+6CTGaDDLZeGDRtIX/VS56M7VcvebcfL1g191A8TtdI4UiOHDtfK/l4qmuLQamnYRL0jTOnBVp0PS8vDr8quZrtkZbM+MmNZE3lx1mF58h3137CZe9Xxfnlj7iF5f7Hz91+3lZ/FIxBei5iXQozWsOLNWNZcFgQGtB7mmVWMYezLYorFOwkhBtGExT0WSwg3DjcnnWDVsrulIbiHXmBjATVixAjLjQp7zWANg3sUEtysEBikc+fOurqCf+LZM2fOtOrF8yGaKioqBFY8uPFlcodCH/S9qACWKViL4JYISxAsSFhgggsWkL2Ue5U9oQ4wgOUD7mB4HurB4tsUPIhUCUsOXBmXqWhtcAVFvbAk4TlDhw61qra3CVH00CZYuWAtQRRLiBRdDtY6e8I1WLEwdnCBxOIYASG01QpBIeA+qpM5nrhv1KhRlvULPM1XHYABmKIMEsYaz9IJlsfhw4dbpxCCmFe5Jlh3wAUJHGG1hTserEqffvpp3AKLUPVOFrpcn5epfCHaAj7ox4knnmhZTjH+SJgvmE+wikF4I8GSqn8YcSNMwNe08ML6ddxxx1njDBdcMEPCDyYQrm545Ttv4XKsxTPajh9vMPe++uora67DvRIJ3wm8WgBMTOu1Kcqsgg7/gCX+OrdtICsbLpKGDfrK+nnDpeLUddK6leprTSP1XrE6OdhEiar9EdWeqPoetpNVewfInPVtZOueamncpKF0bdtI+iiv6Aol4Jo3qpGmjUSa0BjmQLw0WSG2iHkctr4048enkEAoCcA90auEPWpM5UUAbmc6mSIMe1sgaMyEhR/ctXQ655xzrMUf9gNBbMDdEO56OkFwFDNh8Yn3oJkLV+wpgkh47LHHLMsd3CxNwaDbA2uFuXhEUATsy0G/sSA+++yzdVEroAkWlU4J7pynnHKKFcxE912/0wrlseiEKyGuYX8TFuEor5PpBmq2CddxH/ZGoQ4s1E13TgizdBYI1A8RjPsQFv2ss87SjxNYwHSyjyfug0jDIhntveSSS+J7siBKlyxZom+1BKU+wT0QfrBQ4g/H9rmjy6b7xBjpUO4oAxEG8YBFOkQL+q7HGT8c6LFLV1998gvZFlhhMeb4QULvmwMjuKaaPxTgGHn4c9qbaO8P3punE1iPVYIdY4b5gnel4QcJnSD23aR85y1caXVC2yHKMYfw4wTmsP4xB1y1QDfFF+ZpxqTE+VdLVsjmN96XDcvmKlFbJS3azZL9Wypk/dwz5OD+rtK0eZ00iNbKESXIGqiAHgcPR2XmshPk5Y9Pk8i+Wjm3zxtyZue35ZKT9sllo5vJWScdJSOHVcjxgypkUP8Eq4zt4MWCEwivRczLsPV0Syz4RGWF5UWgX2slxKq86TMDhXjD3cunYuEGEWUuptAepwAdZhlYa2CtsCdYqeBehqR/CbeXKeQ5FqFYqGMfGH75NxfoECqwpGAhCmGFvupk9gULfntgA5SFWyPEChaVTmIOdSHIiT2ZbpuwUtgTglloqxgEDva3YbFqtgkLcohCM0FUIU9bQlAeVip7gggzE8ZXJ1icwAii0HweFsb2+5CH+rUAg7UTi2xY10weGHN7guVD71WyX3M6h6XtlltusepF+8zxwLMghMEIvJAg2mApLEYqVFsgvLQVrJDtBB/NAfU68cf3F5ZJiBy3bch33sKKrBNcOvGDAsQ5OOL5119/vTXH8T3SFlWUxzHGVgs1XYf9E3O2Zvce2bZmtRzcWyVtezSRBt0+kuZ798u6BRNkyd5r5NjTZkjH7kukYe1hadSkmVS0ayZj2y6RkZ1mSdfa9dKkXa3s212hXIJbSdvK5B9v7M/jeekIhFOIeemW2Ltv6UaPTyKBkBLoV5EII+5FF7FPzOs2eNHvcn4mrGJPPPFE3C0MwsbpV3nTKqStP3Zu5qIfiywtMuzlCnmORTssY/jDAh0CAK6R2h0Pi1aIQ7jy6faZ1pd0C3qIiUwJC0ltpTHL6eAKyIMrYLZ3RGHxCouJ2SbsIbv//vvNalOOcZ9diKFN5mJX3wRRpaNMahFljieu/fWvf9XFHT/1Ql1/ohAEnVMkQ4wJFuGmYHCs1JaJtmPhDRGBSIBm1ECzKKxixU71bYvTC5oL0WZz3MAYAseeEETGtOrarzud5ztv8UMGgv1grDF2cGPFOdoAKzMidjqJQcxJzEVzr6dTuyJqTnQYNlAadGguqxctkCMHjkiLhkekYuB89bwWsmHpWbJq1kRpEq2QLscslGjzwxKpaCLdOqqoqp0qZN+yatm98Stp2XS7HPniVdncVAX5aFEjrVpPUHM38U5Fp2czr7gEKMQKzbdX70LXyPpIoCwJ4OXOiGLoReI+MS+oe/tMLJLw6722tGB/h1PCviGdnBbfuIaFoZmwYHZahJll6nOsRYUWH7AaYY8K/hBmHlHnUAYLRASduO6666zHmQv5bAvBdO1zEmEQnnhWLgncIcRMa56b+01XUl3eqU36mv3TdFO0X3M61+W1wEWZTNaMXIUYxgQLeOzRy5WhU3vrk+enttj7Ybqk2r9v9rJuz+szb/HfgquuuirpvX34zuHHBPzBVRiul+edd17SaxsgICHe3AjWBk2ayrqNByXasKuKmLhImtaq3UUqKEfP4arulnWy8YtzZM2ci5Q1rI+0P1FZApvsVF1Xy/xmau9Yi6aydpl6f1j0iGzeuV2abdgobbo0kmbND8q+rZukVrkytu1GQ4LbuVLIcuEUYoUklGtdfHdYrsRYngR8RyC2T+wq37WLDfKegN7jgpaYi3GzZabAQb6TCHNaZOdqOYFrH8KkI8Fdb9KkSdax+Q9+jcfib+rUqVY22qzd8iC+dFudBA1uwOIUAk+LPLPudMcQJhBDuo8nnXRSiouh/V4d0AQLU80Vbp92a5f9PjOEvf2am3NzjxLGycnFzaxHW15Ml8lM4tG0sJj1OB2D1zPPPJO0hw1jBDb4g9Xy9ddft/brOd1fyDw/tcWpXyb/TIz1XHeqw55Xn3mLuiCmLr74Ymt8YI1GAA9YbPX3Gj/iIILj5ZdfHhdjGFNYYuGGmy3hu7h6zmapiJ4i7QauVOHod8v+I82lyVGHpc9xn0q7zjWyfe2FsnfVadKyWV9pNOJjpcOWyN6NG+TLVbtk9VZlAes4VLqPOksqO/eRxuodZNEGLWXn/EelrmkLCrFsA1Ck6+EUYl6+P4xCrEhTldWWGwGEsffKIsZ9YuU229z311z4wz0Kv3rbRYoZWtzc52NaTrRlxXyy6e5m5qc7NvelwKKEX96dFnTaFVHXA/GFX/ARzEC7AuLF1tgPZiYsxh999NH4QhIBPBD9zk2CYNEiDxYLuGbZE/ZngQ8WsNq6aLYJC0+n++CqB6EHkWLytdfv5twcTyzonZ4HkYq+oJ3acmi6paKdaJM5Hng25od2hXTTFoyfOS+wqDfHE3PNvO6mznzL+KktTn0w+YMxvjtmHu5BUAyEjEeCC+DNN99sHWf6J995iz2E+C5hnmCfIfZF6r2REGNwC8Y1fKcQORHBXJCc9qE6tQ/3bd+8RkU5XC6bl5wnLaKjpHLYTGksNRJVronNjopIy67LpfK4l6R24zhptvdo2f7GaFmnXuK8bstGad7paBly9ihp00G5SFa0T/pvVrT7idK4GV/w7MS9FHnhjZpYCnr2ZzBsvZ0Iz0mgXgTgnuhV4vvEvCLv7+diL4h2fcMCHAEyzITFlpmnLT0oYy76sbg3F9VYZOuAEGZ9mY6xj80UgbB6YdFnT+Y7tbAg1dYEM6ofglBs2LAh6VYsZPWv+biAvrtNaJtOiG5n1oP8d955x3p/Gd4D9cgjj8RdEs02YX+UvT8Quc8995xlWYBIhICsTzLHE200WaFejBPedYbXAiAKpX5RMYSjFo8ohzD3GEOdcIyw+Lkk7RaLezCu9j2KaJv5DCzOnVK6fF3WrEPn2T8L1RZ7vfZz060wl8A2YK/nMeo0X0GAczAwoyraRTLKINlZ5TtvMS8RoAOWsOnTp8cq//pfjCMs0zrpADGwkOFVDvrP3hZd3vqMiHy5do706btauVB/IWvnjZFVyhWxYfNW0qqyRhq3airRypbSvPtX0uJ49R669n9X75t7WRYsaiAdjrlGol0vlI37OinrWaU1tzDXN33ylOz8Ypa0O+Zkad079vqIpGfypCQEwmcRm/lmScDxISRAAuEmwH1i4R7ffHuHBSDc5ZYvX25VAddAiBi40cGlDosqLTqwmEZod53wiz3y9EIYbkp47xTO8T4lfZ8un+0Ti1hYqLTwgzCEYMAeMfyhPbDKIF8nhIDXCcdwzdP73iDkYBHCvVhYmhY6uGTaLQ66HqdPBPkACywu0a/JkycLIiWCH+o2gy2ApxY19jbhJbmIyohn471Q5qsD0HZz4ezUjmx59vHE4h1h8dEOtBFt1eMFAW6G3Qd7bXGBNeTxxx8XvE4A5dB37WKZrQ36epcuXfSh9Uy4ISJCIyxxsKJgoW8mBEBB+3GfGaod7YZgxJzUUT1Rh3bhg2hEWHW4YZpC3qy7Pm0x68l2bAokWOEwB5GHfp1wwgkZb0f7teiBiEOwHfDHfMbeSPP7ZFp7TQGH941pKxZ+KMl33sIKpn/IQH0Q7RD5+C5BeOn/XqBD2kKNPP3dRT6+e6bVHHk6Hdy/Tw6oIFKtm++W/se/IevmtJCqz85R7//qIf1HfyQNuu6Aehc5WCPr5i+WFSsbSp8LLpcuvY+TlpUV6gXOW2Tnhv3Sv2+t9c4wfC+jB6uVJXertOqnXBSjDfSj+FliAuETYiUGmPQ4uiUm4eAJCdSXgJdh7Ovbdt4fXgJ4vxMWflqoQIjhz57wYmDTdQ6LXrgrQXQhwSKmF/I4x2I518U7FpgQJDPVS531L+oQBdrlEPXqhMW63RUK7ziCINSLVvyib0+wopnv77JfdzpHvxGx7o033rAuo37db7M8BBYiPZrJbBP65BQCHiLU6WXOZj1uj+3jCbFnCj5dD95FZo4nRBKsmHgJMBLGzuyjtpzqcdH1pPvEOGLPkJ5L2GOEPzMhCp8WsZiD+CEAogmWVy3yIRzBDPujtBCDKNCRKzFv8QchmU6I1actZnuzHaNdiDAI8YIEMYM/tCubEIOVCWOg38sFAWa3aKJOlDEFO4Q/BBgSxCnuh9UKQizfeYu2gLW20KIt+hnWg77+B98lvFMt17T6iy+lSd0RidQdksoOO6XN2Jdl88qIHNg0UnYvHSyVDT6XzTumy8pl26Vxy1Nl0JiRUtkJ76CLBQ46f0Q7Zf6LSOsWsXN8f9qfco20rmtMEZbrYBS4fPhcE9U7FjxLFGKeoeeDw0nAyxDyfLFzOOdUXrVFZwAAQABJREFUpl7phTPKYMGULmGReOmll1oWHqdyCPqADfl4j5A94Rd3LMTMZ6EMFoH5CgtEeMTztMXN/kwsuhAwAy/WtS+8YelCPixA9jahHiwur7nmGksk6nrNOpzu0eWw+EWfnCxpqAMcwNHO0E2brrzyyiTXNDdtMsvYjzONJ9oPIWq6l+k+gh0W9nYO2Gs0ceLEpEAt9jK6DvMTvPAce1ltIcK+MYyJ2X59/2WXXZb0PJ2PT4gaCBKn+8xy5nF92qLrsY+tztef6CeieKJ9mKdOyWyzeYyy2Gt12mmnJQlkXQeY4bUUej+Wzofowg8S6Z6Xz7xFP8aPH29Z1PD9t48fng2Rje+pDvhj74tun9PnynmbZdfaU5U1q5Hqa5106L5Pjrv0LTnu4rfUe8W+lOmP7pEli06UviffKUPGTJL2XY6OizDUV9mqiVRWNFYvfFY+jiqhfZtWb5Ej0z+XXau/jP+IY13kPyUlEFG/1NRt277Nemhl28QL6UraikI+7Bc/LmRt7uvC+8O+cav78ixJAiTgisB9C+4Wr4Jn3Ddmiqs2slD5EoD1ARYK/AKOQA4IruBmgYX7sAcKn7BopFsU5kMWbYFVBWIAIkIHmMhWFywosLLgfljP4CLmpi/Z6sV11AkrDJ6BNqF+N3WbbYJLGe5N577lph3ZyujxxN4wWEfAwLSCZbofrnUIqw63P7CvT4IFUY8FXNlgofIq+aktmRjAMok/iAyILViY65vynbewgmJ/I+YRhBd+aIEwzDdNf+gvUj1vvPQYsFSGnfOhNO5RZ4mn1fMPyq49x0unvqdLWyX0GjVu4CgCnZ5btWCJNF+1W5kMO0i7vr1c3+dUF/PcEXDSWxRi7thlL4VAHWPVHxMJkEBBCUyresqz6IkUYgUdSlZGAiRAAiSQB4FP3rpfmq1rKns2XyI9hu2Wg21ekz2HI9Kx52nSrlNv9aNG7JURuVSNHx0itSrgi7KS4YXRTMUn4CTEwrVHbM2q4lNM9wS6JaYjw3wSCCwBRE700j0ysODYcBIgARIggYIROHHcTbJ24dPSZu9Lsm5Tb2nX/SwZMqA7fAzztmRZFmnqr4KNUb4VUYjlS85+H4WYnQjPSaAgBLx8nxgjJxZkCFkJCZAACZBAPQhEo42k19BrrRq61aMe3uo/AtTC/hsTtogESIAESIAESIAESIAESCDkBCjECjHAfJFzISiyDhJIS2BA62Fpr/ECCZAACZAACZAACQSRQLiEmJeh64M4+mwzCQSEQL+KwZ60lCHsPcHOh5IACZAACZBAWRAIlxBbnfoiyrIYRXaSBEigKAS8CptflM6wUhIgARIgARIgAV8RCJcQ8wotA3V4RZ7PLRMC/Vp7YxErE7zsJgmQAAmQAAmQgAcEwiPEGLreg+nDR5JAaQh4GUIeIeyZSIAESIAESIAESKDQBMIjxApNhvWRAAmQAAmQAAmQAAmQAAmQQJEIUIjVF2zvvvWtgfeTAAn4mADeJcZEAiRAAiRAAiRAAoUmEB4h5pVrYq/ehR4T1kcCJOBAgCHsHaAwiwRIgARIgARIILAEGga25Wx44Als2LBBDh48aPWjXbt20rJly4x9qq2tlS+//FJWrVolVVVV0rhxY+nVq5f07dtX2rdvn/Fep4tbt2616lq9erUcOnRIevToIX369JFu3bpJNOruN4rq6mrZuXOndO/e3dU9L730kmzevDnenJNPPlmGDeM7suJAMhwghD2jGGYAxEskQAIkQAIkQAKBIkAhFqjhCldjH3roITl8+LDVqdNPP13Gjh2btoOfffaZvPLKK1JXV5dUZtmyZdZ5o0aN5Prrr7cEUVIBhxOIub///e+W+DIvQ5C98847EolEZPz48TJixAjzctIxyj755JPxOnAPRNy1115r3Z9U+OuTjz/+WObNmxe/1KBBA+nfv3/8nAckQAIkQAIkQAIkQALlQ8Ddz/7lw4M9LRGBr776Ki7Csj3yhRdekKlTp6aIMPO+mpoaefDBBwViJ1OaM2eO/O1vf4sLKKeyEHvTpk2TZ555xvGZ69atSxFyuGflypUCcWkXi3jGjh075PXXX0963MUXXyxHHXVUUh5P/EeAL3X235iwRSRAAiRAAiQQBgLhEWJrVodhPMqiD9u3b7eEjJvOvvjii7JgwQI3Ra0yEFDz5893LP/555/LlClTHIWS0w1LliyRZ599NuWSmdewYcMkKxxE2qJFqcEdYIEzBdrRRx8tgwfz3VgpcDNk8F1iGeDwEgmQAAmQAAmQQOAI0DWxvkPGlzm7IgghAgG2f//+jNYos7J9+/aliDAInwsvvFAgZLCvCyLtzTffNG+TN954Q4YOHZqUh5PXXnstJW/cuHFW2WbNmsny5cvl5ZdfTmofxNiuXbukVatW1r3Y04Zznb7zne9I69atrfvmzp1rZcNdcsiQIbqIZQnDPjKdsLft8ssv16f8JAESIAESIAESIAESKEMC4bGIleHgBanLCMyBwBYQT24TBJVpRYII+9a3vmWJnCZNmljBPUaNGiVXX311UpUQcHarGKxhu3fvTip3xRVXyJgxY6SiosIK/DFo0CCrfuw3MxOsbDohwIdOCOgBEYbUr18/nW0FEtEn69evl1mzZulT6xP7yOzPSCrAExIgARIgARIgARIggdATCI8QW70y9INVTh2EALO7JJ500knStm3bFAywjnXt2jUpf+bMmUnnM2bMSDpHlMVjjz02KQ8nEFYjR45MyoeI00FFWrRoEb+GNmqhaIo8LbJwz+TJk+PlcYAoiYjOyBQcAozUGJyxYktJgARIgARIIEgEwiPEvKJO10RX5C+44AIrKiIiI+KvadOmGe9DcAstcnRBu0DS+fi0XzPdB3HddA3E+amnnooPx3TKKaek5GtLGIQaXAuR0L6PPvrICsH/6aefxu/p2LGjdfzcc8/Fw/MjA+6NEyZMiJfjAQmQAAmQAAmQAAmQQPkS4B6x8h37kvYcbn9mWrt2rfUOLzPPPNbCR+dBuJnWKJ2vP2EVMxPeOQY3SIgmHCOqopkGDBhgniYd62ft2bMnno/2dO7c2TpHyPnFixdbx9OnTxf8mQlCE3vLli5dGs9GePsbb7wxbWj7eEEekAAJkAAJkAAJkAAJlAUBWsTKYpiD18ktW7YkNbp58+ZJ5/YT7B+D2DGTFnMIEmJPCM6RKdnDyuu6cM+ll16a4gqp6xo9erS1d+3555/XWdbn2Wef7ehWmVSIJyRAAiRAAiRAAiRAAmVDgEKsbIY6WB3dtm1bUoOzCScU1nuz9I1aPOlPnY8XKWdLduub2R4E6fjmN78pEF1wQ0TbevXqZb3M+YwzzrD2hR05ciT+iC5dusRdIWGd0/vN4gV44IpAv4pkq6qrm1iIBEiABEiABEiABHxKgK6JPh2Ycm8WxE59kxZc+jOX+uz70+ztwTlEF/7M9OGHH8rGjRvjWXg2oiRWVVUJXkyNyJFI2Gt2+umny7Bhw+JleUACJEACJEACJEACJFA+BCjEymesA9VTRDU00969e81Tx2P7PjBdR4cOHZLKm9aqpAvGiRkFEdnt2rUzrjofwmpmf6fZZZddJmvWrJFnnnkm6SYED3nppZesgB/Dhw9PusYTEiABEiABEiABEiCB8BOov9kh/IzYQw8IaBGlH413g2VKCMxht2Jp8aTf9WXebwbiMPP1sV342cWcLqc/8Wy8tNpsw8CBAwWBPSC4dIIlTUddRB5eIJ2tb/pefpIACZAACZAACZAACYSHAIVYeMYyVD2xCzEIra+++iptH+0vcEbwDvzpZIof5NnL63L4hPugXRzZ22OWx/Frr70mZsh8RF5EUA+4JOqXWCOYyF133SU/+tGPrIAeug4zuqLO4ycJkAAJkAAJkAAJkEC4CVCIhXt8A9u7ioqKJCGFjrz33ntp+zNr1qyka5WVlUnn+t1eOvPjjz/Whymf77//flIerFj2+swCEFuzZ882s6x9YRCC5n6xNm3aSJMmTQT19enTJ15+2bJl8WMekAAJkAAJkAAJkAAJlAcBCrH6jvOaVfWtgfenIWB/6fLChQtlxYoVKaXfeecdsYeoHz9+fFI5+zn2gNn3c+GG1atXy2effZZ070knnWSJp6TMr0+wL+3xxx9PuoQXQnfr1s3KM61yZiFET9TJdGfUefxMJbCiOvbuttQrzCEBEiABEiABEiCB4BFI+G4Fr+3JLe7dV62iVybn8SzQBMaMGSOIQqiDa0CwQPQguAVe4Hzw4EFZtGiRLF++PKmf2BvWu3fvpLyuXbtKp06dZNOmTfH8Dz74wDofMmSIFYL+iy++kDlz5iTt84L1yh4ZMV6BOkAQDu16iHzsRzNFH14c/frrr1u37NixQ7A3DVaxlSsTcxVtY/IvgQGtGdnSv6PDlpEACZAACZBAcAmER4gFdwzY8jQEYE0aN25ckuUKYgxiCX/p0sSJEx0vIf9vf/tbktCCIDJFkf1GvCvMvr9Ml4GFzhSB2AN2ww036MvWJ4QZhBdEI9r++9//3rKuaXGJexg1MQkZT0iABEiABEiABEigLAjQNbEshjm4nRw1apRAQEGwZEt4oTNetNyzZ0/HorA83XLLLWmFlf2mCRMmyNixY+3Z1jksW2Y0RGSiPPaB2dNNN90k+l1mEGNahKHcmWeeKa1atbLfwnMHAit2LnLIZRYJkAAJkAAJkAAJBJMAhVh9x417xPIimG7vlFNlJ5xwgtx8881pBQtEWufOneV73/uedO/e3amKeF6XLl3kzjvvFIiydOKuZcuWlqAbMWJE/D77weTJk5MEFZ578skn24tZ5wgUcuutt1rPhCDDcyHYJk2aJBCaTCRAAiRAAiRAAiRAAuVHIDyuib3UniDuEQvMDL766qtzaiuE0/e//31BkIt169bJ+vXrLSsT9oLZIyJmq7hZs2aWZQzltm7darkmwkqFABsQVNgXlinBqnX88ccnFcE+s0wJbYQ1jokESIAESIAESIAESIAEQCA8QozjWRYEIJLgepjO/TBXCHg/WLZ3hNnrhEUrnfXLXpbnhSOwotob18R+FYML1wnWRAIkQAIkQAIkQAJfE8j80z8xZSewZnX2MixBAiRAAiRAAiRAAiRAAiRAAgaB8AixXn2MbvGQBEiABApDoF9rWsQKQ5K1kAAJkAAJkAAJmATCI8TMXpXymPvSSkmbzypjAkt3zivj3rPrJEACJEACJEACYSNAIRa2EWV/SIAESIAESIAESIAESIAEfE8gPELMS9dEhrD3/URnA4NNYEX1Ys860K9ikGfP5oNJgARIgARIgATCS4BRE8M7tuwZCZAACZAACZCAzwjgFSjV1dWybds2632Ubdu2td4tifdMMpEACZQXgXAJsd59vXmXGCxiXlrkymvOsrdlSGBa1ZOe9HpA62GePJcPJQESCB+B7du3yxNPPCHvvfee1NTUJHUQIgzvp7zyyiulTx8GH0uCwxMSCDGBcAkxrwaKIey9Is/nkgAJkAAJkIDvCXz++efyy1/+MkWA6YYfOXJEZs+ebf195zvfkTPOOENf4icJkECICYRnjxgGqVfvEA8Vu0YC5UvAq4iJfJlz+c459pwECkVg2rRp8rOf/SytCLM/549//KPcf//9Ultba7/EcxIggZARCJkQ88iczxD2IftasDt+IuBpoA6+Q8xPU4FtIYHAEVi+fLk88MADju2GO2KjRo0cr73++usCAcdEAiQQbgJ0TSzU+HKfWKFIsh4SIAESIAESCAWBRx99NKUf7dq1k7vuusvaCxaJRGTDhg2WBWzhwoVJZbGfbPz48cIgHklYeEICoSJAi1ihhpMh7AtFkvWQQBKBFTsXJZ2X8oSh60tJm88igXARWLlypSxenPzqDYiw3/3ud9K3b1+BCEPq0qWL3H333TJ06NAkAPv27ZPp06cn5fGEBEggXATCJcS8HBsG7PCSPp8dYgIrqr0TYiHGyq6RAAkUmQAsWvZ02223ScuWLe3ZltXrjjvuSMl/8klvIsamNIQZJEACRSEQPiGGEPZeJO4T84I6n0kCRSPA0PVFQ8uKSaAsCCxbtiypn02bNrVC1CdlGidt2rSRQYOSXyC/e/duwR8TCZBAOAmET4h5GTmR7onh/JawV54RQKAORkz0DD8fTAIkkCcBhKOHa6GZRo4cGXdHNPPN49NPP908tY43bdqUkscMEiCBcBAIoRDrE46RYS9IgAQ8JdCPERM95c+Hk0CQCWzdujWl+Z06dUrJs2d06NDBniUUYilImEECoSFAIVbIoZz5ViFrY10kUPYEplVxf0TZTwICIIEAEti8eXNKq+F6mC05laEQy0aN10kguATCJ8QwFtwnFtwZyZaTgEHAK7dENIERE42B4CEJkEBOBLZs2ZJSvlmzZil59oyKigp7ljjVlVKIGSRAAoEkEE4h5uVQcJ+Yl/T57BAR8PJFzgzUEaKJxK6QgAcEnCIjYt9YtrR///6UIk51pRRiBgmQQCAJhFOIjT3Tu8Gge6J37PnkUBHw0i2xX8XgULFkZ0iABEpLoHPnzikP3L59e0qePcOpjFNd9vt4TgIkEEwC4RRiwRwLtpoESMAnBBiowycDwWaQQEAJdOzYMaXlTiLLXsipDIWYnRLPSSA8BMIpxHr18W6E8D4xuid6x59PDgUBL8PWAyD3h4ViGrETJOAZAbwzrFGjRknP/+yzz5LOnU7mzp2bku0m2mLKTcwgARIIBIFwCjGg9ypgRyCGnY0kARJIR4D7w9KRYT4JkEAuBLp06ZJUfMOGDbJ27dqkPPOkpqZG3nnnHTNLGjRoIJWVlUl5PCEBEggPgfAKMS/HiPvEvKTPZ4eAAPeHhWAQ2QUSKHMCl1xySQqBxx57TOrq6lLykfHyyy+LPaDH+PHjs74E2rEyZpIACQSCQHiFmJcBO+ieGIjJz0b6k4Dnbol8kbM/JwZbRQIBI3DaaaelWLM+/fRTuffee1PE2JQpU+Txxx9P6eEVV1yRkscMEiCB8BBoGJ6u2Hri5T4xW1N4SgIk4J7Aip2L3BcuQknuDysCVFZJAmVIIBKJyHXXXSf//d//ndT7999/Xz7++GMZOHCgNGnSRBYvXiz79u1LKoOTc889V1q1apWSzwwSIIHwEAivRQxj5OU+Mbonhudbwp6UlMCKau+EGPeHlXSo+TASCD2B0aNHy/Dhw1P6if1gCxYskNmzZzuKMATouOqqq1LuYwYJkEC4CIRbiNE9MVyzlb0JPQGv3RIn9JwUesbsIAmQQOkIwCr2s5/9THJxMRwxYoTlvsgXOZdunPgkEvCKQLiFmNfuibSKeTWv+dyAEvAySEdAkbHZJEACASAwadIk+clPfiIVFRVpW4tw9zfeeKPcddddKaHv097ECyRAAoEmEN49YnpY4J6I4BleJK+e60Vf+UwSqCcBr61hcEvk/rB6DiJvJwESSEvgxBNPlAcffFDWrFkjq1atkm3btkk0GhVYvrp37y4DBgxghMS09HiBBMJJIPxCrFdv74QY5gxe7uy1ZS6cc5e9ChkB74N0DA4ZUXaHBEjAjwR69eol+GMiARIggXC7JmJ8vRZBdE/kt4wEXBHwMkgHGtiPYetdjRMLkQAJkAAJkAAJFIZAeQgxL6Mn8p1ihZmprCXUBOiWGOrhZedIgARIgARIgAQcCIRfiDl0uuRZtIqVHDkfGCwCDNIRrPFia0mABEiABEiABOpPoDyEmJdh7DFGtIrVf6ayhtAS8NoaBrAMWx/a6cWOkQAJkAAJkIBvCZSHEMM+MS/dEzH8tIr59kvAhnlLwGtrGKMlejv+fDoJkAAJkAAJlCuB8hBiGF0/WMXKdZax3ySQhgCtYWnAMJsESIAESIAESCD0BMpHiHkdPRFTaeaboZ9Q7CAJ5ELAa2tYLm1lWRIgARIgARIgARIoJIHyEWKg5rV74gwlxPBeMSYSIAHxgzWMbomciCRAAiRAAiRAAl4RKC8h5rV7IkaZe8W8mut8rs8I+MEaxiAdPpsUbA4JkAAJkAAJlBGB8hJifnBPZATFMvp6savpCPjBGoa29asYlK6JzCcBEiABEiABEiCBohIoLyEGlF67J6INtIqBAlMZE/CDNQxuiUwkQAIkQAIkQAIk4BWB8hNifnBPpFXMq/nO5/qAgF+sYXRL9MFkYBNIgARIgARIoIwJlJ8Q88M7xTDhaBUr469deXfdL9YwuiWW9zxk70mABEiABEjAawLlJ8RAnFYxr+cdn1+mBGgNK9OBZ7dJgARIgARIgARSCJSnEPOLVeyh+1MGhBkkEGYCtIaFeXTZNxIgARIgARIggVwIlKcQAyE/WMXQjocfwL9MJBB6AtOqnpKlO+d53k/uDfN8CNgAEiABEiABEiABRaB8hZhfrGIM3MEvYhkQgEvi1KrJvugp94b5YhjYCBIgARIgARIoewLlK8Qw9H6xijFwR9l/EcMO4N75P/ZFFyf2vM4X7WAjSIAESIAESIAESKC8hZgfXvCMOQir2Mw3ORtJIJQE7ltwt2/6NaHnVb5pCxtCAiRAAiRAAiRQ3gTKW4hh7Med5Y8ZMEMJsTWr/NEWtoIECkTAL1ES0R1awwo0qKyGBEiABEiABEigIAQoxMb6RIhhOOmiWJBJzUr8Q8AvLokgQmuYf+YFW0ICJEACJEACJFDOwTrM0feLVYwuiuao8DjgBPzkkkhrWMAnE5tPAiRAAiRAAiEkQIsYBhVWsd59/TG8dFH0xziwFfUi4CeXRHSE1rB6DSdvJgESIAESIAESKAIBCjEN1S8RFNEevOiZ+8X0yPAzgAT85JJIa1gAJxCbTAIkQAIkQAJlQIBCTA+yX94rptvD/WKaBD8DRsBPLokDWg+jNSxg84fNJQESIAESIIFyIUAhZo60n6xi3C9mjgyPA0JgWtVTsnTnPN+0dkLPSb5pCxtCAiRAAiRAAiRAAiYBCjGTht+sYtgvxveLmSPEYx8TgAibWjXZNy2ENaxfxSDftIcNIQESIAESIAESIAGTAIWYSQPHfrKKoT0M3gEKTD4n4DcRBly0hvl80rB5JEACJEACJFDmBCjE7BPAb1YxtI/BO+yjxHMfEUCERD9ZwoCG1jAfTRA2hQRIgARIgARIwJEAhZgTlm/c6pTrbR6Dd3jLn093JAAR5qcIibqRtIZpEvwkARIgARIgARLwKwEKsXQjc9Nt6a54k4/gHQ8/4M2z+VQSSENgWtWTaa54l41w9dwb5h1/PpkESIAESIAESMAdAQqxdJz86KLISIrpRov5HhBAmHo/RUgEAoar92Ai8JEkQAIkQAIkQAJ5EaAQy4TNb4E70FZGUsw0YrxWIgJ+C1Ovu02XRE2CnyRAAiRAAiRAAn4nQCGWaYRgFRt3VqYS3lyjGPOGO59qEfBjhEQ0jC6JnKAkQAIkQAIkQAJBIkAhlm20xioh1rtvtlKlv04xVnrmfKL4VYTRJZGTkwRIgARIgARIIGgEKMTcjJgfXRTRbooxN6PHMgUi4FcRhu7RJbFAg8xqSIAESIAESIAESkaAQswNar+6KKLtFGNuRpBl6knAzyKMLon1HFzeTgIkQAIkQAIk4AkBCjG32P3qooj2U4y5HUWWy4OAn0UYXRLzGFDeQgIkQAIkQAIk4AsCFGK5DINfXRTRB4qxXEaSZV0S8LMIQxfokuhyIFmMBEiABEiABEjAdwQoxHIZEj+7KKIfFGO5jCbLZiGA94RNrZqcpZR3l+mS6B17PpkESIAESIAESKD+BCjEcmUIF0U/hrTX/YAYe/gBfcZPEsiLgB9f1mx2hC6JJg0ekwAJkAAJkAAJBJFApE6lbdu3WW2vbFsZxD5402aIndUrvXm226fedJsIrHhMJOCSwIrqxXLv/B+7LO1dsfvGTPHu4XwyCZSIwNKlS2XRokXxpw0cOFAGDRoUPy/2wezZs6Wqqsp6zIknnii9evWq1yM3bdok77//vlVHjx495OSTT65XfcW4efr06VJdXW1Vfe6558pRRx1V0McsW7bMYrp7925Ryy+pqKiQs88+u6DPYGUkQAL+JOCktxr6s6kBaBX2i/ldiD10f8x6ByseEwlkIeD3/WC6+XcOvUcf8pMEQk3gs88+k71798b7iPNCCbF9+/bJjh07rLrbtGkjzZs3jz9HH2zevFm2b99unW7ZsqXeQmznzp3x+ho1aqQf46vPDRs2yMGDB6021dTUFLRtU6dOFdRvpl27dpmncuTIEYFgRcKYYGxySfW9P5dnsSwJkED9CVCI5ctQ7xeDK6Cfk24fxZifR8nztgVFhHFfmOdThQ0oEQGIFlOE4bEHDhyQbdu2SWVl/b1X5s2bF7e2wdI2evToEvWsPB8DAWaKsGg0Ks2aNUsRwBC/r7zyigWpVatWMmnSpJyA1ff+nB7GwiRAAvUmQCFWH4Ra3GixU5+6inmvbp9ubzGfxboDR8Dv+8E0UIiwCT2v0qf8JIFQE1iwYIFj/5A/btw4x2u5ZMItLls655xz4tahJk2aZCvO6xkIfPnll/GrLVq0sAQWxJg9uRkX+z3meX3vN+viMQmQQPEJUIjVlzHEzZrV/ndThBjDH/eN1XfEQ3N/UKxgAM7gHKGZduyISwIrVyb2IGMv1SeffGLduXr16rRCDBYzveBv3769wKKCvI0bNwpcAbt16yZwhdu6dav1p5sC65t+HsRB7969rUsoq/dLdejQQRo3bqxviX/CjQ+WHrjTwd2xc+fO1nPw7HyTWSf2UrVu3Vr69++f1U0P7UBf0Z8GDRoIGGBfW6H3eaFfaBdYwwJ16NAh6dixo9VGWLnMdPjwYdm/f3+cI6516tQpbu2EwAVX1LFu3bq4WyLKIU+PC867d+/uOAa6bD73Yy5g7OB6CmZt27YVWEjzcR2tra2VVatWWVZbzB1wb9eunfTt29eqG+1Ml8x24D7MVcwltMlMeAa+A0gQtOCOvPXr1wtcSfv06SORSCR+S75zCXViLoEN3HMxTv369ZMuXbrE6zYP8Hw8C9yw/xFjh/2VGJOGDRta8xDjZ7bNvJ/H5UuAwToKNfZBCN6h+4qoj7SOaRpl+RkkEYYBYnCOspymZdtpCArsJ0LCIu6b3/ymPPzww9biDnkTJkywFns4NhOCe7z77rtW1pAhQ6xFIEQJUtOmTeWGG26wBB3cEtMlLBRvvfVW6/Lrr78eD9Zx0kknyfDhw5NuW7x4sXz44YdW0ImkC+oEe5suvPBCawGrr5ntwwL6oosu0pfin5nqhBg8//zzU0QC+vjqq6/Knj174vXoA/Tn1FNPlcGDB+usjJ+PPPJI3Ap45ZVXWiLQvAELdDD+4osvzOz4MbjjeTqh3MyZM/VpyifcTC+77DJLCL344osp180M8AI3pwQhlcv9EM1gpvcAmnWCGfYijhw50szOeAwBhn5CeNoThOb48eMtYWW/lq0dcJkdMGBA/DaIHYwREkQjhN7y5cvjc/Cmm26Kz4985hLqhfiaNm1a/PuGPJ3wPcK8xo8DZtLzBsIRQV7099csg+8ExtDpBw2zHI/DS8ApWEeqXTy8/S9uz/z8smd7z2EZm6n+mMqSQNBEGINzlOU0LetOL1y4MN7/Xsqig4Rf+nUyIynqPPsnFqFahOFaoX+Jf++99+SDDz6IL4Dtz0cgkMcff9xRHNnL6vNsdUJsPPXUU7q49QkrCASIkwhDAbjqQSyirYVITz/9dFoRhvoxdm+99ZbrR3nhSggLHcbGSYSh4WgT5pjbfsCahbJOIgz1wTo0ZcoUWbt2LU7jyU07IHo/+uij+D3mAeY3hK4Tw3zmEupes2aNvPzyy44iDNdhYX722WctiyjO7QnBUiBwnRK+E2+//bbTJeaVMQG6JhZq8BG8A25/iFQYhKRdFWkdC8JoFaSNQRNg6DSDcxRk6FlJgAjA4gJ3Jp20JQefsCghwSUO5Zz2GOn7cB1uUgg7D6sB3LiQYLGBuINVDItOJLhSHX/88daxG8GGBfDnn39ulcc/sEyMGjXK+qV/yZIlVjuxOIZIQgh8N3va7HXCfe+0006z2o2Q77NmzbIW3LCgzJ8/X4YOHWo9H4t7LPSRtPULboxfffWVdQ+CmyChvXDxzMflzqpA/QNxYkY5xJgcd9xx1jjAdVRbyeBOCOshuKAfI0aMsK7pKJXIRxuRtAsn8i6++GLLMgbhiISoidinpxPKpEu53D9jxgxr/qAuMEP74I6K4DAff/yx5W6Ja+jHscce62jJwnWdsG9RiyG48J1++umWCx9c8yCA9fhgDDHXdHJqB+YmLMKYn5o1xO0JJ5yQYknCHEf7Mae7du1quUJifPOdS6gPVj2dwH/s2LGWFRJuihBR6Isud8EFF+iiSZ+4Dm5oMxL6CddFJD1faRWzcPAfRSBKCgUkoCMpFrDKoldF61jREfvhAUEVYQzO4YfZwzaUkgBcvLCQQ8JiDe54SFhowy0KCYtevei3MtL8c8UVV1iLVOy1admypVUKe5hQp7lvCsfIwx/2VWVL+l1gKId6L7/8cmuxDjc7uJJhEaoTFvO6PzrP6dOsE4tpuH+hz2CAhfYpp5wSv23OnDnxY7iR6YS2QxxBDGBhjjrg2omENrixJOq6nD4hKnXCHia47kHg6gW7uX8IogMJQguiEWJYJ4gR5OEPAggJ7QR/M1y9ztNjo/ui6zE/ddls90PcaFGA+yH0ICYxjhCNcJ0zBZ/uh/ks+zFEr05a6GPcIDbhpqcTBJIWo+naAV5wRbz00kuTfmhIF7wG8w1zA/uvdLvznUuwImvRiDZj/mCcMR8xZqYrLYRZOiss7sGPCPiu4Q+uxOaPJvrHAc2Fn+VNgBaxQo+/3nsFgROUROtYUEYq53YGUYChk4yQmPNQ84aQEDDFgumOiO4hWIC+jkWjuXfG3n0srLUVzH6tvuemSxv2jtkTLCxwO8PiE6IIi1stIu1l9blZJ4SBPWHPkraKwdIGNziIDzOUP1zkwAXBJvBsLKCvv/56qyzaYS6G7fVnO0cf8FydnF5GPWzYsHiIerM/+h4/fJrCFQKyZ8+eKc3C+L322mtWvhvRAPGng7pAMEE4QowgYU8b9iaCvWkFytYOlIVlbY2y2mLs8OJrp3TMMcekZJvsc5lLZpvQB22t1A9AP5GnLXUoj++kPdm/l+g7vo+aEe7HjyNMJAACFGLFmAdBiaRo77sWj1pM2q/zPDAEgirAAJgiLDDTjA0tMAEs9rEPSics3rAQ1ckUVlggY79KOoGDRXaxEgIm6OS0oIRAOuuss3QRV59mnXhxNf4yJYguPBtiFXuIIJJgKYQrHM5hgYK1CRH7TG6Z6sx0zbT6oNzzzz+fqbglRDMW8Oii2Q9tQbI3BZYxnWBJ1KJX59k/YQWDGyL4Yw5jjxREMOoBf7gbmiIM97tpByxq2oXT/kycQ+A4udLmO5e0tQ5143t4//2Zt5pgDjoJMXsgD9SH76kWYtqNE/lMJEAhVqw58A0VdSpIkRQ1B1rHNInAfgZZhDFMfWCnHRteAALmvitUZ7rCOVWP/Vh6b5fT9WLkYaFtLiTt4drzeSYW+madburQVgUs8K+66ip544034iIW4gELafxhzxNcL88777wktz83zzDLYG9aLkmLErsAyaWOYpQ1XxKerm0QUWaC4M8kZiGIJ06caO2h0vVDGGOvo97vCFEGN0Vdty6H56T7McFsg9Oxkwirz1zC3M4l4RUGTsnJ8urUVqd7mVd+BCjEijnmQRVjYEJBVsyZUZS6gyzAAAQi7Pbjfl0UNqyUBIJAwC7EsrUZwTtKLcSweMeiUgsnLEad3MawqMWi280CFBY0s064O9rdwuwsTEscrH8IdIHFPfakISACrBXalRD5iHSHvWzmHip7nZnOTSGCtp5xxhmZilvX0C+/JVhZdUonLiG8zGT23cw3jzEe1157rfUOMYwB9qHBRVDvD4QbHyI13njjjdZtZjvS7bXCvfjLhWN95hJcIDUTuGw6WbvMPjtZvszrPCYBNwT8918JN60OUpkgizFwpiDz/WwLugADYIow308zNrDIBLAY1XtP8Ci4ZDn9sg4BpAN14B64OzkJoWI2FwtWvVhHcBH7+8XQJjPMPEQS9txkSmadEHBwabMnLOZhPYHw0tYcWAXhUob2IEgI9gTpfUEQY9jrhGvgBqGby7uxzOebbnyoC3uf7AIF4hNtgZUQbXQaP7NOL45N8QD3QAgdezsxpjpls1bhfriRgjFcAhE8A/vn8AdOePkyQtvjGNcRERFBTdy0A+/y0oFFMH8wj9ykfOcSvkfaPRGWNac5CJdgCHGMcTY2btrKMiRAIVaKORB0MQZGev8YjrmHDBQ8T2EQYIBIEeb5VGIDfEDAfHcYFvGZQr4jYpt2i0JwBCx+c03aRQz3uQnIYNaPPT86lP7cuXMFARPQZp3wDiedsMh3EmFYmJvJrBMumajTbOM777wjCGOPhIUwLCsQYxANWNwjIaw/AkPohCiK2CemLY1mMAZdJtMnRIZOeJYZqAHiwoyih7LYN6bFNETaNddco293/Wn2OZ2lKFNl2e7HnjqMD/hDbCDsvhmREoIKeTqZlkedZ35ifDF3URcSOOiQ+xgnPA/1aS5aiGVrByIsahGGes2w9zjPlPKdSwiyofdkYi5ByJtRRDHX3nwzEYgN/cSzmEigPgQoxOpDL5d7wyTGIMr4/rFcRr+gZcMiwACFIqygU4OVBZjA8uXL460/+uij48dOBxApn376qXVpxYoVeQkxM9og9lJNnTrVikAIwaHff+T0bOTB2gFRpBfzTzzxhBXBESIA1jrt3oWyZl9Myx2sMXhZL1zA8GfWCZfCyZMnCyIlarFlBneAyxjykWAF00IMIuKxxx6zFv9wQYTwMrmaQSismx3+gaDUwR7w3iiEwUcUQQgOfE6fPt26a/PmzfLkk09a/cZzMQ5mv0899VSH2rNnma6TEDWwLCI0O0QNojJm25Pn5n7w01wg5NEXjAHaj3HVLp3osxuRD7Gr64OQee6556wxwHxAEA8twtB7HeIf4+fUDggujBuEkE5oByJhuk35ziU8G/sJ9f41vCgc3zVYQ7HXzRSGKEcR5nZEWC4TAQqxTHQKfS0MYkwzgRijINM0SvIZJgEGYBRhJZk2fEgACEAIYTGvEwRIpoRFqRZiWDTDQpbNcmGvDxYJRBjUz4WYwR8WvdmEGFyyzj77bCtABuo9cuSIFTbe/gyIgjFjxsSz0UbUD4GBP1jV4M4HEWCvE/3CS33tCYtis06IANyPBT8SFtGmdVHf36BBA+t9ZPo83Se46IiN2OOEP7wUG+3Gs/CeMv0KAQgM03qk68T4oWw+CeIFggD73JDg5qmj7cFdNZsQc3M/wsLDCqrDvEOI4c+e8JJuN+53sKiZ79VC3U5WVlgUzXnqth2wPGXrt9n2fOcS6sC7w7CfEPMPPzRoy69ZPxine5mzWY7HJOCGAF/o7IZSIctAjPVO9X0v5CNKWhfE2C9+LDIzYa4v6fPL4GEQYLe/e4FMrZocmt5ShIVmKNmRAhDQrnOoCotV/NqeKWFRalo+zPv1fRAemRIsLNddd50lurCwdEpmHeYxysIagMWouXdK1wHRAuvNZZddprPin8iz763SF7PViTDpeNGv2Rb0Y/z48ZZFDfXi3J6wnwuBOswAEfYy+hwiFGILfXBK2GOGl/U6CRTkQSRCwGRK6erW9+AFwGeeeWZaTrpcus9s9+P54AjBaLLU9YEjeLm1QmE+Tpo0ybJwOXHB87DfCnWa45OtHZjjl1xySZJbosnOrEu3XX/mM5dwL+YIXoQOMexUP0T/lVdemRJMxmyXeazbY+Y5Mdfl+Fl+BCJK8ddt277N6nll28ryI+BVj4MY2t4NK7gsInEfWYxDnv9CfCGFSXxpFBRhmgQ/SSAcBGCFgnUFVgS4PJouiPn2UNcJixnEHuo0F7Pp6oUVA3t7sIcOi2oEhdBujOnuyTcf+5jwh4R+uxF6+T6rWPfBMgm3T/CGoMJ+Pjec/3975wEvWVHm7bd7ZoAhM+Q0MwyjQ04icclBEFlAUFCYXUEEP4FdEWFF1xVkDSwruwtmWVxFFgOIoisDEiUoCBIECZIZMgxhGPLc+9W/m7e7+tzT996+t8M5p5/6/e49p0+oeuupOqfqX+kMZ4/mi6mHTFs1LEhQjeSn26F0kx36Dly70m2seUl5Tz17ul/xUD5sZQXH4Rhxrj8JpOkthFgv84J6kdSjVFTHPLKWUva+F++0+164o5Diy0HwsWYnwRYCEIAABCAAgX4igBDLYmoXXYyJuYZiTg/j5eklS82BRZv7lRrJcBAR1owMxyEAAQhAAAIQKDoBhFhWU7gfxJizd1E2fUYQZ+GvD533fCnqRRx6mJakiLA0KhyDAAQgAAEIQKBfCKQJMVZNzELqe09RkYcpOucH7zfTn7s+mVNW5DlfnpTNtoiwZmQ4DgEIQAACEIBAPxNgjliWUv+h8DX77383SxZ11xbvLVOoLk67a0HbQutn4RVDRITFNNiHAAQgAAEIQKBfCaT1iCHEspYb+l2MJdPDe8wyOpQxHmZ434t32N0vDP3uTTJK/fBbKyPuMS0sZ7zM8N9D6gcWxBECEIAABCAAAQggxPKUB/pp3lir6RL3nOneLvWeeS+XgkR0iUK6oxcsnQtHIQABCEAAAhDoXwIIsbylPWJs9CnWwaXy+2VVw9HDbn4lIqw5G85AAAIQgAAEINC/BBBieUx7xFhrqXboEW1bjVHDDv/zts+0Fn4fX40I6+PEJ+oQgAAEIAABCAxLIE2IsWrisMgycFLD7vSHIBtdYlx1udlH2rMs/pyHfzy6MPv8Ks0HO3qjU/qcAtGHAAQgAAEIQAACrREot3Y5V/eMgMSYL1zRMyNyELCWxpdoHafTcEQW3hgZonrBEGEjc+IKCEAAAhCAAAQgkCSAEEsSyfJvxNjoUuehB0d33TBXaTEO3PAEGIo4PB/OQgACEIAABCAAgeEIMDRxODpZPMdQxSymSl/ZhADrq+QmshCAAAQgAAEIdIgAPWIdAttxb+kda45YwxPH6RiWmA4QEZbOhaMQgAAEIAABCECgVQL0iLVKLEvX0zuWnhr6ztg4nRagQIzVISLA6izYgwAEIAABCEAAAu0gQI9YOyj22g96x3qdAoUOHxFW6OQlchCAAAQgAAEI9IgAPWI9At/2YOkdazvSfvcQAdbvOYD4QwACEIAABCDQSQL0iHWSbi/8pncsfNB5rXGTn7nMBuP2I68eaFgmIiyvqYfdEIAABCAAAQjkhQA9YnlJqVbspHesFVpcGxFAgEUw2IUABCAAAQhAAAIdJIAQ6yDcnnuNIOt5EuTFAARYXlIKOyEAAQhAAAIQKAoBhFhRUnK4eCDIhqPT1+cQYH2d/EQeAhCAAAQgAIEeEkCI9RB+14PuF0E2fca40c5cNswRe3jc3mTWAwkwuT2mHZhZGzEMAhCAAAQgAAEIFJkAQqzIqdssbhJk7q68zPfY9gEBBFgfJDJRhAAEIAABCEAgFwQQYrlIpg4YGYsxeY8g6wDk7HiJAMtOWmAJBCAAAQhAAAIQEAGEWL/nAxdk2l4VeseKIMjaMTRxmfULkTMkwDTMcmZB4lOIRCESEIAABCAAAQhAIBBAiJEN6gQkxookyOox67s9CTDmf/VdshNhCEAAAhCAAARyRAAhlqPE6pqpCLKuoW53QAiwdhPFPwhAAAIQgAAEINAZAgixznAthq+xIFOMijBssRgp0xAL5n814OAHBCAAAQhAAAIQyAUBhFgukqnHRkqQyfmwRe1nVZSttbasa4tbZ9lN7O4Xbm2LX+32RLbNXGYDhh+2Gyz+QQACEIAABCAAgS4RQIh1CXRhgkmKsqwKssIAb4wIi2808uBX9wkMDJi99ZbZwEKzwcHuh0+IEIAABCAAASdQKpmVJ4RFL4KiKZf9aH62CLH8pFX2LPWhiw89YFb5e9DswfuzZ2fOLUJ85TwBC2D+wiC63njd7M3w91bYx0EAAhCAAASyRmBiEGSTFjVbJPxNCPt5cAixPKRS1m3UcvHxkvFaBl+uF71l09eqht2G/xr614uhiT7skGXn25CIeDEuAur9evUVs9dfG5c33AwBCEAAAhDoOAE1FL4VyiyVW4suZjZ58ez3kiHEOp4t+jCA5PBFIeiWKIsF4TjRSwjZw+P0ZJS3s+DGKEFxWdcISHy9soDhh10DTkAQgAAEINA2AirDNJJj8SWqoqxtHrfZI4RYm4HiXYJALMp8CKMueagDwxi1UEc7hVj4CHKnFuxw4UWvVyK/8DMTBCTAXns1E6ZgBAQgAAEIQGBMBDSPecHLZhpeL0GWRYcQy2KqFNWm5BBGxdPFWTuE2Y67tJ3cHtMOGvfwRB9qKOP4yHLbkwgP20xAhRZDEdsMFe8gAAEIQKBnBNSwKFG2xJI9M6FpwKXB4J6b91zlguWnLN/0Qk5AoCsEJMzkattR9JypJ0wirI29YVUjqv/ve/FOm/Pwj0cUZLHgoqcrJsh+XghoXL3+cBCAAAQgAIGiEdCcMf31yqXpLYRYr1KDcFsn4L1n8Z1pvWzx+TbuS5Dd98IdDT4iuBpw8CPHBN58w2z+SzmOAKZDAAIQgAAERiCw1NJhZcVFRrioQ6cRYh0Ci7cQgAAE8k7gxRfCOPrwfTAcBCAAAQhAoKgEJoRJWcss25vYpQmxHH76rDfwCBUCEIBAUQloThgirKipS7wgAAEIQMAJqKzL0jxohJinDFsIQAACfUrgNb4T1qcpT7QhAAEI9B+BLJV5CLH+y3/EGAIQgECNwFuhdZDesBoOdiAAAQhAoOAEVOap7MuCQ4hlIRWwAQIQgECPCGiRDhwEIAABCECgnwhkpexDiPVTriOuEIAABBIEstIqmDCLnxCAAAQgAIGOEchK2YcQ61gS4zEEIACB7BNYuDD7NmIhBCAAAQhAoJ0EslL2IcTamar4BQEIQCBnBAYHcmYw5kIAAhCAAATGSSArZR9CbJwJye0QgAAE8kxgcDDP1mM7BCAAAQhAoHUCWSn7EGKtpx13QAACEIAABCAAAQhAAAIQGBcBhNi48HEzBCAAAQhAAAIQgAAEIACB1gkgxFpnxh0QgAAEIAABCEAAAhCAAATGRQAhNi583AwBCEAAAhCAAAQgAAEIQKB1Agix1plxBwQgAAEIQAACEIAABCAAgXERQIiNCx83QwACEIAABCAAAQhAAAIQaJ0AQqx1ZtwBAQhAAAIQgAAEIAABCEBgXAQQYuPCx80QgAAEIAABCEAAAhCAAARaJ4AQa50Zd0AAAhCAAAT6ksCbr/dltFMjLRZZ+ShsqoEchAAEMk9gYuYtxEAIQAACEIAABHpC4IXnzG68zuzB+8zuvXPAXnrRbLHJJVtr7ZJtvKXZDruZTeyTmsTgwiqLay43e2JulYUSZcY7S7b2rJLt+l6zKSv2JJlyEej555i9MM+sFLoAPnSo2eJL5sJsjIRARwmUBoN7bl540wa3/JTlOxoYnkMAAhCAQLYIzHs2W/ZgTXYI3HW72TdPG7TXXh1satSKK5sd+amyTVu76SVtPbEwiKEnHq16ucRSZst1qdry6gKz0/5l0B59uDkLWXXY0WXbeseqffxvJPD5YwbtySeq/P71jLKtvFrjeX5BoNsEpqzQ3RDT9BZDE7ubBoQGAQhAAAIQyDyBy//P7PQvDjSIsKWXMdtg07KtsmqpZv8zT5md8eUBU89ZN9wTc81O/vRA5e9/zxpeFLXTnrO/PlSETZ1RMv3F7uyvD9ifboiPsA8BCECgOYE+GVDQHABnIAABCEAAAhCoE3jmSbMff3+gdmDW+uXQ0xMPuyvZvX8p2Vn/NWDPBwGm4YpnnWH26ZNrt3RuJ9Je3Zqf9eLzZrf+sR7wQR8t2zY7mk2eXI3mU48HFmcM2kP3Va8597sDtuEmZZu0aOcw5NHnz51asjffrArXJRmWmMckxOYOEECIdQAqXkIAAhCAAATySuDn59Ut33jzkh15nNmkSfVj2nvnembHfKZsXzy+KtjuCfPHnnws9Jat3nidfmlu1WNhOOFjj5g99USYGxSGFK45repHqbFDaejNbx/RwhgPPRD8eLh+yfyXzP56V/339BnBzoT4kaicG8J9PPxNDHFYcRX16pktskj9vpH2Hg7hutN8sF329F/VrYbY/cOJJftsEKsaxilh+te7zdbbuPE6/XrjNQvDG6vxkP1Tg83Twt/Syw699vVXzR55qHp85WD30suZ6ZjiI/vXXKvxnvkh3EfD9XOD/6+F69aYHmzYMMzpW7zxuuSv2KbnwxyuFVaq2p427DO2adWQ1ksubSbGSodnng5hhnRdZ30zDRtNOvWevhbiLzdjptmECdX9Rx+sHlcemx6Ovx7S+sG/mj1wb0izEM9Z61Y5DZdX1FMqf5S/lgo2bbZllZeOvzy/Gs47gj84CGSNwMSsGYQ9EIAABCAAAQj0hsCTj5nddF29N+yA2aUhIswtkxDYfNty7fobrzX72wP9bHUr/773X4P2yAODjSfCLw1xPOTjJZsVKu4jOQmEf/t83S5d/8C9g+FY3d9T/qsuBBeEOV3nnWV2wzWN9+g+LTay/8El23EP/RrZxSK02aqRS4Vhm1ttV7KrLh2s+P/E40OF2O03Bxb/mT7nThwP/X9BYC1Wt+f+IET+45Sq/bOPKNtdd4S0ub76e+Y6Zfunf61eK6F7ya/MLvjR0LjqCt27/e51f+O94WzafteyHfTRRhEe23TEJ8t2x21m11/ZGK74fuL4kq27URyS2Q+/U+81PO07ZVv27fl9flzzDT9xQtlOPq7RP/kiPod9YqjQ1ty9H30vLKJybeM954a0/9DhZbv2t/Uhpd87v9xoEL8gkAECCLEMJAImQAACEIAABLJAwHtgZEtlPlhKD1ds54cPM9vng2VbNAiIJZaIz1R7NL7y2cYKcnyFFm749y8M2qf+pTyk0h5f1+q+Kucnf6o6bDLtXvVanRvmly1YULa99k+7ovHYjFn131qs42f/U7L3fmBofD/8MbODg+hJc5f9xuwnZzdnIfH71NySfeoLpUovU9KPX1/QGJ+4d+ib/z7YMHQyee85Yajk/JdCXA9oPDOSTb+7bCD0dpXt2C+ElQ5Ljffq14XnhfOhlyvpxPf0L4a//y6bBOponc83TLtefFZcqWzvP7h+duGbZl/+TH0BkPqZ6t55ZzXnnbyW3xDoFQGEWK/IEy4EIAABCEAgYwSeDkO73K0dCRA/ltyqop1W2R4IdWCJHXdrTisFkVKyVcIwvqfDULYff3+w0qOl85pr9m/fLtuESX710K2WhddKe0+EHrZvnFqtYGvu2uwj69cuH4bUyf36Z1aZu6Z99c4cdlTJZoZhaQteNvtt6DmSwJD7RRASm25RttXWrPxs+m/RRc32+3DZLvzf6n2X/nrALv212c57lG2TLczWXqc6VDBNrMhTLdkei7CtdijbnvtYRbze+sdgx4+rvWQSeddcXrI99xtqiubiieHeB5ZMwxSd+W03Nc5f+/DHyrbFNuH+oAevvczs/HPejuuPB2zrEK4vr5+0aaf3lG2PfavD+tTLdfaZVZvuumPAbv5D2TbfeqhNEk4aqjn7yJKtukZ1aOCZX6kv669l/t/7/qH3DXdE8azMwdu+etWvLzC79KJqHC6+cMD2PqA+9+7yS6y2CqOuPjj0gCk9BkIP4R+uCULx7fQaLjzOQaDXBNKbbnptFeFDAAIQgAAEINB1AhpK6G75FXyvvlVFWdek/b0c5jy5k0Dw4YgSQ//0r/rWVnXu0FrvMDvupFJt6XnNqbrx935n+lbfKtNcrBWCIHO32OTByjEd159sgJEAADFLSURBVJ+ueen5UHEPQsndcaGHadOtqsJF89dmf9xsy+3qVR8Js9E4CYr9D6nfp3uumDNQWVnyqA8PBOHSOF8t9vOSi+q/NtysuvDJalPDJ4OCcNxlryDywjBJd1cGPyVi05x6yzYNQkP3uhD7+Y/qYnf395Vtp/dUGat38j1B7O0ajrm7/GLfC0MZI5sk8D50eHUxFs2xUxiHHVO36Tfn18Oo+1Dd0xBEzQvTfC/N79rnQ/XwNBeuVac4aA7e5GC//g4IPWBardNd3AP3q5/U7Tr0qHJlqOmyU6rxUHrtG9ni97OFQNYIhNcWDgIQgAAEIAABCJi9Eob1udNCCUl37vcG7bab6hXg+LwW9jj6M9UKvBZOcLfHPiVbdLL/qm612MTu+5RrPUX33mG29faN14zllxYFcaceM4mDpNt9b80dqx698zapnrp4SF4b/1aP0RZhrtIVc6pzkiRK3f3+6gH7/dVmm7y7ZB/5RKlhsYqH7vOrrNLrlOw522GXwP3lspWDGYuHhTU0Dy3JSwJOC2PETtc9PreeFjsFAZN02+xgdlnovZN7+P7qVv9jm94T0idp0ybvqvYmapiheuoWhtUOkz2W629UtmWWq/upPS3C4W7eM7KtLuj8+HBbiebYlYLA08eyb7mxGs8XX6gKUS1MItvkJPTT8o7mAP7ivNg39iGQPQIIseylCRZBAAIQgAAEekJgxdBL467Vb4MNDNQr3RpC6G6N6b7XuF0z9Oy4i3s6/NhYtk8+Ub9r2lr1/Xhv1TXrvySm3nqr2ptWP9p8T0P7Dphd7R2b+5DZ7X8Kw+Cuqs9T0jL3//mlsJR/6L1yMTU3+gj06lHYHooEzvsO8F/p2+VCT0/SPRWGeMbuxKMkKpu7hysLplTTKLbprDMGKp8faH5ndTVC9cTFzoeCxsfi1RKb9ezF1yf3pyyfPKLVD2VzVXQtfDuKWh3RnXo6JdiSTr2CEmku2JLn+Q2BLBBAiGUhFbABAhCAAAQgkAECK4SV69zFwxT92O5/W7KNQs+Xu/vustATNFQAaA6SOy3kkeYWDxVld/NfbL33xO+Nt/NDj4m7xSL//Zi28SqI+v3aK9Vl2LU/nHszLA6h4Y/qPdKfVo3U33v3LdkN15bsv8+sctD3xC6/OCzoEYbHqdcqFgLq8RqLSxMace/laPyUHW++Hnq/gmiJbRrNvd4TFV+bZlOyZy2+fjT76hVMulJVgyUPj/hb35lrNZ4jesoFEGgzAYRYm4HiHQQgAAEIQCCvBDTfx50WtThgdrkyV8eP6fth+nO3YL7vNW6nRPPL/DtOjVeYqXLvTnO82uF8SXT5FYuy2O9XX41/VedUNR5p/KX5Xy42Dzo0zGHaq/G8BMlWO5i9+lrZ/vd7VTF2xy3VhSo05yrulXnpJRsynE++SbBpKGgrQkbfy3KnMP7hs0EdjuDU+yaxE9v0sWPLltbjFnuV7A2Lz/ViP85fEr4SmMlvyD0bFhPBQSDrBFLaHrJuMvZBAAIQgAAEINAJAutsWP2+l/t91aW+N3Srj/teFi2MEV+xUljZz93dYf5XmrvnzvrR1aeOLCLqVzffixfzuOv2wdSFL9SL506r/o0kflZa1a82u2qOKv313/FePBRy/gv1bpx4VcZ7/hLfUd1/MSww8omDB+yIDwzYxw4YsHjlyqFX14/4Cog6op4ffWBZHy2O//SRawm2lUMcNH/Le5ximzRfL77H95dcKnwAe+Xqx5STnyaoW9GbPX1sWra5ixci8WNacREHgawTQIhlPYWwDwIQgAAEINAlAhIlu4XFG9z9/NyBypLv/tu36lX6n2+HVQrDoglpbpN3149efcmAzX24/lt7EhtzflEf0hj3sjVe2fhrUrSAyCMPDpqGn8XuHetUe3t0TN8pu/aK+KyZxKOWi3e3/sb1uPqx5DaOi/w8+xuh92tB41Wy47oorFkb1f199zb1/V+FsBck7p3zy7pfEhix8KufGbqnZfW1QIq7X/zE96pbfej5O/8xaJ//xwE77vAB+/q/1c/HNl0UbHrjjfo57V16kdm/fHLAjj9iwD59+KC93kR8Nt7VvV/Kp1rsxZ0+Zv2zH5rdf09YvTKIXfViJj807deyhUCWCDA0MUupgS0QgAAEIACBHhPYbiezP99cqn0k+Kc/GLAbryvZrPXDN6zCEMJnwiIRf/hd4weGkyZPW9tMq+rdeXtVbJ183IDte1D4Zlf43pQW1PjNz+tiSCsCrrtR0of038tFQx610Ma3Thu09Tap9mptuW0QYWEO1l77l+yCt5d1P+fbA/bIg+Vgu5mGSF518WBtpUEti77b36aHEx/VcM1d9iyHeV/VuNx0/YDdcUvJtty+ZFpc4rFHzO7+c/37Wbr3XVvWfdh2F7Nf/qS6aISE3JdOGLRd9w4fwQ6i8obfmelbXe50vBW3536l2iqWErwvzivZFtuV7NUw7+2ma+V3nXO8IEhsk1ZF/NIJWu6+OrxPwypjESOeEn1Zc9vvanbPHWVTesjpe2MSkO6Uvs0aCvwathDoNQGEWK9TgPAhAAEIQAACGSKgOU8fO7ZkX/9yqSYSNA9Hf0k3dUbJNtuyVPk4cvLcR//R7N/D6oG+xPovwkeFk07Dyz780eTR5r81jG7P/cqmj/vKaVlzX9p8vSD8JMTes7eFHrhyWKK+eo0EytWXDPXz0KPD/LfJQ4+nHTnwsDAUbpVy+BB11U8NBbz6kqE8dK/mkcXCUmEc+/mSfeWz1eu1QuR5Zw1lsXlYGn+3xPyzNFviY/o2mz7i7HPTtGqj/pJOHzuOP9CdtElp9P1vDL1P31zbLfDMotMwy8OOMZs2oxyEdyPPVVYt2cfDN86++rnqh6mzaD82QUAEEGLkAwhAAAIQgAAEGghI8Bz7ebObbyybPuirXpOk2y303ux3UOh5uSF5pvpbHx0+4ZRS+Hhwya4Mc6viFey0WMS2O5Zsv0PCN7Na7G15/8FmG25atv+70OzOWxor4ApZQvKjR5vNnFW2S381YMml8TcI9x5yRPig8orpdqcd1VA4LdIxbe2yae7R/Xc3xkf3qGdPKyXODMMjk27GO81OPj2wDDa7QPRr1HPz/oPLts0OzRfrmDhMR5k+4rzCisHvn5vdd3cjD82B2+fAkq23sYdW3w5nk4ZI7nVA2bbfucqzfld9L80mfdjZ3cSJ9WGTOjZpkn5X81E5uq7Z8Zo/IS+606qV7rRQzCuh52/9ELcddivb8/OqC8Borpw+7KzVMD3P6aPVOAhkkUBpMLjn5j1XsW35tA84ZNFqbIIABCAAgbYQmPdsW7zBkwIT0Pynpx43U17R/CatsLfG1OowwNFGWwtcSBBpbpnu1xDDkRbJGK3fw12nb1lp9bz5L4WPJS+hhUiaC4vh/EmeExMNjXzu6fCdq2WtMkQxuWpf8h7//crLwaZwn+ZlqUdQ97eLhb799naVruK3xPBonNukuWASqBIyvrDHaO7vxTWnn1Qf1qnexCM+WeeoTw3oY84arii3/a5lm/3xyi7/IFAjEK++WTvYwZ00vYUQ6yBwvIYABCCQdQIIsaynEPZBAAJpBDQ376RP1XsA1Yu3bhieumD+YG3enN/3pTPLo14Exe9hW3wCWRBiw3R2Fz8BiCEEIAABCEAAAhCAQP4IrB56ZT96TJgXGIa5yqmHUouM3HZTdfijjuncJ05AhIkFLpsEotG22TQQqyAAAQhAAAIQgAAEIJAkoA9pb7Bpyeb8slRZun5umMs4efFBW21qufLdtF3eO/IHu5N+8hsC3SSAEOsmbcKCAAQgAAEIQAACEGgbgSWXNjtgtnun3jEW5nAabLNPgKGJ2U8jLIQABCAAAQhAAAIQgAAECkYAIVawBCU6EIAABCAAAQhAAAIQgED2CSDEsp9GWAgBCEAAAhCAAAQgAAEIFIwAQqxgCUp0IAABCEAAAhCAAAQgAIHsE0CIZT+NsBACEIAABCAAAQhAAAIQKBgBhFjBEpToQAACEIAABCAAAQhAAALZJ4AQy34aYSEEIACBjhEosdJzx9jiMQQgAAEIZJNAVso+hFg28wdWQQACEOgKgRKlQFc4EwgEIAABCGSHQFbKPorg7OQJLIEABCDQdQITJnQ9SAKEAAQgAAEI9JRAVso+hFhPswGBQwACEOgtgYkTexs+oUMAAhCAAAS6TSArZR9CrNspT3gQgAAEMkRg0iIZMgZTIAABCEAAAl0gkJWyDyHWhcQmCAhAAAJZJaBWwQn0imU1ebALAhCAAATaTEBlHj1ibYaKdxCAAAQgMDYCiy02tvu4CwIQgAAEIJA3Alkq8+gRy1vuwV4IQAACbSawaBBi9Iq1GSreQQACEIBA5giorFOZlxWHEMtKSmAHBCAAgR4SWHzxHgZO0BCAAAQgAIEuEMhaWYcQ60KiEwQEIACBrBPQxOXJiLGsJxP2QQACEIDAGAmojMvKIh0eBYSYk2ALAQhAoM8JqJDK0pCNPk8Oog8BCEAAAm0ioLIti42NCLE2JTDeQAACECgCgSWWNFtschFiQhwgAAEIQAAC1TJNZVsWHYsWZzFVsAkCEIBADwksvkRYvGOC2SsLzAYHe2gIQUMAAhCAAATGSKBUMlN5luWRHgixMSYut0EAAhAoMgEVXBpL/+orZq+/VuSYEjcIQAACECgaAR+KWM742D+EWNFyHvGBAAQg0CYCKsB8qOIbr5u9Gf7eWtgmz/EGAhCAAAQg0EYCE8NIjkmLmi0S/jSqIw8OIZaHVMJGCEAAAj0koAJNk5z1NzAQxNhbYRsEGcMWe5goBA0BCEAAAqbhh+VQRk0MiibrvV9pyYUQS6PCMQhAAAIQSCWggm6RMGQRBwEIQAACEIDA+AhkfOTk+CLH3RCAAAQgAAEIQAACEIAABLJIACGWxVTBJghAAAIQgAAEIAABCECg0AQQYoVOXiIHAQhAAAIQgAAEIAABCGSRAEIsi6mCTRCAAAQgAAEIQAACEIBAoQkgxAqdvEQOAhCAAAQgAAEIQAACEMgiAYRYFlMFmyAAAQhAAAIQgAAEIACBQhNAiBU6eYkcBCAAAQhAAAIQgAAEIJBFAgixLKYKNkEAAhCAAAQgAAEIQAAChSaAECt08hI5CEAAAhCAAAQgAAEIQCCLBBBiWUwVbIIABCAAAQhAAAIQgAAECk0AIVbo5CVyEIAABCAAAQhAAAIQgEAWCSDEspgq2AQBCEAAAhCAAAQgAAEIFJoAQqzQyUvkIAABCEAAAhCAAAQgAIEsEkCIZTFVsAkCEIAABCAAAQhAAAIQKDQBhFihk5fIQQACEIAABCAAAQhAAAJZJIAQy2KqYBMEIAABCEAAAhCAAAQgUGgCCLFCJy+RgwAEIAABCEAAAhCAAASySAAhlsVUwSYIQAACEIAABCAAAQhAoNAEEGKFTl4iBwEIQAACEIAABCAAAQhkkQBCLIupgk0QgAAEIAABCEAAAhCAQKEJIMQKnbxEDgIQgAAEIAABCEAAAhDIIgGEWBZTBZsgAAEIQAACEIAABCAAgUITQIgVOnmJHAQgAAEIQAACEIAABCCQRQIIsSymCjZBAAIQgAAEIAABCEAAAoUmgBArdPISOQhAAAIQgAAEIAABCEAgiwQQYllMFWyCAAQgAAEIQAACEIAABApNACFW6OQlchCAAAQgAAEIQAACEIBAFgkgxLKYKtgEAQhAAAIQgAAEIAABCBSaAEKs0MlL5CAAAQhAAAIQgAAEIACBLBJAiGUxVbAJAhCAAAQgAAEIQAACECg0AYRYoZOXyEEAAhCAAAQgAAEIQAACWSSAEMtiqmATBCAAAQhAAAIQgAAEIFBoAgixQicvkYMABCAAAQhAAAIQgAAEskgAIZbFVMEmCEAAAhCAAAQgAAEIQKDQBBBihU5eIgcBCEAAAhCAAAQgAAEIZJEAQiyLqYJNEIAABCAAAQhAAAIQgEChCSDECp28RA4CEIAABCAAAQhAAAIQyCIBhFgWUwWbIAABCEAAAhCAAAQgAIFCE0CIFTp5iRwEIAABCEAAAhCAAAQgkEUCCLEspgo2QQACEIAABCAAAQhAAAKFJoAQK3TyEjkIQAACEIAABCAAAQhAIIsEEGJZTBVsggAEIAABCEAAAhCAAAQKTQAhVujkJXIQgAAEIAABCEAAAhCAQBYJIMSymCrYBAEIQAACEIAABCAAAQgUmgBCrNDJS+QgAAEIQAACEIAABCAAgSwSQIhlMVWwCQIQgAAEIAABCEAAAhAoNAGEWKGTl8hBAAIQgAAEIAABCEAAAlkkgBDLYqpgEwQgAAEIQAACEIAABCBQaAIIsUInL5GDAAQgAAEIQAACEIAABLJIACGWxVTBJghAAAIQgAAEIAABCECg0AQQYoVOXiIHAQhAAAIQgAAEIAABCGSRAEIsi6mCTRCAAAQgAAEIQAACEIBAoQkgxAqdvEQOAhCAAAQgAAEIQAACEMgiAYRYFlMFmyAAAQhAAAIQgAAEIACBQhNAiBU6eYkcBCAAAQhAAAIQgAAEIJBFAgixLKYKNkEAAhCAAAQgAAEIQAAChSaAECt08hI5CEAAAhCAAAQgAAEIQCCLBBBiWUwVbIIABCAAAQhAAAIQgAAECk0AIVbo5CVyEIAABCAAAQhAAAIQgEAWCSDEspgq2AQBCEAAAhCAAAQgAAEIFJoAQqzQyUvkIAABCEAAAhCAAAQgAIEsEkCIZTFVsAkCEIAABCAAAQhAAAIQKDQBhFihk5fIQQACEIAABCAAAQhAAAJZJIAQy2KqYBMEIAABCEAAAhCAAAQgUGgCCLFCJy+RgwAEIAABCEAAAhCAAASySAAhlsVUwSYIQAACEIAABCAAAQhAoNAEJhY6dkQOAikEnn/+eXvqqadSzgw9tPrqq9tSSy019ESHjrz55pt2//33V3xfYYUVTH+ddG+88YY98MADlSCmTJliK620UseC62ZYl19+ub3yyiu20UYb2bRp0xridMcdd9iDDz7YcCz5Y8KECbbnnntaqVRKnur738nnZ4011rAll1xyWC5PP/20zZs3r3bNWmutZYsuumjtd6d3uv1ctTs+Dz/8sF1zzTWVZ/WFF16wlVdeuZK3d955565ybHe8Ou1fnFdXW201W3rppTsdZIP/TzzxhL344ouV98g73/nOjr9PHn/8cXvppZcq4bzjHe+wcrlzbe3Kh08++WQlvmuuuaYtscQSDXFv1w/F57e//W0l74vnsssuazNnzqy8n5dbbrlhgxmuHBj2Rk5CoIsEEGJdhE1Q2SCgwsPFzkgWTZw4satC7OWXX7b77ruvYpb2Oy3EXnvttVp4EmGdFGLdCksV/m9+85sVhoceeugQIfazn/3MJMZGcrvttptNmjRppMv67nzy+Zk/f769+93vHpbDLbfcYhJD7iQkuinEuv1ceTzHux0YGLCzzz7bLr744gavJMxuvPFG+9GPfmRf+9rXbJVVVmk4z48qgTivKr91W4jde++9pudDbu211zaVJ510alSTQJKbPn16R58xNa54WbXYYot1RIhdccUV9u1vf9sWLlxYw6a8f9ttt9kFF1xgxx9/vG211Va1c/HOSOVAfC37EOglgc6+FXoZM8LOJ4EnHjO7+gqzv/7V7K030uMwcRGz0NpnO+xsturq6ddwtC8JqPX0pz/96bBxV6tqYd0Lj5jdM8fs6TvNFjZ5fiaE52el9c1m7WG27NRxo1CFbHBwsGlrv3olYhE27gD7yINzzjmnQYSpYUC9tWrUkNNWldEzzzyz0lOQJzRzX37A5jzyE7tz3p/szYFqfJL2TyovZutP2cz2mHqgrbHkjORpfheYgBpvvvGNbzTEUKNTXNjqxGmnnWYnnXSSbbjhhg3XjaYcaLiBHxDoIQGEWA/hE3SCgETYWd9pLsD8cgm0u0JFU2Lt8CPHJcbUSqlhFc2cWvpw2SegVtM///nPtaEyw1n83HPPVU6rt/GUU05pemmnW6+bBjzWExJh13ytuQBzfyXQnrilKta2O27cYkwiTEOiNIw3zfnQ17RzHGtO4KGHHrKLLrqodsHs2bNtn332qQjee+65x84444xKftcQ3Guvvdbe97731a7N+o5E2Ndu/aemAsztl0C79dnrK2LtuE1ORYw5mIJv1QN26qmn1mKpHvdPfvKTpvJYvZw//OEP7YYbbqic/+Uvf1kTYq2UAzXP2YFAjwkgxHqcAAQfEVBPWLNesOiy2q6u1T0Hza4danVHL/aR5rfIT1U2H3300cpWv1XpTFbUVUC8/vrrOm2abxXPLVuwYIGp50C9A5p3JBGgYYCtDM/SUAtvDZw6dWpDD4QKrrlz51bC1hj6ZZZZprIf/9O8uGeffdZky+KLL24zZoyuhVnhSrxoyIvmHGhY2aqrrlppmY/9j/fHGlbsRyv7GiIj/iM5H7aj68Swk0MxR7Kl7efVE9asFywtMF2re7Y8Iu1sS8c05y5NiOm5Ge18TOVhPWOaU6OeHj2bGnKnNIrn6qlHU/MNlRebNaLEz2JyjqAi9tZbb1WeRz2TClfPo8Ia7nmMn2Hdv/zyy5vmxw13T0sQExdLXLlTHPbdd1//abNmzbKjjz7a/vmf/7ly7E9/+lOuhJh6wpr1gtUiGe3oWt1z+HonRkfHvuvvwUUWWaTyLlOeUz7V+1nDF5Wu8fs7GVL8Tpw8ebKtuOKKlfyQLBOS98W/PR+7DfE5ietnnnmmckjv22SD4Kuvvlp538kOL0+aPQuxv/486j4N11Xe1dw52d/MKa/reRIz9WyrbBlt2dHMz5GO33XXXbVedPUAK687Az2nxx13nH3wgx+seKNh5oqXOIy2HBgpfM5DoJsEEGLdpE1YwxNQD1erbiz3tBpGuF4vec0rU2VMThW4eF6MCs2bbrqpck7Xbr/99pV9/bvzzjuHLA7x2GOh9y84TeDW32icenxciCWFoCoSOi+nSsQmm2xS81KF5/XXX1+710+oxX24uSW6749//GPDIgu6VxWI22+/vTI2X4IzdmMNK/ZjLPtaWMOFmOKlimmai4clqgLizgty/53LrYYjturGck9KGBK4qrAlK6JKE81zGsmpR+3WW28dcq2EmSqL22yzTW0Oyl/DM6+hR3KqNCcbHWSHP4saypcUYmos0dwTiTl3yheq0G2++eaVhgY/7tu0Z1jvAFUY119/fdPiI+12EgUSA6qU//3f//0Q72Ou/l4aclFGD2g4YqtuLPc0C0PpqXep8qsEiXoY3eldrnd9Wro2eyfqnaP3/hZbbDGsqPEwtNU7Su+dNCEm/7wnOXn+kUceqbzrda87PT/Ki7q2mdMzo14kbyz06/SMqWFu2223HdKooHLl97//feXZ9uslWPUMqiGiU07Po55r5f299tprSGNpnPeVJu5GWw749WwhkAUCCLEspAI2VAm00hvmzMZyj9/b4laTglWBUwGowkiVTAkZtajffPPNNd8krLw1VYWtCkl3KqzjAlSTudX6r9X9OuXUsh5X1NTCKCe7XbykhX3VVVc1FNqqtOge2a+CUAX0TjvtVCnE/f6xhqVVsVSBllNlptVCfpdddnETKqvLNRNicVqooNeiHhIA6vFTpV2rcR144IG1oS41T/Ow00pvmMdnLPf4vWGrvKQ8IadJ9BrqG7t4dcr42vgaCY44vfSMKK95BUsVRzUkaPEUOYkeTdaXU2V10003rez7P1VU3alRIukUnlwyHOVrNTzssMMOtedX1yWfYV+JziuDqtQrbuphdaeFNHwIrOxdZ511/NSot8ccc0zTa/XO0DAsd6NtzPHre71tpTfMbR3LPX5vs63eOS7C4vebrle6quffe2J0LPlOVF7wfKD8I6Hzrne9q3Kfrm+3k0hUI1js9N7Ss+J/8TnfVw+aVt2Myx7F19+5EjxXX3115RnTcyGnc3qfJ+/xMkA9ZGlOz6QzVUOJBF6rTs+6P+/Je2XPd7/73dphNai5zaMtB2o3swOBDBBAiGUgETChdwQ0nM97mdKsWG+99Wqt/BqCIsHklUBV0HbfffdKRd4LNBU8WjZYTi2QXvFXQaEJxaqs6Vq1KPrKjWqRVOurC6Q0O8Z6TK32LsJkgyqt3hOkcD0uSf9lm7ecqsBWYSpxqUqHehvkrwpEiRj1VsiNNSzdq94JL/C9Yq/j7XbeEyl/zz333AbvVZFRq/JJJ51kqgTvuOOODef5MZSAKqo+JDYpxJTPY9Gj3lMfbhX79Je//KX2U8tRb7311pVhh+qpkABT3lBe1LOkvCtxpcqo8otazocTYhJBaS4OR36rwqnKqpx6lj1Px8+wzsWVbFU43XZtNTTMK4QSSp6P4543+TFepzz8hS98ocZW74399ttvvN727f3i9zd/8zeV95vSTGLL84LSWGWAXPxO1D3KI95ro/eghvvJ3X333R0TYj7qQeHofaz3sgsqCS1/1+t87LTwhb9fdZ9sl4BTPlXe11b5VPH1xhTlab8nLgPkr+Lrz30cjvb1PHne9zIkec1YfytdNHcs5nDwwQeP1Tvug0AmCJQzYQVGQKBHBDT0Qi3ozf6SlShVtnw8vUTJlVdeWetVUuvolltuWYuJL+2rA7rPW8xVqK277rq1oVYq7OJW/JoHbdiJeyQUvoswtyn+HQenAtld3MOnOGpIpotGVT68sB5rWB5ON7bx0ESFp2FrWgDhAx/4QMMQNq1CJxGAG56AKqI+R0qt6vpzJ6HveUPzXFyk+HnfaliU/FEFUUMDvcdJczfjHi2v6Mof+SenZ1ANAO5U8ZOAk5O/+ks6+e9iT+dkv367i/N0/AxrHpmEpzvNk/HvGEl0xnb4Ne3ciuWcOXPs2GOPbRBhJ598cmVOajvD6ie/9C5W3pPTey2eaxU30sXvRAly5Vk55TG9Ez1/SwzFz0Hlojb8U952fxWWizB5rTJF4sptiINT3vRnR8f1jEmEyam3Ly6zNCTSnTci6rfi64z0W0Pf455CHeu0Uw/lUUcd1SDCtIBNs+XrO20P/kOgXQToEWsXSfwpJAEXHHHkVChddtlllZ6tuMVPhZNXSnV9XIh7K2Psj1ph1cKncf3Dje2P72l13wtu3Zdmg47FBa77HwtQ2egt/34+LvDVa+Atw36+lbB0jyoV3orqFRz3q53buLKsHq94+NdBBx1kZ511Vm258PPOO6/WM9JOG4rmlyquLlgkxtW7K6ceMnfKD+oFTnPJHi3lNw3rU+Ux7kGLW/slgnxYrcL0RVfiML3hIxmmGlJc7Pk5VaYl/FzE6bnRB2rjZ1h5PvkcqJLrTr1/LhD1jlAvg1yaGPR7RrvVMLCvfvWrDXNN9ZyceOKJtR740frFdY0EvGHNj0pwa8i4nA+P1b6/E5V3PL/puJyEjT6urfzQqfe53rPu1Lss8RU7lT0akaHGxdjFv2V7/IzE12nf86z2PW+rDEwy0nk992nPtJ5N5+OCT9eP1SkNvvWtb1WGTrofsunII4+0eCiin2MLgbwRaHyS82Y99kJgnATUGjrcClCx4PCgVAButtlmlQ+q+jEVjMneJVUo3aVVxlRItaOg8jDStrFQTLMhbcVI3eM9GfIz7ulKC0MLNahSOJaw3D+t9NgN9+Uvf7lWwUjj8ZGPfMQuvfTSiiiUQJU4TBPj3bA1L2Fo+J8LMQ1XkhBThc5FjSqm3nPULE7KO2rxHm5xjzhP6nnTs6NKmkSKesZUyVQvnLvkIh1+PC3ddU7H3WYJMAmx+BmWKIyFofvn27iirHv11w6nIXGf+9znGkSB5s/oY+Vxw087wupHP5IM09JN+cDzX/J6Z6ah6510njcVRrM8LNtj4aVr48YEPSdxz57Ox05x1LOo69w1ayRMKzt0j/g0Y+R+jnarZ0org8ZDyjX0/9Of/nRlpdPR+sN1EMgyAYRYllMH2zpOQJW3NLE1UsBJcSIxohbTuNCK/VXB1s4KvVcK3M7kbz+etEHxjZ33QsXH4nt0PB6SEl/n+15xie/zirFfo21aWPH5buyPVEmQyFbrr/e2qFKjSj+uOQExVUu8Kk0SRuoZcn66Kx5emOaLnqV4PoquUT5VvpLfzRYFUIu8KpXK+xKA6slw4aSGgWaNHM2eFe8BUPje2xDnaVU849+6LnatLjAT39tsX2xOOOGE2mlVwFUx1fL1uO4RiN/dsUhphwVp+THt2GhsSHvHxu985d9mAkpx0bUKJ87nabbo2rSwdLxdToJQ3w6LhaV6wTQvGweBIhFAiBUpNfMel4mLtPYdMcVX93TZqdU92TKuwlkrZm233XY1azSG3oe2SKglK2oaIqI/VfpUWW02lMo9jAtH+RcPF4mHbfn12sY2aKiXKquxi+cO+HGJSYWlAlhbrSI3GjeWsEbjb7uuURpp6KFaiFXh0FybNCe27rrVU+fhjWs7ITwLra6CqHva4KZPn15bzU3iIRZPacNU4yBjEabeNfnl4l5z+mK/4vvkr7fu6zmKewya9Ybp/jh9Y//i+73xIc7TWqinm6Jcz9/pp59eM1E97l/5yleGrUjXLs74zqRyeDeGb4O14nRPr1z8TlSDW1pDkxY+UmOE3uda4GO0Q6xVRvi71uMXDyn3Y54n9TsWJ35e27hX1o/Hwkv7o32fexngPWSxoJPfaWWHh9mOrT7a7PFUo4ryfrPFd9oRHn5AoFcEGpvHe2UF4UJABN5ebbAlGGO5p6UAGi9Wi3u8fLCWWveWdxUavhKi7opFT3JuiQpyDcVSwakCLRZZjSHWf6lS6C5ZOW22glVcGUjaIL+0SmCa88JbFYQ4TrpWw84uueSSysIBWnbe5xWMNSz5qcqIKjg+D0PH2u1UkdC3orQIh1YKu+qqq4YEocUQPD76NEGy8jHkhiwdWKk6N6slk8ZyT0oA6p3yPKwhnZ6OqjwON0xJFU7lMTlVYDWs0UWYjiXzno65k79eOdWz5wveyI7heuEkxOLhWvJPQ5/cZt3vNsfPsFbDi53s/t3vfleZU6jhrPFcS/WueX7Wsz4WF/upeGqOmD+XY/EvS/esP2Wzls0Zyz0tBzLMDc5e6e5Dcf1y5T810Gmr+Y3xu9qvSW7jHq64cUD++6cP4ns8r+uYGg2SQkiNg94jHN+n97I/m8r3SbGmT7H85je/qbzPtfKiO38GZI8vR+/n9L6Ohwv6cW2V3z3vx73M8TUj7as807vYHSLMSbAtIgF6xIqYqnmN0w47W5j9O/peMfWG6Z5xOLWkJwu02DtNOlYl090f/vCHWsVRH1XWeYmx6667rnKJKms6pkJTqw0+FFahUkGmAlrXqBVfFX215HsFTYWkzy/zwk+eyS4VSBIEqqRqno0vNiF/1TqvAl9+NYuDbHCRpgJYBa0vr68J6c160vTdI31TSU5iTTbLRlUYNEHbe/oUvlc6xhqWwlClU5zktIpX3NtXOdimf7vuuqv94Ac/qPimlRElxhSe0kzxlbB0t//++/tuPraz9gjfEAgfdR5tr5h6w3RPG5zysBiqUhe7kVqwNa9G9yrtVWlTb5o/b2o4iCuoyr/60zBId/LfG0a80ifxNJKA1nOgPK5Kqp6pWPDFvWnxM6xnTL3eeoZV0dQ9XqnVs6z4u5PY93PyT5+uaNXF31ZTj4wWj2nm1NuepyXs95h6oOkDzaPtFVNvmO7ppYvfif79R62iqUYxlSPu9O7393g8VF1lg96h3quq6/zzDloOXos9KR+pscjzsvuprcoALQbjz5i+46j8Kf8k3NIWztB9Enx6pryhQo1Q6rHTc+R5X8+fwnbbdJ/89mdLeV09Y2rgUONJ3Iuta2Mn0ebPkxpV9K3JVl28PL3sv/zyy5t6offHIYccUmPe9EJOQCCjBBBiGU2YvjRr1dXNDj/S7OorhhdkEmDqCZMI0z3jcGpZjIckJb1SARVXDF24qIDdeOONK5dLIGlYoQo6XS+xpgq/esp0jQpZORW6+gZX0sXLwWsOiApcFcSq7OleVeJUmdOiIipsVWBqfL4LJfnn9yT9ln9um85JEMY2qMIq/5JOBb6Eprd6qoKsv9ipgJTt7sYalt/vWzHslNtrr70qrbtKIzkV+HGh7+Eq3bQKWq7cslPNtjvO7J7QkjycIJMAU0+YRJjuaZNT/vRKorxUBWm4nim/RqLbGxjUS6w/d8qf8kf5Xc+DBM4ee9TFo/xX+sV5ZiTxJ/+U59N6iPUcxR9fTj7DzRbs0MqPujfNxbalnW92LH7eVNG++OKLm11aWbwhT0JsjSVn2HGbnGpzHvnJsIJMAkw9YRJhuqeXLvlO1PvexY3bpfwaL6euRjTv3VLjmRrFPP9KDHkDnsoV35dfzd7LG2ywQWVYvPKv8lWyp0p5Oy2/qadZglEiSvdK7CWdevzivK9yQz1/PkxStnujnu5tFlbsb5ot8flm+z7kWOf17A+X93XN3nvv3dAQomM4COSFQHrJkRfrsbN4BCSsDprd0XipkButU2EjpyEdceGgXrDYH4klLVCgyqJaDlWZVKGpiqJEmwo+L9A8bAkXtYLGrZA6p6Xc1fLuQ+T8egkfzUFTZdR7pHRO/us7SFdffbVf2rDV3BaFpUI7LhjVk6X79C20NKfKpVptVRgnW2jVAi/bkyuFjTWstPDbcUzMYqffxx9/vJ1//vl24YUXpjL+u7/7O5Ngy6WTsNryiI6aHuf7eF95QsLF86Z6iOLzzfYl5jW/Rs9PnM+UP/XNIz1P+iBtfM4jKD9nzpxZ6w1Q+sY9U35dvNX1apBw8efn1DumSnRSUI30DCvPx0MY5Z+/N9zvVrd6Tr0C3+q9eblewurw9U7sqLnN8txwgcZpF+/rnuHeicoDasDx3jBdr0YBiSz1mMXvXp1TA57eocr78TnNS5UI8t4oXetO71s1EKk3zBsFdU52qrFOIispDnVez4XmhslPDaGNw9O9amxUeRXz0n3qzVLDnZ6V+B7ZqJ7hm2++WZc15PekH5ULWvyXFocWvWi4PFkONJzkBwR6TKAUHq7B5+Y9VzFj+SnL99gcgodAcQlIiKn3TQWfCjKfWzaWGMsfiUOJuLjgH8kv3SM7VGlOVjiHu1fDrHSfRJ+GtIzm3rGGNZwd7TynSosqSOrlUCVfFRkNNWpHRaKddvaTX5rj4vl6NHlMbFSx9GF86sVNfpesGT81mmjoo9Jbz9Fo0j1+hvUctPLsNbOD4/kk4O9E5QGJ+NHkn2Yx1bBXvYP0Xh6taND1us/Db+Z38rh6mGS7Gvo0dFCNbUnBmbxHIkwjOvTOlI0jXZ+8n98QgECVQJreQoiROyAAAQhAIHcENM9LvQJxT5la/VWxxEEAAhCAAASyRiBNiI1+jFbWYoM9EIAABCDQtwTUexaLMC0ugAjr2+xAxCEAAQjkkgBzxHKZbBgNAQhAoL8JSHhpeJWGZmlIqa/e2d9UiD0EIAABCOSJAEIsT6mFrRCAAAQgUCEwffp0SEAAAhCAAARyTYChiblOPoyHAAQgAAEIQAACEIAABPJIACGWx1TDZghAAAIQgAAEIAABCEAg1wQQYrlOPoyHAAQgAAEIQAACEIAABPJIACGWx1TDZghAAAIQgAAEIAABCEAg1wQQYrlOPoyHAAQgAAEIQAACEIAABPJIACGWx1TDZghAAAIQgAAEIAABCEAg1wQQYrlOPoyHAAQgAAEIQAACEIAABPJIACGWx1TDZghAAAIQgAAEIAABCEAg1wQQYrlOPoyHAAQgAAEIQAACEIAABPJIACGWx1TDZghAAAIQgAAEIAABCEAg1wQQYrlOPoyHAAQgAAEIQAACEIAABPJIACGWx1TDZghAAAIQgAAEIAABCEAg1wQQYrlOPoyHAAQgAAEIQAACEIAABPJIACGWx1TDZghAAAIQgAAEIAABCEAg1wQQYrlOPoyHAAQgAAEIQAACEIAABPJIACGWx1TDZghAAAIQgAAEIAABCEAg1wQQYrlOPoyHAAQgAAEIQAACEIAABPJIACGWx1TDZghAAAIQgAAEIAABCEAg1wQQYrlOPoyHAAQgAAEIQAACEIAABPJIACGWx1TDZghAAAIQgAAEIAABCEAg1wQQYrlOPoyHAAQgAAEIQAACEIAABPJIACGWx1TDZghAAAIQgAAEIAABCEAg1wQQYrlOPoyHAAQgAAEIQAACEIAABPJIACGWx1TDZghAAAIQgAAEIAABCEAg1wQQYrlOPoyHAAQgAAEIQAACEIAABPJIACGWx1TDZghAAAIQgAAEIAABCEAg1wQQYrlOPoyHAAQgAAEIQAACEIAABPJIACGWx1TDZghAAAIQgAAEIAABCEAg1wQQYrlOPoyHAAQgAAEIQAACEIAABPJIACGWx1TDZghAAAIQgAAEIAABCEAg1wQQYrlOPoyHAAQgAAEIQAACEIAABPJIACGWx1TDZghAAAIQgAAEIAABCEAg1wQQYrlOPoyHAAQgAAEIQAACEIAABPJIACGWx1TDZghAAAIQgAAEIAABCEAg1wQQYrlOPoyHAAQgAAEIQAACEIAABPJIACGWx1TDZghAAAIQgAAEIAABCEAg1wQQYrlOPoyHAAQgAAEIQAACEIAABPJIACGWx1TDZghAAAIQgAAEIAABCEAg1wQQYrlOPoyHAAQgAAEIQAACEIAABPJIACGWx1TDZghAAAIQgAAEIAABCEAg1wQQYrlOPoyHAAQgAAEIQAACEIAABPJIACGWx1TDZghAAAIQgAAEIAABCEAg1wQQYrlOPoyHAAQgAAEIQAACEIAABPJIACGWx1TDZghAAAIQgAAEIAABCEAg1wQQYrlOPoyHAAQgAAEIQAACEIAABPJIACGWx1TDZghAAAIQgAAEIAABCEAg1wT+P5BBJyp5UOzQAAAAAElFTkSuQmCC;" vertex="1" parent="1">
          <mxGeometry x="243.43" y="-2332.33" width="536" height="298.33" as="geometry" />
        </mxCell>
      </root>
    </mxGraphModel>
  </diagram>
  <diagram id="l9-5S5afMfmamhBMmtlj" name="Page-3">
    <mxGraphModel dx="538" dy="1150" grid="1" gridSize="10" guides="1" tooltips="1" connect="1" arrows="1" fold="1" page="1" pageScale="1" pageWidth="827" pageHeight="1169" math="0" shadow="0">
      <root>
        <mxCell id="0" />
        <mxCell id="1" parent="0" />
        <mxCell id="uh8AuVyuBL5LGRXIX2me-2" value="" style="rounded=1;whiteSpace=wrap;html=1;fillColor=#999999;fontColor=#333333;strokeColor=#333333;labelBackgroundColor=default;" vertex="1" parent="1">
          <mxGeometry x="20" y="130" width="770" height="848" as="geometry" />
        </mxCell>
        <mxCell id="uh8AuVyuBL5LGRXIX2me-3" value="&lt;span style=&quot;caret-color: rgb(0, 0, 0); text-align: start;&quot;&gt;&lt;b style=&quot;&quot;&gt;&lt;font face=&quot;Helvetica&quot; style=&quot;font-size: 39px;&quot;&gt;Portugal Legislation&lt;/font&gt;&lt;/b&gt;&lt;/span&gt;" style="rounded=0;whiteSpace=wrap;html=1;fillColor=#d5e8d4;strokeColor=#82b366;" vertex="1" parent="1">
          <mxGeometry x="140" y="158" width="530" height="60" as="geometry" />
        </mxCell>
        <mxCell id="uh8AuVyuBL5LGRXIX2me-8" value="" style="edgeStyle=orthogonalEdgeStyle;rounded=0;orthogonalLoop=1;jettySize=auto;html=1;fontSize=18;strokeWidth=4;" edge="1" parent="1" source="uh8AuVyuBL5LGRXIX2me-4" target="uh8AuVyuBL5LGRXIX2me-7">
          <mxGeometry relative="1" as="geometry" />
        </mxCell>
        <mxCell id="uh8AuVyuBL5LGRXIX2me-4" value="" style="verticalLabelPosition=bottom;verticalAlign=top;html=1;shape=card;whiteSpace=wrap;size=20;arcSize=12;" vertex="1" parent="1">
          <mxGeometry x="35" y="268" width="160" height="110" as="geometry" />
        </mxCell>
        <mxCell id="uh8AuVyuBL5LGRXIX2me-7" value="" style="verticalLabelPosition=bottom;verticalAlign=top;html=1;shape=card;whiteSpace=wrap;size=20;arcSize=12;fillColor=#dae8fc;strokeColor=#6c8ebf;" vertex="1" parent="1">
          <mxGeometry x="285" y="268" width="490" height="110" as="geometry" />
        </mxCell>
        <mxCell id="uh8AuVyuBL5LGRXIX2me-15" value="" style="edgeStyle=orthogonalEdgeStyle;rounded=0;orthogonalLoop=1;jettySize=auto;html=1;fontSize=18;strokeWidth=4;" edge="1" parent="1" source="uh8AuVyuBL5LGRXIX2me-16" target="uh8AuVyuBL5LGRXIX2me-17">
          <mxGeometry relative="1" as="geometry" />
        </mxCell>
        <mxCell id="uh8AuVyuBL5LGRXIX2me-16" value="" style="verticalLabelPosition=bottom;verticalAlign=top;html=1;shape=card;whiteSpace=wrap;size=20;arcSize=12;" vertex="1" parent="1">
          <mxGeometry x="35" y="418" width="160" height="110" as="geometry" />
        </mxCell>
        <mxCell id="uh8AuVyuBL5LGRXIX2me-17" value="" style="verticalLabelPosition=bottom;verticalAlign=top;html=1;shape=card;whiteSpace=wrap;size=20;arcSize=12;fillColor=#dae8fc;strokeColor=#6c8ebf;" vertex="1" parent="1">
          <mxGeometry x="285" y="418" width="490" height="110" as="geometry" />
        </mxCell>
        <mxCell id="uh8AuVyuBL5LGRXIX2me-18" value="" style="edgeStyle=orthogonalEdgeStyle;rounded=0;orthogonalLoop=1;jettySize=auto;html=1;fontSize=18;strokeWidth=4;" edge="1" parent="1" source="uh8AuVyuBL5LGRXIX2me-19" target="uh8AuVyuBL5LGRXIX2me-20">
          <mxGeometry relative="1" as="geometry" />
        </mxCell>
        <mxCell id="uh8AuVyuBL5LGRXIX2me-19" value="" style="verticalLabelPosition=bottom;verticalAlign=top;html=1;shape=card;whiteSpace=wrap;size=20;arcSize=12;" vertex="1" parent="1">
          <mxGeometry x="35" y="578" width="160" height="110" as="geometry" />
        </mxCell>
        <mxCell id="uh8AuVyuBL5LGRXIX2me-20" value="" style="verticalLabelPosition=bottom;verticalAlign=top;html=1;shape=card;whiteSpace=wrap;size=20;arcSize=12;fillColor=#dae8fc;strokeColor=#6c8ebf;" vertex="1" parent="1">
          <mxGeometry x="285" y="578" width="490" height="110" as="geometry" />
        </mxCell>
        <mxCell id="uh8AuVyuBL5LGRXIX2me-21" value="" style="edgeStyle=orthogonalEdgeStyle;rounded=0;orthogonalLoop=1;jettySize=auto;html=1;fontSize=18;strokeWidth=4;" edge="1" parent="1" source="uh8AuVyuBL5LGRXIX2me-22" target="uh8AuVyuBL5LGRXIX2me-23">
          <mxGeometry relative="1" as="geometry" />
        </mxCell>
        <mxCell id="uh8AuVyuBL5LGRXIX2me-22" value="" style="verticalLabelPosition=bottom;verticalAlign=top;html=1;shape=card;whiteSpace=wrap;size=20;arcSize=12;fillColor=#f5f5f5;fontColor=#333333;strokeColor=#666666;" vertex="1" parent="1">
          <mxGeometry x="35" y="738" width="160" height="110" as="geometry" />
        </mxCell>
        <mxCell id="uh8AuVyuBL5LGRXIX2me-23" value="" style="verticalLabelPosition=bottom;verticalAlign=top;html=1;shape=card;whiteSpace=wrap;size=20;arcSize=12;fillColor=#dae8fc;strokeColor=#6c8ebf;" vertex="1" parent="1">
          <mxGeometry x="285" y="738" width="490" height="110" as="geometry" />
        </mxCell>
        <mxCell id="uh8AuVyuBL5LGRXIX2me-24" value="&lt;div style=&quot;&quot;&gt;&lt;b style=&quot;caret-color: rgb(0, 0, 0); background-color: transparent; color: light-dark(rgb(0, 0, 0), rgb(255, 255, 255));&quot;&gt;&lt;font style=&quot;font-size: 23px;&quot; face=&quot;Helvetica&quot;&gt;The EU Cooperation Group&lt;/font&gt;&lt;/b&gt;&lt;/div&gt;" style="text;html=1;align=center;verticalAlign=middle;whiteSpace=wrap;rounded=0;" vertex="1" parent="1">
          <mxGeometry x="80" y="308" width="80" height="30" as="geometry" />
        </mxCell>
        <mxCell id="uh8AuVyuBL5LGRXIX2me-26" value="&lt;div style=&quot;&quot;&gt;&lt;span style=&quot;caret-color: rgb(0, 0, 0); text-align: start;&quot;&gt;&lt;font style=&quot;font-size: 21px;&quot; face=&quot;Helvetica&quot;&gt;&lt;b style=&quot;&quot;&gt;Centro Nacional de Cibersegurança (CNCS)&lt;/b&gt;&lt;/font&gt;&lt;/span&gt;&lt;/div&gt;" style="text;html=1;align=center;verticalAlign=middle;whiteSpace=wrap;rounded=0;rotation=0;" vertex="1" parent="1">
          <mxGeometry x="80" y="458" width="80" height="30" as="geometry" />
        </mxCell>
        <mxCell id="uh8AuVyuBL5LGRXIX2me-27" value="&lt;div style=&quot;&quot;&gt;&lt;span style=&quot;caret-color: rgb(0, 0, 0); text-align: start;&quot;&gt;&lt;b style=&quot;&quot;&gt;&lt;font style=&quot;font-size: 22px;&quot; face=&quot;Helvetica&quot;&gt;Autoridade Nacional de Cibersegurança (ANC)&lt;/font&gt;&lt;/b&gt;&lt;/span&gt;&lt;/div&gt;" style="text;html=1;align=center;verticalAlign=middle;whiteSpace=wrap;rounded=0;" vertex="1" parent="1">
          <mxGeometry x="75" y="618" width="80" height="30" as="geometry" />
        </mxCell>
        <mxCell id="uh8AuVyuBL5LGRXIX2me-28" value="&lt;div style=&quot;&quot;&gt;&lt;span style=&quot;caret-color: rgb(0, 0, 0); text-align: start;&quot;&gt;&lt;b style=&quot;&quot;&gt;&lt;font style=&quot;font-size: 21px;&quot; face=&quot;Helvetica&quot;&gt;Ministério da Administração Interna (MAI)&lt;/font&gt;&lt;/b&gt;&lt;/span&gt;&lt;/div&gt;" style="text;html=1;align=center;verticalAlign=middle;whiteSpace=wrap;rounded=0;" vertex="1" parent="1">
          <mxGeometry x="75" y="778" width="80" height="30" as="geometry" />
        </mxCell>
        <mxCell id="uh8AuVyuBL5LGRXIX2me-29" value="&lt;span style=&quot;caret-color: rgb(0, 0, 0); font-size: medium;&quot;&gt;&lt;font face=&quot;Helvetica&quot;&gt;Facilitates cooperation and information sharing among EU Member States.&lt;/font&gt;&lt;/span&gt;" style="text;html=1;align=center;verticalAlign=middle;whiteSpace=wrap;rounded=0;" vertex="1" parent="1">
          <mxGeometry x="290" y="290" width="480" height="30" as="geometry" />
        </mxCell>
        <mxCell id="uh8AuVyuBL5LGRXIX2me-30" value="&lt;span style=&quot;caret-color: rgb(0, 0, 0); font-size: medium; text-align: start;&quot;&gt;&lt;font face=&quot;Helvetica&quot;&gt;Provides strategic guidance for the implementation of the NIS Directive.&lt;/font&gt;&lt;/span&gt;" style="text;html=1;align=center;verticalAlign=middle;whiteSpace=wrap;rounded=0;" vertex="1" parent="1">
          <mxGeometry x="290" y="330" width="480" height="30" as="geometry" />
        </mxCell>
        <mxCell id="uh8AuVyuBL5LGRXIX2me-31" value="&lt;font face=&quot;Helvetica&quot;&gt;&lt;span style=&quot;caret-color: rgb(0, 0, 0); font-size: medium; text-align: start;&quot;&gt;Acts as the&amp;nbsp;&lt;/span&gt;&lt;span style=&quot;caret-color: rgb(0, 0, 0); font-size: medium; text-align: start;&quot;&gt;&lt;span style=&quot;&quot; class=&quot;Apple-converted-space&quot;&gt;Single Point of Contact (SPOC)&lt;/span&gt;for cybersecurity in Portugal.&lt;/span&gt;&lt;/font&gt;" style="text;html=1;align=center;verticalAlign=middle;whiteSpace=wrap;rounded=0;" vertex="1" parent="1">
          <mxGeometry x="290" y="428" width="480" height="30" as="geometry" />
        </mxCell>
        <mxCell id="uh8AuVyuBL5LGRXIX2me-32" value="&lt;font face=&quot;Helvetica&quot;&gt;&lt;span style=&quot;caret-color: rgb(0, 0, 0); font-size: medium; text-align: start;&quot;&gt;Provides technical expertise to operators of essential services (OES), digital service providers (DSP),and competent authorities&lt;/span&gt;&lt;span style=&quot;caret-color: rgb(0, 0, 0); font-size: medium; text-align: start;&quot;&gt;.&lt;/span&gt;&lt;/font&gt;" style="text;html=1;align=center;verticalAlign=middle;whiteSpace=wrap;rounded=0;" vertex="1" parent="1">
          <mxGeometry x="290" y="468" width="480" height="30" as="geometry" />
        </mxCell>
        <mxCell id="uh8AuVyuBL5LGRXIX2me-33" value="&lt;span style=&quot;caret-color: rgb(0, 0, 0); font-size: medium; text-align: start;&quot;&gt;&lt;font face=&quot;Helvetica&quot;&gt;Oversees the implementation of the NIS2 Directive in Portugal.&lt;/font&gt;&lt;/span&gt;" style="text;html=1;align=center;verticalAlign=middle;whiteSpace=wrap;rounded=0;" vertex="1" parent="1">
          <mxGeometry x="290" y="498" width="480" height="30" as="geometry" />
        </mxCell>
        <mxCell id="uh8AuVyuBL5LGRXIX2me-34" value="&lt;span style=&quot;caret-color: rgb(0, 0, 0); font-size: medium; text-align: start;&quot;&gt;National Authority responsible for enforcing cybersecurity compliance.&lt;/span&gt;" style="text;html=1;align=center;verticalAlign=middle;whiteSpace=wrap;rounded=0;" vertex="1" parent="1">
          <mxGeometry x="310" y="590" width="460" height="25" as="geometry" />
        </mxCell>
        <mxCell id="uh8AuVyuBL5LGRXIX2me-35" value="&lt;p style=&quot;margin: 0px 0px 1px; font-variant-numeric: normal; font-variant-east-asian: normal; font-variant-alternates: normal; font-size-adjust: none; font-kerning: auto; font-optical-sizing: auto; font-feature-settings: normal; font-variation-settings: normal; font-variant-position: normal; font-variant-emoji: normal; font-stretch: normal; line-height: normal;&quot; class=&quot;p1&quot;&gt;&lt;font face=&quot;Helvetica&quot; style=&quot;font-size: 16px;&quot;&gt;Audits Operators of Essential Services (OES) and Digital Service Providers (DSP).&lt;/font&gt;&lt;/p&gt;" style="text;html=1;align=center;verticalAlign=middle;whiteSpace=wrap;rounded=0;" vertex="1" parent="1">
          <mxGeometry x="285" y="628" width="480" height="30" as="geometry" />
        </mxCell>
        <mxCell id="uh8AuVyuBL5LGRXIX2me-36" value="&lt;span style=&quot;caret-color: rgb(0, 0, 0); font-size: medium; text-align: start;&quot;&gt;&lt;font face=&quot;Helvetica&quot;&gt;Issues guidelines and supervises adherence to NIS requirements.&lt;/font&gt;&lt;/span&gt;" style="text;html=1;align=center;verticalAlign=middle;whiteSpace=wrap;rounded=0;" vertex="1" parent="1">
          <mxGeometry x="290" y="658" width="480" height="30" as="geometry" />
        </mxCell>
        <mxCell id="uh8AuVyuBL5LGRXIX2me-37" value="&lt;span style=&quot;caret-color: rgb(0, 0, 0); font-size: medium; text-align: start;&quot;&gt;Coordinates national policies on cybersecurity and critical infrastructure protection.&lt;/span&gt;" style="text;html=1;align=center;verticalAlign=middle;whiteSpace=wrap;rounded=0;" vertex="1" parent="1">
          <mxGeometry x="290" y="760" width="480" height="30" as="geometry" />
        </mxCell>
        <mxCell id="uh8AuVyuBL5LGRXIX2me-38" value="&lt;p style=&quot;margin: 0px 0px 1px; font-variant-numeric: normal; font-variant-east-asian: normal; font-variant-alternates: normal; font-size-adjust: none; font-kerning: auto; font-optical-sizing: auto; font-feature-settings: normal; font-variation-settings: normal; font-variant-position: normal; font-variant-emoji: normal; font-stretch: normal; line-height: normal; font-family: &amp;quot;Helvetica Neue&amp;quot;;&quot; class=&quot;p1&quot;&gt;&lt;font style=&quot;font-size: 16px;&quot;&gt;Liaises with the EU Cooperation Group and ensures alignment with EU directives.&lt;/font&gt;&lt;/p&gt;" style="text;html=1;align=center;verticalAlign=middle;whiteSpace=wrap;rounded=0;" vertex="1" parent="1">
          <mxGeometry x="290" y="800" width="480" height="30" as="geometry" />
        </mxCell>
      </root>
    </mxGraphModel>
  </diagram>
  <diagram id="RtyZDY7cnDYL-_UCThrc" name="Page-4">
    <mxGraphModel dx="1253" dy="1438" grid="1" gridSize="10" guides="1" tooltips="1" connect="1" arrows="1" fold="1" page="1" pageScale="1" pageWidth="850" pageHeight="1100" math="0" shadow="0">
      <root>
        <mxCell id="0" />
        <mxCell id="1" parent="0" />
        <mxCell id="5oq1VG4AQuf9viVr6fF--2" value="" style="rounded=0;whiteSpace=wrap;html=1;labelBackgroundColor=default;fillColor=#999999;" vertex="1" parent="1">
          <mxGeometry x="10" y="70" width="810" height="930" as="geometry" />
        </mxCell>
        <mxCell id="5oq1VG4AQuf9viVr6fF--3" value="&lt;span style=&quot;caret-color: rgb(0, 0, 0); text-align: start;&quot;&gt;&lt;font style=&quot;font-size: 25px;&quot; face=&quot;Helvetica&quot;&gt;&lt;b style=&quot;&quot;&gt;In 2024&lt;/b&gt;&lt;/font&gt;&lt;/span&gt;" style="rounded=0;whiteSpace=wrap;html=1;fillColor=#dae8fc;strokeColor=#6c8ebf;" vertex="1" parent="1">
          <mxGeometry x="30" y="80" width="140" height="60" as="geometry" />
        </mxCell>
        <mxCell id="5oq1VG4AQuf9viVr6fF--6" value="" style="rounded=0;whiteSpace=wrap;html=1;fillColor=#d5e8d4;strokeColor=#82b366;" vertex="1" parent="1">
          <mxGeometry x="350" y="70" width="460" height="90" as="geometry" />
        </mxCell>
        <mxCell id="5oq1VG4AQuf9viVr6fF--7" value="&lt;span style=&quot;caret-color: rgb(0, 0, 0); color: rgb(0, 0, 0); font-style: normal; font-variant-caps: normal; letter-spacing: normal; text-align: start; text-indent: 0px; text-transform: none; white-space: normal; word-spacing: 0px; -webkit-text-stroke-width: 0px; text-decoration: none; float: none; display: inline !important;&quot;&gt;&lt;b style=&quot;&quot;&gt;&lt;font style=&quot;font-size: 25px;&quot;&gt;In 2023&lt;/font&gt;&lt;/b&gt;&lt;/span&gt;" style="rounded=0;whiteSpace=wrap;html=1;fillColor=#dae8fc;strokeColor=#6c8ebf;" vertex="1" parent="1">
          <mxGeometry x="30" y="180" width="140" height="60" as="geometry" />
        </mxCell>
        <mxCell id="5oq1VG4AQuf9viVr6fF--8" value="&lt;font style=&quot;font-size: 25px;&quot;&gt;&lt;b&gt;In 2021&lt;/b&gt;&lt;/font&gt;" style="rounded=0;whiteSpace=wrap;html=1;fillColor=#dae8fc;strokeColor=#6c8ebf;" vertex="1" parent="1">
          <mxGeometry x="30" y="380" width="140" height="60" as="geometry" />
        </mxCell>
        <mxCell id="5oq1VG4AQuf9viVr6fF--9" value="&lt;b&gt;&lt;font style=&quot;font-size: 25px;&quot;&gt;In 2019&lt;/font&gt;&lt;/b&gt;" style="rounded=0;whiteSpace=wrap;html=1;fillColor=#dae8fc;strokeColor=#6c8ebf;" vertex="1" parent="1">
          <mxGeometry x="30" y="580" width="140" height="60" as="geometry" />
        </mxCell>
        <mxCell id="5oq1VG4AQuf9viVr6fF--10" value="&lt;font style=&quot;font-size: 25px;&quot;&gt;&lt;b&gt;In&amp;nbsp; May 2018&lt;/b&gt;&lt;/font&gt;" style="rounded=0;whiteSpace=wrap;html=1;fillColor=#dae8fc;strokeColor=#6c8ebf;" vertex="1" parent="1">
          <mxGeometry x="30" y="680" width="140" height="60" as="geometry" />
        </mxCell>
        <mxCell id="5oq1VG4AQuf9viVr6fF--11" value="&lt;span style=&quot;caret-color: rgb(0, 0, 0); text-align: start;&quot;&gt;&lt;font style=&quot;font-size: 25px;&quot; face=&quot;Helvetica&quot;&gt;&lt;b&gt;In April 2018&lt;/b&gt;&lt;/font&gt;&lt;/span&gt;" style="rounded=0;whiteSpace=wrap;html=1;fillColor=#dae8fc;strokeColor=#6c8ebf;" vertex="1" parent="1">
          <mxGeometry x="30" y="780" width="140" height="60" as="geometry" />
        </mxCell>
        <mxCell id="5oq1VG4AQuf9viVr6fF--12" value="&lt;font style=&quot;font-size: 25px;&quot;&gt;&lt;b&gt;In 2020&lt;/b&gt;&lt;/font&gt;" style="rounded=0;whiteSpace=wrap;html=1;fillColor=#dae8fc;strokeColor=#6c8ebf;" vertex="1" parent="1">
          <mxGeometry x="30" y="480" width="140" height="60" as="geometry" />
        </mxCell>
        <mxCell id="5oq1VG4AQuf9viVr6fF--13" value="&lt;span style=&quot;caret-color: rgb(0, 0, 0); text-align: start;&quot;&gt;&lt;b style=&quot;&quot;&gt;&lt;font style=&quot;font-size: 25px;&quot;&gt;In 2022&lt;/font&gt;&lt;/b&gt;&lt;/span&gt;" style="rounded=0;whiteSpace=wrap;html=1;fillColor=#dae8fc;strokeColor=#6c8ebf;" vertex="1" parent="1">
          <mxGeometry x="30" y="280" width="140" height="60" as="geometry" />
        </mxCell>
        <mxCell id="5oq1VG4AQuf9viVr6fF--14" style="edgeStyle=orthogonalEdgeStyle;rounded=0;orthogonalLoop=1;jettySize=auto;html=1;exitX=0.5;exitY=1;exitDx=0;exitDy=0;fillColor=#dae8fc;strokeColor=#6c8ebf;" edge="1" parent="1" source="5oq1VG4AQuf9viVr6fF--12" target="5oq1VG4AQuf9viVr6fF--12">
          <mxGeometry relative="1" as="geometry" />
        </mxCell>
        <mxCell id="5oq1VG4AQuf9viVr6fF--16" value="&lt;span style=&quot;caret-color: rgb(0, 0, 0); text-align: start;&quot;&gt;&lt;font style=&quot;font-size: 19px;&quot; face=&quot;Helvetica&quot;&gt;&lt;b style=&quot;&quot;&gt;In 6 July 2016 - 17 April 2018&lt;/b&gt;&lt;/font&gt;&lt;/span&gt;" style="rounded=0;whiteSpace=wrap;html=1;fillColor=#dae8fc;strokeColor=#6c8ebf;" vertex="1" parent="1">
          <mxGeometry x="30" y="880" width="140" height="60" as="geometry" />
        </mxCell>
        <mxCell id="5oq1VG4AQuf9viVr6fF--17" style="edgeStyle=orthogonalEdgeStyle;rounded=0;orthogonalLoop=1;jettySize=auto;html=1;exitX=0.5;exitY=1;exitDx=0;exitDy=0;fillColor=#d5e8d4;strokeColor=#82b366;" edge="1" parent="1" source="5oq1VG4AQuf9viVr6fF--2" target="5oq1VG4AQuf9viVr6fF--2">
          <mxGeometry relative="1" as="geometry" />
        </mxCell>
        <mxCell id="5oq1VG4AQuf9viVr6fF--18" value="" style="shape=flexArrow;endArrow=classic;html=1;rounded=0;fontColor=default;entryX=0.279;entryY=0.002;entryDx=0;entryDy=0;endWidth=67.6923076923077;endSize=50.65;width=82.5;entryPerimeter=0;fillColor=#f5f5f5;strokeColor=#666666;" edge="1" parent="1">
          <mxGeometry width="50" height="50" relative="1" as="geometry">
            <mxPoint x="260.14" y="990" as="sourcePoint" />
            <mxPoint x="260" y="69.99999999999967" as="targetPoint" />
            <Array as="points">
              <mxPoint x="260.14" y="530" />
            </Array>
          </mxGeometry>
        </mxCell>
        <mxCell id="5oq1VG4AQuf9viVr6fF--20" value="" style="rounded=0;whiteSpace=wrap;html=1;fillColor=#d5e8d4;strokeColor=#82b366;" vertex="1" parent="1">
          <mxGeometry x="350" y="180" width="460" height="80" as="geometry" />
        </mxCell>
        <mxCell id="5oq1VG4AQuf9viVr6fF--21" value="" style="rounded=0;whiteSpace=wrap;html=1;fillColor=#d5e8d4;strokeColor=#82b366;" vertex="1" parent="1">
          <mxGeometry x="350" y="280" width="460" height="80" as="geometry" />
        </mxCell>
        <mxCell id="5oq1VG4AQuf9viVr6fF--22" value="" style="rounded=0;whiteSpace=wrap;html=1;fillColor=#d5e8d4;strokeColor=#82b366;" vertex="1" parent="1">
          <mxGeometry x="350" y="380" width="460" height="80" as="geometry" />
        </mxCell>
        <mxCell id="5oq1VG4AQuf9viVr6fF--23" value="" style="rounded=0;whiteSpace=wrap;html=1;fillColor=#d5e8d4;strokeColor=#82b366;" vertex="1" parent="1">
          <mxGeometry x="350" y="480" width="460" height="80" as="geometry" />
        </mxCell>
        <mxCell id="5oq1VG4AQuf9viVr6fF--24" value="" style="rounded=0;whiteSpace=wrap;html=1;fillColor=#d5e8d4;strokeColor=#82b366;" vertex="1" parent="1">
          <mxGeometry x="350" y="580" width="460" height="80" as="geometry" />
        </mxCell>
        <mxCell id="5oq1VG4AQuf9viVr6fF--25" value="" style="rounded=0;whiteSpace=wrap;html=1;fillColor=#d5e8d4;strokeColor=#82b366;" vertex="1" parent="1">
          <mxGeometry x="350" y="680" width="460" height="80" as="geometry" />
        </mxCell>
        <mxCell id="5oq1VG4AQuf9viVr6fF--26" value="" style="rounded=0;whiteSpace=wrap;html=1;fillColor=#d5e8d4;strokeColor=#82b366;" vertex="1" parent="1">
          <mxGeometry x="350" y="780" width="460" height="80" as="geometry" />
        </mxCell>
        <mxCell id="5oq1VG4AQuf9viVr6fF--27" value="" style="rounded=0;whiteSpace=wrap;html=1;fillColor=#d5e8d4;strokeColor=#82b366;" vertex="1" parent="1">
          <mxGeometry x="350" y="880" width="460" height="80" as="geometry" />
        </mxCell>
        <mxCell id="5oq1VG4AQuf9viVr6fF--28" value="&lt;span style=&quot;caret-color: rgb(0, 0, 0); text-align: start;&quot;&gt;&lt;font face=&quot;Helvetica&quot;&gt;NIS IMPLEMENTATION 2016-2024&lt;/font&gt;&lt;/span&gt;" style="text;html=1;align=center;verticalAlign=middle;whiteSpace=wrap;rounded=0;rotation=-90;fontStyle=1;fontSize=26;fillColor=#d5e8d4;strokeColor=#82b366;" vertex="1" parent="1">
          <mxGeometry x="70" y="580" width="430" height="30" as="geometry" />
        </mxCell>
        <mxCell id="5oq1VG4AQuf9viVr6fF--36" value="&lt;p style=&quot;margin: 0px 0px 1px; font-variant-numeric: normal; font-variant-east-asian: normal; font-variant-alternates: normal; font-size-adjust: none; font-kerning: auto; font-optical-sizing: auto; font-feature-settings: normal; font-variation-settings: normal; font-variant-position: normal; font-variant-emoji: normal; font-stretch: normal; line-height: normal; font-family: &amp;quot;Helvetica Neue&amp;quot;; text-align: start;&quot; class=&quot;p1&quot;&gt;&lt;font style=&quot;font-size: 18px;&quot;&gt;&lt;span style=&quot;white-space: pre;&quot;&gt;&#x9;&lt;/span&gt;17 October 2024: Official deadline for the transposition of the NIS2 Directive across the EU.&lt;/font&gt;&lt;/p&gt;" style="text;html=1;align=center;verticalAlign=middle;whiteSpace=wrap;rounded=0;" vertex="1" parent="1">
          <mxGeometry x="350" y="80" width="460" height="30" as="geometry" />
        </mxCell>
        <mxCell id="5oq1VG4AQuf9viVr6fF--37" value="&lt;p style=&quot;margin: 0px 0px 1px; font-variant-numeric: normal; font-variant-east-asian: normal; font-variant-alternates: normal; font-size-adjust: none; font-kerning: auto; font-optical-sizing: auto; font-feature-settings: normal; font-variation-settings: normal; font-variant-position: normal; font-variant-emoji: normal; font-stretch: normal; line-height: normal;&quot; class=&quot;p1&quot;&gt;&lt;font face=&quot;Helvetica&quot; style=&quot;font-size: 15px;&quot;&gt;&lt;span style=&quot;white-space: pre;&quot;&gt;&#x9;&lt;/span&gt;First implementing regulation under NIS2: Expansion of critical sectors to include scientific research and postal services.&lt;/font&gt;&lt;/p&gt;" style="text;html=1;align=left;verticalAlign=middle;whiteSpace=wrap;rounded=0;" vertex="1" parent="1">
          <mxGeometry x="350" y="120" width="460" height="30" as="geometry" />
        </mxCell>
        <mxCell id="5oq1VG4AQuf9viVr6fF--38" value="&lt;p style=&quot;margin: 0px 0px 1px; font-variant-numeric: normal; font-variant-east-asian: normal; font-variant-alternates: normal; font-size-adjust: none; font-kerning: auto; font-optical-sizing: auto; font-feature-settings: normal; font-variation-settings: normal; font-variant-position: normal; font-variant-emoji: normal; font-stretch: normal; line-height: normal;&quot; class=&quot;p1&quot;&gt;&lt;font face=&quot;Helvetica&quot; style=&quot;font-size: 16px;&quot;&gt;&lt;span style=&quot;white-space: pre;&quot;&gt;&#x9;&lt;/span&gt;Transposition of the NIS2 Directive into national laws: Member States began integrating the NIS2 requirements and introduced stricter sanctions for non-compliance, including financial penalties.&lt;/font&gt;&lt;/p&gt;" style="text;html=1;align=left;verticalAlign=middle;whiteSpace=wrap;rounded=0;" vertex="1" parent="1">
          <mxGeometry x="350" y="220" width="460" as="geometry" />
        </mxCell>
        <mxCell id="5oq1VG4AQuf9viVr6fF--39" value="&lt;p style=&quot;margin: 0px 0px 1px; font-variant-numeric: normal; font-variant-east-asian: normal; font-variant-alternates: normal; font-size-adjust: none; font-kerning: auto; font-optical-sizing: auto; font-feature-settings: normal; font-variation-settings: normal; font-variant-position: normal; font-variant-emoji: normal; font-stretch: normal; line-height: normal;&quot; class=&quot;p1&quot;&gt;&lt;font face=&quot;Helvetica&quot; style=&quot;font-size: 15px;&quot;&gt;&lt;span style=&quot;white-space: pre;&quot;&gt;&#x9;&lt;/span&gt;Main goal: Harmonize cybersecurity measures across Member States and increase the resilience of networks and information systems.&lt;/font&gt;&lt;/p&gt;" style="text;html=1;align=left;verticalAlign=middle;whiteSpace=wrap;rounded=0;" vertex="1" parent="1">
          <mxGeometry x="350" y="320" width="460" height="30" as="geometry" />
        </mxCell>
        <mxCell id="5oq1VG4AQuf9viVr6fF--40" value="&lt;p style=&quot;margin: 0px 0px 1px; font-variant-numeric: normal; font-variant-east-asian: normal; font-variant-alternates: normal; font-size-adjust: none; font-kerning: auto; font-optical-sizing: auto; font-feature-settings: normal; font-variation-settings: normal; font-variant-position: normal; font-variant-emoji: normal; font-stretch: normal; line-height: normal;&quot; class=&quot;p1&quot;&gt;&lt;font face=&quot;Helvetica&quot; style=&quot;font-size: 15px;&quot;&gt;&lt;span style=&quot;white-space: pre;&quot;&gt;&#x9;&lt;/span&gt;Formal adoption of the NIS2 Directive by the European Union on 27 December 2022, replacing the original NIS Directive.&lt;/font&gt;&lt;/p&gt;" style="text;html=1;align=left;verticalAlign=middle;whiteSpace=wrap;rounded=0;" vertex="1" parent="1">
          <mxGeometry x="350" y="280" width="460" height="30" as="geometry" />
        </mxCell>
        <mxCell id="5oq1VG4AQuf9viVr6fF--41" value="&lt;p style=&quot;margin: 0px 0px 1px; font-variant-numeric: normal; font-variant-east-asian: normal; font-variant-alternates: normal; font-size-adjust: none; font-kerning: auto; font-optical-sizing: auto; font-feature-settings: normal; font-variation-settings: normal; font-variant-position: normal; font-variant-emoji: normal; font-stretch: normal; line-height: normal;&quot; class=&quot;p1&quot;&gt;&lt;font face=&quot;Helvetica&quot; style=&quot;font-size: 16px;&quot;&gt;&lt;span style=&quot;white-space: pre;&quot;&gt;&#x9;&lt;/span&gt;Review of the NIS Directive by the European Commission: Identified limitations and proposed new plans to include more critical sectors and enhance collaboration between Member States.&lt;/font&gt;&lt;/p&gt;" style="text;html=1;align=left;verticalAlign=middle;whiteSpace=wrap;rounded=0;" vertex="1" parent="1">
          <mxGeometry x="350" y="410" width="460" height="30" as="geometry" />
        </mxCell>
        <mxCell id="5oq1VG4AQuf9viVr6fF--42" value="&lt;p style=&quot;margin: 0px 0px 1px; font-variant-numeric: normal; font-variant-east-asian: normal; font-variant-alternates: normal; font-size-adjust: none; font-kerning: auto; font-optical-sizing: auto; font-feature-settings: normal; font-variation-settings: normal; font-variant-position: normal; font-variant-emoji: normal; font-stretch: normal; line-height: normal;&quot; class=&quot;p1&quot;&gt;&lt;font style=&quot;font-size: 16px;&quot;&gt;&lt;span style=&quot;white-space: pre;&quot;&gt;&#x9;&lt;/span&gt;Implementation of action plans by OES and DSP: Achieving NIS compliance through routine audits to ensure continuous compliance and improvements.&lt;/font&gt;&lt;/p&gt;" style="text;html=1;align=left;verticalAlign=middle;whiteSpace=wrap;rounded=0;" vertex="1" parent="1">
          <mxGeometry x="350" y="505" width="460" height="30" as="geometry" />
        </mxCell>
        <mxCell id="5oq1VG4AQuf9viVr6fF--43" value="&lt;p style=&quot;margin: 0px 0px 1px; font-variant-numeric: normal; font-variant-east-asian: normal; font-variant-alternates: normal; font-size-adjust: none; font-kerning: auto; font-optical-sizing: auto; font-feature-settings: normal; font-variation-settings: normal; font-variant-position: normal; font-variant-emoji: normal; font-stretch: normal; line-height: normal;&quot; class=&quot;p1&quot;&gt;&lt;font face=&quot;Helvetica&quot; style=&quot;font-size: 16px;&quot;&gt;&lt;span style=&quot;white-space: pre;&quot;&gt;&#x9;&lt;/span&gt;OES and DSP conducted self-assessments: Measured cybersecurity capabilities and developed action plans to address security gaps identified during assessments.&lt;/font&gt;&lt;/p&gt;" style="text;html=1;align=left;verticalAlign=middle;whiteSpace=wrap;rounded=0;" vertex="1" parent="1">
          <mxGeometry x="350" y="605" width="460" height="30" as="geometry" />
        </mxCell>
        <mxCell id="5oq1VG4AQuf9viVr6fF--44" value="&lt;p style=&quot;margin: 0px 0px 1px; font-variant-numeric: normal; font-variant-east-asian: normal; font-variant-alternates: normal; font-size-adjust: none; font-kerning: auto; font-optical-sizing: auto; font-feature-settings: normal; font-variation-settings: normal; font-variant-position: normal; font-variant-emoji: normal; font-stretch: normal; line-height: normal;&quot; class=&quot;p1&quot;&gt;&lt;font face=&quot;Helvetica&quot; style=&quot;font-size: 16px;&quot;&gt;&lt;span style=&quot;white-space: pre;&quot;&gt;&#x9;&lt;/span&gt;Compliance with NIS requirements: Became mandatory for Operators of Essential Services (OES) and Digital Service Providers (DSP).&lt;/font&gt;&lt;/p&gt;" style="text;html=1;align=left;verticalAlign=middle;whiteSpace=wrap;rounded=0;" vertex="1" parent="1">
          <mxGeometry x="350" y="705" width="460" height="30" as="geometry" />
        </mxCell>
        <mxCell id="5oq1VG4AQuf9viVr6fF--45" value="&lt;p style=&quot;margin: 0px 0px 1px; font-variant-numeric: normal; font-variant-east-asian: normal; font-variant-alternates: normal; font-size-adjust: none; font-kerning: auto; font-optical-sizing: auto; font-feature-settings: normal; font-variation-settings: normal; font-variant-position: normal; font-variant-emoji: normal; font-stretch: normal; line-height: normal;&quot; class=&quot;p1&quot;&gt;&lt;font face=&quot;Helvetica&quot; style=&quot;font-size: 16px;&quot;&gt;&lt;span style=&quot;white-space: pre;&quot;&gt;&#x9;&lt;/span&gt;The NCSC released the Cyber Assessment Framework (CAF): A guideline for achieving compliance, focusing on identifying gaps in cybersecurity resilience and risk management within critical sectors.&lt;/font&gt;&lt;/p&gt;" style="text;html=1;align=left;verticalAlign=middle;whiteSpace=wrap;rounded=0;" vertex="1" parent="1">
          <mxGeometry x="350" y="805" width="460" height="30" as="geometry" />
        </mxCell>
        <mxCell id="5oq1VG4AQuf9viVr6fF--46" value="&lt;p style=&quot;margin: 0px 0px 1px; font-variant-numeric: normal; font-variant-east-asian: normal; font-variant-alternates: normal; font-size-adjust: none; font-kerning: auto; font-optical-sizing: auto; font-feature-settings: normal; font-variation-settings: normal; font-variant-position: normal; font-variant-emoji: normal; font-stretch: normal; line-height: normal;&quot; class=&quot;p1&quot;&gt;&lt;font style=&quot;font-size: 16px;&quot; face=&quot;Helvetica&quot;&gt;&lt;span style=&quot;white-space: pre;&quot;&gt;&#x9;&lt;/span&gt;The NCSC published its national cybersecurity strategy (2016-2021): Aligned with EU objectives.&lt;/font&gt;&lt;/p&gt;" style="text;html=1;align=left;verticalAlign=middle;whiteSpace=wrap;rounded=0;" vertex="1" parent="1">
          <mxGeometry x="350" y="880" width="460" height="30" as="geometry" />
        </mxCell>
        <mxCell id="5oq1VG4AQuf9viVr6fF--47" value="&lt;p style=&quot;margin: 0px 0px 1px; font-variant-numeric: normal; font-variant-east-asian: normal; font-variant-alternates: normal; font-size-adjust: none; font-kerning: auto; font-optical-sizing: auto; font-feature-settings: normal; font-variation-settings: normal; font-variant-position: normal; font-variant-emoji: normal; font-stretch: normal; line-height: normal;&quot; class=&quot;p1&quot;&gt;&lt;font face=&quot;Helvetica&quot; style=&quot;font-size: 16px;&quot;&gt;&lt;span style=&quot;white-space: pre;&quot;&gt;&#x9;&lt;/span&gt;NIS Directive officially adopted by the European Parliament: Marking the first implementing regulation under NIS.&lt;/font&gt;&lt;/p&gt;" style="text;html=1;align=left;verticalAlign=middle;whiteSpace=wrap;rounded=0;" vertex="1" parent="1">
          <mxGeometry x="350" y="920" width="460" height="30" as="geometry" />
        </mxCell>
      </root>
    </mxGraphModel>
  </diagram>
</mxfile>
